<svg width="55" height="121" viewBox="0 0 55 121" fill="none" xmlns="http://www.w3.org/2000/svg">
<path d="M0.5 4.50586C0.5 4.50586 13.5 1.50586 27.5 1.00592C41.5 0.505981 54.5 4.00592 54.5 4.00592L36.8913 113.006H18.1087L0.5 4.50586Z" fill="url(#paint0_linear_2014_15624)"/>
<g filter="url(#filter0_d_2014_15624)">
<mask id="path-2-inside-1_2014_15624" fill="white">
<path fill-rule="evenodd" clip-rule="evenodd" d="M36.9192 105.973L28 54.5L19.0808 105.973C18.3896 107.332 18 108.871 18 110.5C18 116.023 22.4772 120.5 28 120.5C33.5228 120.5 38 116.023 38 110.5C38 108.871 37.6104 107.332 36.9192 105.973Z"/>
</mask>
<path d="M28 54.5L28.9853 54.3293L27.0147 54.3293L28 54.5ZM36.9192 105.973L35.9339 106.144L35.9596 106.292L36.0278 106.427L36.9192 105.973ZM19.0808 105.973L19.9722 106.427L20.0404 106.292L20.0661 106.144L19.0808 105.973ZM27.0147 54.6707L35.9339 106.144L37.9045 105.803L28.9853 54.3293L27.0147 54.6707ZM20.0661 106.144L28.9853 54.6707L27.0147 54.3293L18.0955 105.803L20.0661 106.144ZM19 110.5C19 109.032 19.3508 107.649 19.9722 106.427L18.1894 105.52C17.4285 107.016 17 108.71 17 110.5H19ZM28 119.5C23.0294 119.5 19 115.471 19 110.5H17C17 116.575 21.9249 121.5 28 121.5V119.5ZM37 110.5C37 115.471 32.9706 119.5 28 119.5V121.5C34.0751 121.5 39 116.575 39 110.5H37ZM36.0278 106.427C36.6492 107.649 37 109.032 37 110.5H39C39 108.71 38.5715 107.016 37.8106 105.52L36.0278 106.427Z" fill="#ADB4C2" mask="url(#path-2-inside-1_2014_15624)"/>
</g>
<defs>
<filter id="filter0_d_2014_15624" x="14" y="46.5" width="28" height="74" filterUnits="userSpaceOnUse" color-interpolation-filters="sRGB">
<feFlood flood-opacity="0" result="BackgroundImageFix"/>
<feColorMatrix in="SourceAlpha" type="matrix" values="0 0 0 0 0 0 0 0 0 0 0 0 0 0 0 0 0 0 127 0" result="hardAlpha"/>
<feOffset dy="-4"/>
<feGaussianBlur stdDeviation="2"/>
<feComposite in2="hardAlpha" operator="out"/>
<feColorMatrix type="matrix" values="0 0 0 0 0 0 0 0 0 0 0 0 0 0 0 0 0 0 0.05 0"/>
<feBlend mode="normal" in2="BackgroundImageFix" result="effect1_dropShadow_2014_15624"/>
<feBlend mode="normal" in="SourceGraphic" in2="effect1_dropShadow_2014_15624" result="shape"/>
</filter>
<linearGradient id="paint0_linear_2014_15624" x1="27.5" y1="4.00586" x2="27.5" y2="113.006" gradientUnits="userSpaceOnUse">
<stop stop-color="#FDF2F4"/>
<stop offset="1" stop-color="#FDF2F4" stop-opacity="0.2"/>
</linearGradient>
</defs>
</svg>
