<svg id="Layer_1" data-name="Layer 1" xmlns="http://www.w3.org/2000/svg" xmlns:xlink="http://www.w3.org/1999/xlink" viewBox="0 0 773.12 418.38"><defs><style>.cls-1{fill:#be1e2d;}.cls-2{fill:#981416;}.cls-3{fill:#a68374;}.cls-20,.cls-22,.cls-4{fill:none;}.cls-4{stroke:#a68374;stroke-miterlimit:10;}.cls-5{fill:#906d63;}.cls-6{fill:#d9d1b4;}.cls-7{fill:#c2b59b;}.cls-8{fill:#d1d3d4;}.cls-9{fill:#bcbec0;}.cls-10{fill:#808285;}.cls-11{fill:#fff;}.cls-12{fill:#e6e7e8;}.cls-13{fill:#6d6e71;}.cls-14{fill:#939598;}.cls-15{fill:#58595b;}.cls-16{fill:#231f20;}.cls-17{fill:url(#linear-gradient);}.cls-18{fill:#171813;}.cls-19{fill:#2b2e2f;}.cls-20{stroke:#bcbec0;}.cls-20,.cls-22{stroke-linecap:round;stroke-linejoin:round;}.cls-21{fill:#a7a9ac;}.cls-22{stroke:#a7a9ac;}.cls-23{fill:#1c75bc;}.cls-24{fill:#414042;}.cls-25{fill:#f1f2f2;}.cls-26{opacity:0.4;}.cls-27{fill:#1c5f8b;}.cls-28{fill:#ffde17;opacity:0.5;}</style><linearGradient id="linear-gradient" x1="2171.81" y1="107.33" x2="2138.24" y2="69.01" gradientTransform="translate(1931.48 -2056.09) rotate(81.45)" gradientUnits="userSpaceOnUse"><stop offset="0"/><stop offset="1"/></linearGradient></defs><title>data not found</title><polygon class="cls-1" points="734.39 284.6 728.97 283.04 728.47 278.6 744.97 280.02 734.39 284.6"/><path class="cls-2" d="M2328.06,330.13l2.32-4.91s-6-1.22-6-3.84v7.75Z" transform="translate(-1595.91 -42.78)"/><path class="cls-1" d="M2326.88,326.71c-5,.33-14.55-10.5-14.55-10.5l.17,12.83s-1.12,4.34,8.21,5,9.67-2.5,9.67-2.5v-6.32C2330,325.91,2329.06,326.57,2326.88,326.71Z" transform="translate(-1595.91 -42.78)"/><path class="cls-3" d="M2313.7,314.38a1.33,1.33,0,1,1-1.32-1.33A1.33,1.33,0,0,1,2313.7,314.38Z" transform="translate(-1595.91 -42.78)"/><line class="cls-4" x1="716.47" y1="314.6" x2="716.47" y2="271.6"/><polygon class="cls-3" points="761.09 363.93 751.76 346.6 740.43 340.6 735.76 330.6 725.76 314.6 709.09 307.93 695.09 299.27 665.76 299.27 652.43 326.6 637.09 327.93 630.43 333.93 604.43 340.6 535.76 340.6 526.9 364.23 761.09 363.93"/><path class="cls-5" d="M2255.5,402.88c0-2.5-2-13-2-13l-3.5-7.17-17.5-5.33-1.36-5-4.81,4.32-26,6.67h-68.66l-6.59,17.55,22.92.45,46.5-1,27.63,6.5,26.17,0C2252.15,405.46,2255.5,403.94,2255.5,402.88Z" transform="translate(-1595.91 -42.78)"/><polygon class="cls-5" points="751.76 346.6 740.43 340.6 735.76 330.6 725.76 314.6 709.09 307.93 695.09 299.27 694.61 299.27 693.1 306.27 691.43 319.93 696.1 329.27 703.1 345.6 706.43 343.6 702.76 326.27 705.1 313.93 723.43 320.6 722.1 343.6 731.43 361.93 752.21 363.94 761.09 363.93 751.76 346.6"/><polygon class="cls-6" points="654.1 339.93 671.43 305.27 669.77 299.27 665.76 299.27 652.43 326.6 637.09 327.93 630.43 333.93 607.66 339.77 607.1 340.6 639.76 334.6 654.1 339.93"/><path class="cls-3" d="M2019.67,406l-15.34-24.66-36-1.34-10,2.67H1901s-28,7.33-30,8-29.33-.67-29.33-.67l-42-18L1763,369.38l-25.33,35.33h-12l-2-23.33L1695,382l-20,9.34-23.33.66-18,14,166.66,14Z" transform="translate(-1595.91 -42.78)"/><path class="cls-7" d="M1875,391.88l33-1,45.49-8.17H1901s-22.16,5.8-28.45,7.55Z" transform="translate(-1595.91 -42.78)"/><polygon class="cls-7" points="104.59 348.1 113.03 338.94 99.1 339.27 79.1 348.6 104.59 348.1"/><polygon class="cls-7" points="159.77 336.81 185.59 342.6 167.74 326.65 167.1 326.6 159.77 336.81"/><path class="cls-5" d="M2004.84,407l9-10.3-9.52-15.31-36-1.34-3.29.88,6,6-12.5,7-22.5,14.5-16-3-13.29-22.67H1901l-2.48.65,1.48,10s-11,9.5-12.5,10.5-45,8-45,8l.74-21.76-1.57-.08-39.93-17.11-1.24,12.45-22-2,1,6s3.5,12.5,2,15.5-47.5,7.5-47.5,7.5l-1-7.67h-7.35l-2-23.33-26.78.62c1.17,3.36,2.11,5.88,2.11,5.88l-7,21,7.37,2.68,101,8.48Z" transform="translate(-1595.91 -42.78)"/><rect class="cls-8" x="364.59" y="352.1" width="51.5" height="13.5"/><path class="cls-9" d="M2075.73,408.38a38,38,0,0,0-75.46,0Z" transform="translate(-1595.91 -42.78)"/><path class="cls-8" d="M2041.83,375.07c-1.26-.12-2.54-.19-3.83-.19a38,38,0,0,0-37.73,33.5h7.67A38,38,0,0,1,2041.83,375.07Z" transform="translate(-1595.91 -42.78)"/><path class="cls-10" d="M2043.11,375.22c9.18,7.3,15.6,19.28,17,33.16h15.67A38,38,0,0,0,2043.11,375.22Z" transform="translate(-1595.91 -42.78)"/><path class="cls-7" d="M1605.91,403.21a9.67,9.67,0,1,0,0,19.32h115.95a9.86,9.86,0,0,1,10,9.65,9.86,9.86,0,0,0,10,9.66h76.6a9.87,9.87,0,0,1,10,9.66,9.87,9.87,0,0,0,10,9.66H1906a9.67,9.67,0,1,0,0-19.32h-18a9.66,9.66,0,1,1,0-19.31h186.72a9.66,9.66,0,1,1,0,19.31h-82.25a9.67,9.67,0,1,0,0,19.32h180.68a9.87,9.87,0,0,0,10-9.66,9.87,9.87,0,0,1,10-9.66H2293a9.86,9.86,0,0,0,10-9.66,9.86,9.86,0,0,1,10-9.65h46a9.67,9.67,0,1,0,0-19.32Z" transform="translate(-1595.91 -42.78)"/><path class="cls-7" d="M1619.46,451.5a9.87,9.87,0,0,0,10,9.66H1677a9.67,9.67,0,1,0,0-19.32h-47.53A9.87,9.87,0,0,0,1619.46,451.5Z" transform="translate(-1595.91 -42.78)"/><path class="cls-3" d="M2249.58,407.14a4.24,4.24,0,0,1-4.24,4.24H2071.9a4.23,4.23,0,0,1-4.23-4.24h0a4.23,4.23,0,0,1,4.23-4.24h173.44a4.24,4.24,0,0,1,4.24,4.24Z" transform="translate(-1595.91 -42.78)"/><path class="cls-11" d="M2104,244.17s4.23,100.77,31.72,144.86h24.85l5.29-115.25L2172.68,389h29.61s23.26-62.38,23.26-134.81C2224.49,218.27,2104,244.17,2104,244.17Z" transform="translate(-1595.91 -42.78)"/><path class="cls-12" d="M2225.49,260.22l-46.73.61L2178,381.1l26.89.39C2210.7,363.46,2224.53,315.21,2225.49,260.22Z" transform="translate(-1595.91 -42.78)"/><path class="cls-12" d="M2165.81,273.78l-14.54,29.6-25.91,5.82-7.73,32.91q1,4.09,2.16,8.1c5.94,2.4,18.36,6.54,32,5.78l2.11,27.22,6.9-.54Z" transform="translate(-1595.91 -42.78)"/><path class="cls-12" d="M2104.38,251.57l120.79,18.84c.24-5.33.38-10.73.38-16.19a13.84,13.84,0,0,0-5.53-10.76l-115.69,7.38C2104.34,251.07,2104.36,251.32,2104.38,251.57Z" transform="translate(-1595.91 -42.78)"/><path class="cls-9" d="M2246.16,47.77H2137.92A8,8,0,0,0,2130,55.7V251.58H2254.1V55.7A8,8,0,0,0,2246.16,47.77Z" transform="translate(-1595.91 -42.78)"/><polygon class="cls-13" points="637.04 133.99 633.33 208.8 658.19 208.8 658.19 178.27 658.19 120.51 637.04 133.99"/><path class="cls-11" d="M2249.64,134.56c0,2.92-1.81,5.28-4,5.28s-4-2.36-4-5.28,1.8-5.29,4-5.29S2249.64,131.64,2249.64,134.56Z" transform="translate(-1595.91 -42.78)"/><path class="cls-14" d="M2245.61,129.27a3.17,3.17,0,0,0-.53,0c2,.34,3.51,2.55,3.51,5.24s-1.53,4.9-3.51,5.23a3.17,3.17,0,0,0,.53.05c2.22,0,4-2.36,4-5.28S2247.83,129.27,2245.61,129.27Z" transform="translate(-1595.91 -42.78)"/><path class="cls-15" d="M2248,134.56c0,1.72-1.06,3.11-2.37,3.11s-2.38-1.39-2.38-3.11,1.07-3.12,2.38-3.12S2248,132.84,2248,134.56Z" transform="translate(-1595.91 -42.78)"/><path class="cls-11" d="M2228.72,47.77H2120.48a8,8,0,0,0-7.94,7.93V251.58h124.11V55.7A8,8,0,0,0,2228.72,47.77Z" transform="translate(-1595.91 -42.78)"/><path class="cls-9" d="M2223.67,52.93h-98.14a7.21,7.21,0,0,0-7.19,7.19V237.7h112.51V60.12A7.2,7.2,0,0,0,2223.67,52.93Z" transform="translate(-1595.91 -42.78)"/><path class="cls-11" d="M2086,87s-55.91,25-52.34,54.71,76.13,31.72,76.13,31.72l12.69-51.14s-32.52,9.12-44.81,8.32,15.86-19.82,15.86-19.82Z" transform="translate(-1595.91 -42.78)"/><path class="cls-12" d="M2111.83,165.14l-3.38-24.59-19.75,31c11.94,1.65,21.07,1.9,21.07,1.9Z" transform="translate(-1595.91 -42.78)"/><path class="cls-12" d="M2075.9,92.16c-1.66,7-2,18.21,10,24.22,4.05-3.14,7.62-5.56,7.62-5.56L2086,87S2081.85,88.88,2075.9,92.16Z" transform="translate(-1595.91 -42.78)"/><path class="cls-11" d="M2131.18,119.14s-23,3.31-28.94,8.46V243.25c0,17.05,19,11.1,61.06,11.1s69,4,69-5.95-1.59-116.57-1.59-116.57S2219.6,110.42,2131.18,119.14Z" transform="translate(-1595.91 -42.78)"/><path class="cls-12" d="M2216.82,255c9.94-.45,15.47-2.09,15.47-6.58,0-6.23-.63-50.7-1.1-82.87h-14.37Z" transform="translate(-1595.91 -42.78)"/><rect class="cls-9" x="503.16" y="197.7" width="138.38" height="16.26"/><rect class="cls-14" x="598.32" y="197.7" width="43.22" height="16.26"/><path class="cls-11" d="M2211.73,140.36v-49a36.43,36.43,0,0,0-36.42-36.42h-10a36.43,36.43,0,0,0-36.42,36.42v49Z" transform="translate(-1595.91 -42.78)"/><path class="cls-15" d="M2196.34,94.43A34.43,34.43,0,1,1,2161.91,60,34.44,34.44,0,0,1,2196.34,94.43Z" transform="translate(-1595.91 -42.78)"/><path class="cls-16" d="M2193.43,93.77a33.51,33.51,0,1,1-33.5-33.51A33.5,33.5,0,0,1,2193.43,93.77Z" transform="translate(-1595.91 -42.78)"/><circle class="cls-17" cx="2159.93" cy="93.77" r="30.33" transform="translate(150.12 2172.96) rotate(-81.45)"/><path class="cls-18" d="M2158.8,106.79l-2.11,1.32-3.7-.53s-2.65-1.32-3.44-1.85a7.38,7.38,0,0,0-2.91-.53l-3.17.79-1.85-.79-3.7,2.64h-4.86a30.54,30.54,0,0,0,12,12.35A62.33,62.33,0,0,0,2155.1,119c6.35-1.59,12.43-6.61,12.43-7.67s-2.91-4.49-2.91-4.49Z" transform="translate(-1595.91 -42.78)"/><path class="cls-19" d="M2187.37,106.68l-1.61-.16c-13.74-1.32-20.08,4-33.83,7.67a32.08,32.08,0,0,1-14.25.18,30.31,30.31,0,0,0,49.69-7.69Z" transform="translate(-1595.91 -42.78)"/><path class="cls-11" d="M2145,71.23c-.53,0-1-.46-1.17-1.11-.2.65-.64,1.11-1.17,1.11h0a1.17,1.17,0,0,0,2.34,0Z" transform="translate(-1595.91 -42.78)"/><path class="cls-11" d="M2166.29,77.71a1.35,1.35,0,0,1-1.17-1.11,1.37,1.37,0,0,1-1.17,1.11h0a1.37,1.37,0,0,1,1.17,1.11,1.35,1.35,0,0,1,1.17-1.11Z" transform="translate(-1595.91 -42.78)"/><path class="cls-11" d="M2137.74,93a1.17,1.17,0,0,0-2.34,0h0a1.17,1.17,0,0,0,2.34,0Z" transform="translate(-1595.91 -42.78)"/><path class="cls-11" d="M2182.15,87.75a1.17,1.17,0,0,0-2.34,0h0a1.17,1.17,0,0,0,2.34,0Z" transform="translate(-1595.91 -42.78)"/><path class="cls-11" d="M2148.6,81.67a2,2,0,0,0-4,0h0a2,2,0,0,0,4,0Z" transform="translate(-1595.91 -42.78)"/><path class="cls-10" d="M2213.91,106.29V90c0-6.69-3.87-12.12-8.65-12.12h-.48c-4.77,0-8.64,5.43-8.64,12.12v16.3Z" transform="translate(-1595.91 -42.78)"/><path class="cls-11" d="M2217.08,106.29V90c0-6.69-3.87-12.12-8.64-12.12H2208c-4.78,0-8.65,5.43-8.65,12.12v16.3Z" transform="translate(-1595.91 -42.78)"/><path class="cls-12" d="M2213.6,106.29V89.24c0-4.07-2.35-7.37-5.26-7.37h-.29c-2.9,0-5.26,3.3-5.26,7.37v17.05Z" transform="translate(-1595.91 -42.78)"/><path class="cls-15" d="M2123.65,95.35s-1.19-12.68-13.29-15.26-27.75,5-30.13,11.89,1.39,18.44,9.32,20,32.71-11.3,32.71-11.3Z" transform="translate(-1595.91 -42.78)"/><path class="cls-9" d="M2123.65,95.35s-1.19-12.68-13.29-15.26a29.34,29.34,0,0,0-12.79.43c-3.25,2.09-5.62,4.53-6.44,6.9-2.38,6.94,1.39,18.44,9.32,20,3,.59,8.32-.85,13.83-2.88,4.63-2.12,8-3.86,8-3.86Z" transform="translate(-1595.91 -42.78)"/><path class="cls-11" d="M2102.1,81.87s15.07-5,22.21-5c0,0,7.66,1.85,9,5.82s.27,4.49.27,4.49L2116.38,98s-7.67,8.32-17.84,4a14.13,14.13,0,0,1-4.63-6.61C2092.32,91.12,2094.17,85,2102.1,81.87Z" transform="translate(-1595.91 -42.78)"/><path class="cls-20" d="M2105,88.75s12.16,1.19,10,6.6" transform="translate(-1595.91 -42.78)"/><path class="cls-11" d="M2126.28,81.4s9.72-2.2,16.67-2,6.21,4.88,5,6.07c-8.2,3-27.75,4.42-27.75,4.42a3.54,3.54,0,0,1-.91-3.46C2119.88,84.26,2121.44,82.2,2126.28,81.4Z" transform="translate(-1595.91 -42.78)"/><path class="cls-11" d="M2123.3,80s9.73-2.19,16.68-2,6.91,5.53,6.45,6.29l-29.18,4.2a3.52,3.52,0,0,1-.92-3.46C2116.9,82.87,2118.46,80.81,2123.3,80Z" transform="translate(-1595.91 -42.78)"/><path class="cls-11" d="M2119.54,78.62s9.72-2.19,16.67-2,6.91,5.54,6.45,6.29l-29.18,4.2a3.49,3.49,0,0,1-.91-3.45C2113.14,81.48,2114.7,79.42,2119.54,78.62Z" transform="translate(-1595.91 -42.78)"/><path class="cls-21" d="M2129.4,94.56c-.2-2-3.77-2.58-7.34-2.58h-7.34s-4.75,2.38-2,4.36,3.64,1.66,3.64,1.66l-4.1,3s.26-.14,6.81.26S2129.59,96.54,2129.4,94.56Z" transform="translate(-1595.91 -42.78)"/><path class="cls-11" d="M2114.53,78.3s9.51-3,16.45-3.37,7.34,5,6.94,5.75l-28.75,6.55a3.52,3.52,0,0,1-1.18-3.37C2108.38,81.67,2109.77,79.49,2114.53,78.3Z" transform="translate(-1595.91 -42.78)"/><path class="cls-20" d="M2107.26,83.59a18.88,18.88,0,0,0,7.66,0,11.22,11.22,0,0,0,5,1.19,11.13,11.13,0,0,0,5.68,1.72,31.93,31.93,0,0,0,4.23.66" transform="translate(-1595.91 -42.78)"/><path class="cls-20" d="M2114.92,83.59s18.24-3.3,19.83-4.1" transform="translate(-1595.91 -42.78)"/><path class="cls-20" d="M2120,84.78s15.86-2.11,18.76-3.57" transform="translate(-1595.91 -42.78)"/><path class="cls-20" d="M2125.63,86.5s13.84-1.81,17-3.62" transform="translate(-1595.91 -42.78)"/><path class="cls-21" d="M2218.26,229s-10.55,5.7-12.83,7.27-7.13,2.28-7.13,2.28-1.28,4,4.42,3.7a23.77,23.77,0,0,0,9.55-2.42Z" transform="translate(-1595.91 -42.78)"/><path class="cls-21" d="M2198.58,240.86c.52.81,1.67,1.49,4.14,1.36a23.77,23.77,0,0,0,9.55-2.42l3-5.46c-1.67.92-5.51,3-10.12,5.14A13.8,13.8,0,0,1,2198.58,240.86Z" transform="translate(-1595.91 -42.78)"/><path class="cls-11" d="M2209.28,237.81s-4,2-5,3.42-2.28,12.82-2.28,15.39,4.7,3,5.27-1a100.28,100.28,0,0,1,2.42-10.4Z" transform="translate(-1595.91 -42.78)"/><path class="cls-11" d="M2220,241.41s-4.26,2.42-5.25,3.85-2,12.4-2,15,4.7,3,5.27-1a100.72,100.72,0,0,1,2.42-10.41Z" transform="translate(-1595.91 -42.78)"/><path class="cls-11" d="M2225.38,240.52s-4,2-5,3.42-2.28,12.82-2.28,15.39,4.71,3,5.28-1a100.28,100.28,0,0,1,2.42-10.4Z" transform="translate(-1595.91 -42.78)"/><path class="cls-11" d="M2214.1,245.26l-5.94-2.58s-1.74,18.4-1.5,20.11,5,1.71,5.5-1.71,1.1-10.55,1.1-10.55Z" transform="translate(-1595.91 -42.78)"/><path class="cls-21" d="M2207,255.43c-1.16,2.56-4.55,2.18-4.91.19,0,.41,0,.75,0,1,0,2.22,3.51,2.82,4.82.36C2206.87,256.49,2206.91,256,2207,255.43Z" transform="translate(-1595.91 -42.78)"/><path class="cls-21" d="M2214.1,245.26l-.2-.09-.64,4s-.61,7.13-1.1,10.55-5.25,3.42-5.5,1.71v-.05a10.21,10.21,0,0,0,0,1.4c.25,1.71,5,1.71,5.5-1.71s1.1-10.55,1.1-10.55Z" transform="translate(-1595.91 -42.78)"/><path class="cls-21" d="M2223.39,257c-.55,3.81-4.85,3.58-5.24,1.32,0,.41,0,.76,0,1,0,2.57,4.71,3,5.28-1a100.28,100.28,0,0,1,2.42-10.4l-.06-1.12A92.81,92.81,0,0,0,2223.39,257Z" transform="translate(-1595.91 -42.78)"/><path class="cls-21" d="M2218.11,258c0-.31,0-.75.06-1.3-.08.42-.14.82-.2,1.2-.55,3.84-4.9,3.58-5.24,1.28,0,.43,0,.8,0,1.06,0,2.57,4.7,3,5.27-1,.05-.33.11-.67.17-1A1.81,1.81,0,0,1,2218.11,258Z" transform="translate(-1595.91 -42.78)"/><path class="cls-11" d="M2221.82,225.41s-15,10.51-17.26,15.07,15.53,12.55,20.37,11.41c7.73,1.38,7.75-7.7,8.29-11.09S2221.82,225.41,2221.82,225.41Z" transform="translate(-1595.91 -42.78)"/><path class="cls-22" d="M2209.27,242.17s-1.24.31-1.75,2.38-.88,12.16-.88,12.16" transform="translate(-1595.91 -42.78)"/><path class="cls-22" d="M2215.38,243.41a5.36,5.36,0,0,0-1.76,3.21c-.31,2.07-1,13.09-1,13.09" transform="translate(-1595.91 -42.78)"/><path class="cls-22" d="M2218.07,258.52s1.14-10.76,1.35-12.11a3.61,3.61,0,0,1,1.34-2.17" transform="translate(-1595.91 -42.78)"/><path class="cls-15" d="M2228.72,211.4l-10.31,10.31c-1.85,4-4.76,9.25,4,16.91s17.71,4.23,17.71,4.23l10-11.36Z" transform="translate(-1595.91 -42.78)"/><path class="cls-9" d="M2228.72,211.4l-6.82,6.81c-.35,1.37-1.25,7.43,7.64,14.48,8,6.36,13.19,5.67,15,5.11l5.58-6.31Z" transform="translate(-1595.91 -42.78)"/><path class="cls-11" d="M2226.74,128.26s51.54,30.93,53.13,53.93-38.73,54.05-38.73,54.05-12-.13-17.58-14.8c0,0,21-21.81,21.42-31.72s-21.81-16.26-21.81-16.26-11.9-6.74-12.69-21.41S2226.74,128.26,2226.74,128.26Z" transform="translate(-1595.91 -42.78)"/><rect class="cls-14" x="532.82" y="135.47" width="68.16" height="58.13"/><rect class="cls-9" x="529.11" y="135.47" width="68.16" height="58.13"/><rect class="cls-11" x="533.87" y="140.22" width="58.65" height="48.62"/><polygon class="cls-12" points="536.45 142.8 592.52 142.8 592.52 140.22 533.87 140.22 533.87 188.84 536.45 188.84 536.45 142.8"/><path class="cls-23" d="M2253.13,147A253.55,253.55,0,0,0,2232,131.59,13.08,13.08,0,1,0,2253.13,147Z" transform="translate(-1595.91 -42.78)"/><path class="cls-23" d="M2260.93,153.69c-1.53-1.42-3.11-2.8-4.69-4.16l-11.93,10.32,4,4.23Z" transform="translate(-1595.91 -42.78)"/><rect class="cls-15" x="578.98" y="121.44" width="28.81" height="7.52"/><rect class="cls-24" x="604.72" y="121.44" width="3.07" height="7.52"/><rect class="cls-9" x="580.46" y="122.46" width="22.89" height="5.46"/><polygon class="cls-24" points="581.45 123.45 603.36 123.45 603.36 122.46 580.47 122.46 580.47 127.92 581.45 127.92 581.45 123.45"/><path class="cls-10" d="M2127.4,168a3,3,0,1,1-3-3A3,3,0,0,1,2127.4,168Z" transform="translate(-1595.91 -42.78)"/><path class="cls-9" d="M2126.53,168a3,3,0,1,1-3-3A3,3,0,0,1,2126.53,168Z" transform="translate(-1595.91 -42.78)"/><path class="cls-11" d="M2125.62,168a2.1,2.1,0,1,1-2.1-2.1A2.1,2.1,0,0,1,2125.62,168Z" transform="translate(-1595.91 -42.78)"/><path class="cls-14" d="M2122.24,168a2.09,2.09,0,0,1,1.69-2.06,2.85,2.85,0,0,0-.41,0,2.1,2.1,0,0,0,0,4.19,1.9,1.9,0,0,0,.41,0A2.09,2.09,0,0,1,2122.24,168Z" transform="translate(-1595.91 -42.78)"/><path class="cls-10" d="M2135.8,168a3,3,0,1,1-3-3A3,3,0,0,1,2135.8,168Z" transform="translate(-1595.91 -42.78)"/><path class="cls-9" d="M2134.93,168a3,3,0,1,1-3-3A3,3,0,0,1,2134.93,168Z" transform="translate(-1595.91 -42.78)"/><path class="cls-11" d="M2134,168a2.1,2.1,0,1,1-2.1-2.1A2.1,2.1,0,0,1,2134,168Z" transform="translate(-1595.91 -42.78)"/><path class="cls-14" d="M2130.63,168a2.1,2.1,0,0,1,1.7-2.06,2.71,2.71,0,0,0-.41,0,2.1,2.1,0,0,0,0,4.19,1.84,1.84,0,0,0,.41,0A2.1,2.1,0,0,1,2130.63,168Z" transform="translate(-1595.91 -42.78)"/><path class="cls-10" d="M2144.2,168a3,3,0,1,1-3-3A3,3,0,0,1,2144.2,168Z" transform="translate(-1595.91 -42.78)"/><path class="cls-9" d="M2143.33,168a3,3,0,1,1-3-3A3,3,0,0,1,2143.33,168Z" transform="translate(-1595.91 -42.78)"/><path class="cls-11" d="M2142.42,168a2.1,2.1,0,1,1-2.1-2.1A2.1,2.1,0,0,1,2142.42,168Z" transform="translate(-1595.91 -42.78)"/><path class="cls-14" d="M2139,168a2.1,2.1,0,0,1,1.7-2.06,2.85,2.85,0,0,0-.41,0,2.1,2.1,0,0,0,0,4.19,1.9,1.9,0,0,0,.41,0A2.1,2.1,0,0,1,2139,168Z" transform="translate(-1595.91 -42.78)"/><path class="cls-9" d="M2129,113.86v16.91s5.08,14.54,32.83,14,41-13.74,41-13.74V113.86h16.39l6.08,2.91v11.49s-9,26.3-39.12,26.3h-49.43c-16.12,0-21.67-11.89-21.67-18.23V113.86Z" transform="translate(-1595.91 -42.78)"/><path class="cls-14" d="M2186.16,152.38h-49.43c-16.12,0-21.67-11.89-21.67-18.24v2.19c0,6.34,5.55,18.23,21.67,18.23h49.43c30.13,0,39.12-26.3,39.12-26.3v-2.18S2216.29,152.38,2186.16,152.38Z" transform="translate(-1595.91 -42.78)"/><path class="cls-8" d="M2127.21,132.63h-10.3V116.36h10.3Zm88.16-16.27h-10.31v16.27h10.31Z" transform="translate(-1595.91 -42.78)"/><polygon class="cls-13" points="521.93 74.51 531.31 74.51 531.31 73.58 521 73.58 521 89.86 521.93 89.86 521.93 74.51"/><polygon class="cls-13" points="610.08 74.51 619.47 74.51 619.47 73.58 609.15 73.58 609.15 89.86 610.08 89.86 610.08 74.51"/><path class="cls-14" d="M2219.07,139a40.56,40.56,0,0,0,6.21-10.74V116.77l-6.08-2.91h-.13Z" transform="translate(-1595.91 -42.78)"/><path class="cls-25" d="M2215.37,118.34a5.75,5.75,0,0,0-2.38-.52,5.82,5.82,0,0,0,0,11.63,5.74,5.74,0,0,0,2.38-.51Z" transform="translate(-1595.91 -42.78)"/><path class="cls-25" d="M2127.21,118.61a5.7,5.7,0,0,0-2.9-.79,5.82,5.82,0,1,0,2.9,10.85Z" transform="translate(-1595.91 -42.78)"/><g class="cls-26"><polygon class="cls-11" points="619.47 83.14 609.15 89.6 609.15 89.86 612.61 89.86 619.47 85.65 619.47 83.14"/><polygon class="cls-11" points="609.15 82.73 609.15 88.07 619.47 80.38 619.47 74.06 609.15 82.73"/><polygon class="cls-11" points="531.31 83.23 521 89.68 521 89.86 524.58 89.86 531.31 85.73 531.31 83.23"/><polygon class="cls-11" points="521 82.84 521 88.17 531.31 80.48 531.31 74.17 521 82.84"/></g><path class="cls-14" d="M2246.55,136.86h-.69a2.38,2.38,0,0,1,0-4.75h0c6.74.12,10.88-1.89,11.32-3.84.32-1.45-1.57-3.92-6.53-6.15-8.09-3.65-18.82-.37-24.5,1.91a2.38,2.38,0,1,1-1.77-4.41c7.79-3.13,19-6,28.22-1.84,9.68,4.36,9.67,9.52,9.22,11.53C2260.86,134,2255,136.86,2246.55,136.86Z" transform="translate(-1595.91 -42.78)"/><path class="cls-13" d="M2232.58,117c-.25,1.61-.48,3.33-.66,5.11l1.66-.44c.2-1.77.44-3.47.7-5.06C2233.71,116.7,2233.14,116.83,2232.58,117Z" transform="translate(-1595.91 -42.78)"/><path class="cls-13" d="M2237.27,116.07c-.26,1.55-.5,3.21-.7,4.94l1.66-.25c.2-1.72.45-3.36.71-4.89C2238.38,115.93,2237.82,116,2237.27,116.07Z" transform="translate(-1595.91 -42.78)"/><path class="cls-13" d="M2260.63,123.66a11.47,11.47,0,0,0-1.46-1.73,65.21,65.21,0,0,0-.22,11.71,8.91,8.91,0,0,0,1.5-1.43A64.06,64.06,0,0,1,2260.63,123.66Z" transform="translate(-1595.91 -42.78)"/><path class="cls-13" d="M2227.83,118.36c-.24,1.68-.44,3.45-.59,5.28.52-.2,1.08-.41,1.67-.61.16-1.81.38-3.57.64-5.22C2229,118,2228.39,118.17,2227.83,118.36Z" transform="translate(-1595.91 -42.78)"/><path class="cls-13" d="M2241.87,115.7c-.25,1.51-.5,3.12-.7,4.8.54,0,1.09,0,1.63,0,.2-1.67.45-3.27.7-4.76C2243,115.7,2242.42,115.69,2241.87,115.7Z" transform="translate(-1595.91 -42.78)"/><path class="cls-13" d="M2247.33,136.84a40.67,40.67,0,0,1-.5-4.74h-.93a2.39,2.39,0,0,0-.66.1,41.66,41.66,0,0,0,.48,4.64h.83Z" transform="translate(-1595.91 -42.78)"/><path class="cls-13" d="M2250.1,121.86c.21.08.43.15.64.25s.62.28.91.43c.17-1.71.39-3.38.63-4.94-.51-.22-1-.42-1.54-.59C2250.49,118.54,2250.27,120.17,2250.1,121.86Z" transform="translate(-1595.91 -42.78)"/><path class="cls-13" d="M2251.35,131.68q-.75.13-1.59.24a45.63,45.63,0,0,0,.47,4.73c.54-.06,1.06-.13,1.57-.22A43.18,43.18,0,0,1,2251.35,131.68Z" transform="translate(-1595.91 -42.78)"/><path class="cls-13" d="M2255.84,130a8,8,0,0,1-1.58.83,44.68,44.68,0,0,0,.38,4.93c.53-.17,1.05-.36,1.53-.56A46.82,46.82,0,0,1,2255.84,130Z" transform="translate(-1595.91 -42.78)"/><path class="cls-13" d="M2254.43,124.17a12.56,12.56,0,0,1,1.53,1.28c.12-1.93.31-3.82.54-5.63-.46-.3-1-.6-1.51-.9C2254.76,120.6,2254.57,122.36,2254.43,124.17Z" transform="translate(-1595.91 -42.78)"/><path class="cls-13" d="M2224.47,119.61a2.37,2.37,0,0,0-1.32,3.09,2.33,2.33,0,0,0,1.14,1.23c.12-1.52.29-3,.48-4.44Z" transform="translate(-1595.91 -42.78)"/><path class="cls-13" d="M2248,116.26c-.53-.11-1-.2-1.59-.27-.25,1.48-.48,3.06-.67,4.71.53.08,1.06.17,1.59.29C2247.47,119.33,2247.7,117.75,2248,116.26Z" transform="translate(-1595.91 -42.78)"/><rect class="cls-13" x="645.24" y="19.01" width="11.1" height="20.09"/><rect class="cls-1" x="649.2" y="20.59" width="5.55" height="16.92"/><path class="cls-12" d="M2243.52,61.78V81.87h8.73V61.78Zm7.14,18.51h-5.55V63.37h5.55Z" transform="translate(-1595.91 -42.78)"/><rect class="cls-13" x="645.24" y="45.97" width="11.1" height="12.16"/><rect class="cls-1" x="649.2" y="47.55" width="5.55" height="8.99"/><path class="cls-12" d="M2243.52,88.75V100.9h8.73V88.75Zm7.14,10.57h-5.55v-9h5.55Z" transform="translate(-1595.91 -42.78)"/><path class="cls-9" d="M2091.81,129.35a36.51,36.51,0,0,0-.25,13.16l4.7-.73a30.89,30.89,0,0,1,.7-13.37C2095.22,128.75,2093.5,129.07,2091.81,129.35Z" transform="translate(-1595.91 -42.78)"/><path class="cls-9" d="M2084.26,130.4a36.53,36.53,0,0,0-.1,12.37l4.7-.73a31.23,31.23,0,0,1,.41-12.28C2087.52,130,2085.83,130.25,2084.26,130.4Z" transform="translate(-1595.91 -42.78)"/><rect class="cls-24" x="541.35" y="162.14" width="29.61" height="22.47"/><rect class="cls-15" x="539.24" y="162.14" width="29.61" height="22.47"/><rect class="cls-23" x="575.06" y="150.25" width="14.93" height="34.36" rx="4.5"/><path class="cls-27" d="M2181.4,193h-5.94a4.51,4.51,0,0,0-1.23.17h6.15a4.5,4.5,0,0,1,4.49,4.5v25.37a4.51,4.51,0,0,1-3.26,4.32,4.51,4.51,0,0,0,4.29-4.49V197.52A4.5,4.5,0,0,0,2181.4,193Z" transform="translate(-1595.91 -42.78)"/><rect class="cls-21" x="539.77" y="146.41" width="5.02" height="5.02"/><rect class="cls-10" x="543.21" y="146.41" width="1.59" height="5.02"/><rect class="cls-21" x="546.25" y="146.41" width="5.02" height="5.02"/><rect class="cls-10" x="549.68" y="146.41" width="1.59" height="5.02"/><rect class="cls-21" x="552.72" y="146.41" width="5.02" height="5.02"/><rect class="cls-10" x="556.16" y="146.41" width="1.58" height="5.02"/><rect class="cls-21" x="559.2" y="146.41" width="5.02" height="5.02"/><rect class="cls-10" x="562.63" y="146.41" width="1.58" height="5.02"/><rect class="cls-21" x="565.67" y="146.41" width="5.02" height="5.02"/><rect class="cls-10" x="569.11" y="146.41" width="1.59" height="5.02"/><rect class="cls-21" x="539.77" y="153.42" width="5.02" height="5.02"/><rect class="cls-10" x="543.21" y="153.42" width="1.59" height="5.02"/><rect class="cls-21" x="546.25" y="153.42" width="5.02" height="5.02"/><rect class="cls-10" x="549.68" y="153.42" width="1.59" height="5.02"/><rect class="cls-21" x="552.72" y="153.42" width="5.02" height="5.02"/><rect class="cls-10" x="556.16" y="153.42" width="1.58" height="5.02"/><rect class="cls-21" x="559.2" y="153.42" width="5.02" height="5.02"/><rect class="cls-10" x="562.63" y="153.42" width="1.58" height="5.02"/><rect class="cls-21" x="565.67" y="153.42" width="5.02" height="5.02"/><rect class="cls-10" x="569.11" y="153.42" width="1.59" height="5.02"/><path class="cls-23" d="M2186.89,197.45a8.33,8.33,0,1,1-8.33-8.32A8.33,8.33,0,0,1,2186.89,197.45Z" transform="translate(-1595.91 -42.78)"/><path class="cls-9" d="M2186.09,197.45a8.33,8.33,0,1,1-8.32-8.32A8.32,8.32,0,0,1,2186.09,197.45Z" transform="translate(-1595.91 -42.78)"/><path class="cls-15" d="M2184.71,197.45a6.94,6.94,0,1,1-6.94-6.94A6.94,6.94,0,0,1,2184.71,197.45Z" transform="translate(-1595.91 -42.78)"/><path class="cls-24" d="M2177.77,203.6a6.15,6.15,0,1,1,6.14-6.15A6.15,6.15,0,0,1,2177.77,203.6Zm0-12.1a6,6,0,1,0,5.94,5.95A6,6,0,0,0,2177.77,191.5Z" transform="translate(-1595.91 -42.78)"/><path class="cls-24" d="M2177.77,202.83a5.38,5.38,0,1,1,5.38-5.38A5.38,5.38,0,0,1,2177.77,202.83Zm0-10.56a5.19,5.19,0,1,0,5.18,5.18A5.18,5.18,0,0,0,2177.77,192.27Z" transform="translate(-1595.91 -42.78)"/><path class="cls-24" d="M2177.77,202.07a4.62,4.62,0,1,1,4.61-4.62A4.62,4.62,0,0,1,2177.77,202.07Zm0-9a4.42,4.42,0,1,0,4.42,4.42A4.43,4.43,0,0,0,2177.77,193Z" transform="translate(-1595.91 -42.78)"/><path class="cls-24" d="M2177.77,201.31a3.86,3.86,0,1,1,3.85-3.86A3.85,3.85,0,0,1,2177.77,201.31Zm0-7.51a3.66,3.66,0,1,0,3.65,3.65A3.65,3.65,0,0,0,2177.77,193.8Z" transform="translate(-1595.91 -42.78)"/><path class="cls-24" d="M2177.77,200.54a3.09,3.09,0,1,1,3.09-3.09A3.09,3.09,0,0,1,2177.77,200.54Zm0-6a2.89,2.89,0,1,0,2.89,2.89A2.89,2.89,0,0,0,2177.77,194.56Z" transform="translate(-1595.91 -42.78)"/><path class="cls-24" d="M2177.77,199.78a2.33,2.33,0,1,1,2.32-2.33A2.33,2.33,0,0,1,2177.77,199.78Zm0-4.45a2.13,2.13,0,1,0,2.13,2.12A2.13,2.13,0,0,0,2177.77,195.33Z" transform="translate(-1595.91 -42.78)"/><path class="cls-24" d="M2177.77,199a1.56,1.56,0,1,1,1.56-1.56A1.56,1.56,0,0,1,2177.77,199Zm0-2.92a1.37,1.37,0,1,0,1.36,1.36A1.36,1.36,0,0,0,2177.77,196.09Z" transform="translate(-1595.91 -42.78)"/><path class="cls-24" d="M2178.5,197.45a.73.73,0,0,1-1.46,0,.73.73,0,0,1,1.46,0Z" transform="translate(-1595.91 -42.78)"/><path class="cls-24" d="M2171.49,197.72a6.94,6.94,0,0,1,6.94-6.94,6.86,6.86,0,0,1,2.23.37,6.93,6.93,0,1,0-5.12,12.87A6.94,6.94,0,0,1,2171.49,197.72Z" transform="translate(-1595.91 -42.78)"/><rect class="cls-24" x="577.48" y="165.18" width="2.38" height="2.38"/><rect class="cls-11" x="577.14" y="165.18" width="2.38" height="2.38"/><rect class="cls-24" x="581" y="165.18" width="2.38" height="2.38"/><rect class="cls-11" x="580.67" y="165.18" width="2.38" height="2.38"/><rect class="cls-24" x="584.53" y="165.18" width="2.38" height="2.38"/><rect class="cls-11" x="584.19" y="165.18" width="2.38" height="2.38"/><rect class="cls-24" x="577.48" y="168.75" width="2.38" height="2.38"/><rect class="cls-11" x="577.14" y="168.75" width="2.38" height="2.38"/><rect class="cls-24" x="581" y="168.75" width="2.38" height="2.38"/><rect class="cls-11" x="580.67" y="168.75" width="2.38" height="2.38"/><rect class="cls-24" x="584.53" y="168.75" width="2.38" height="2.38"/><rect class="cls-11" x="584.19" y="168.75" width="2.38" height="2.38"/><rect class="cls-24" x="577.48" y="172.32" width="2.38" height="2.38"/><rect class="cls-11" x="577.14" y="172.32" width="2.38" height="2.38"/><rect class="cls-24" x="581" y="172.32" width="2.38" height="2.38"/><rect class="cls-11" x="580.67" y="172.32" width="2.38" height="2.38"/><rect class="cls-24" x="584.53" y="172.32" width="2.38" height="2.38"/><rect class="cls-11" x="584.19" y="172.32" width="2.38" height="2.38"/><rect class="cls-24" x="577.48" y="175.89" width="2.38" height="2.38"/><rect class="cls-11" x="577.14" y="175.89" width="2.38" height="2.38"/><rect class="cls-24" x="581" y="175.89" width="2.38" height="2.38"/><rect class="cls-11" x="580.67" y="175.89" width="2.38" height="2.38"/><rect class="cls-24" x="584.53" y="175.89" width="2.38" height="2.38"/><rect class="cls-11" x="584.19" y="175.89" width="2.38" height="2.38"/><path class="cls-12" d="M2279.87,182.19a23.35,23.35,0,0,0-2.72-8.88c-3.51,23.95-30.17,49.08-43.73,60.48a17.33,17.33,0,0,0,7.72,2.45S2281.45,205.18,2279.87,182.19Z" transform="translate(-1595.91 -42.78)"/><path class="cls-12" d="M2171.09,400.92l-.79-23.79h38.59l-3.17,11.24s9.52.66,7.67,11.76Z" transform="translate(-1595.91 -42.78)"/><path class="cls-9" d="M2172,377.13v23.78l3.7-.07v-4c0-4.76,4.1-8.33,16.39-8.33h14.47a6.69,6.69,0,0,0-.86-.13l3.17-11.24Z" transform="translate(-1595.91 -42.78)"/><rect class="cls-10" x="573.87" y="356.03" width="44.41" height="6.61"/><rect class="cls-10" x="573.87" y="356.03" width="3.44" height="8.19"/><rect class="cls-10" x="580.7" y="356.03" width="3.44" height="8.19"/><rect class="cls-10" x="587.52" y="356.03" width="3.44" height="8.19"/><rect class="cls-10" x="594.35" y="356.03" width="3.44" height="8.19"/><rect class="cls-10" x="601.18" y="356.03" width="3.44" height="8.19"/><rect class="cls-10" x="608.01" y="356.03" width="3.44" height="8.19"/><rect class="cls-10" x="614.84" y="356.03" width="3.44" height="8.19"/><rect class="cls-15" x="573.87" y="356.03" width="44.41" height="1.46"/><path class="cls-12" d="M2162.11,400.92l.79-23.79h-38.59l3.17,11.24c-11,0-29.47.66-27.62,11.76Z" transform="translate(-1595.91 -42.78)"/><path class="cls-9" d="M2162.9,377.13h-27.23l2.65,10.58-11.38-1.24.54,1.9h-.19c4.28,1.44,15.63,5.79,19.18,12.35l15.64.2Z" transform="translate(-1595.91 -42.78)"/><rect class="cls-10" x="503.16" y="356.03" width="3.44" height="8.19"/><rect class="cls-10" x="509.93" y="356.03" width="3.44" height="8.19"/><rect class="cls-10" x="516.7" y="356.03" width="3.44" height="8.19"/><rect class="cls-10" x="523.47" y="356.03" width="3.44" height="8.19"/><rect class="cls-10" x="530.24" y="356.03" width="3.44" height="8.19"/><rect class="cls-10" x="537.01" y="356.03" width="3.44" height="8.19"/><rect class="cls-10" x="543.78" y="356.03" width="3.44" height="8.19"/><rect class="cls-10" x="550.55" y="356.03" width="3.44" height="8.19"/><rect class="cls-10" x="557.32" y="356.03" width="3.44" height="8.19"/><rect class="cls-10" x="564.09" y="356.03" width="3.44" height="8.19"/><rect class="cls-10" x="503.16" y="356.03" width="64.37" height="6.61"/><rect class="cls-15" x="503.16" y="356.03" width="64.37" height="1.46"/><path class="cls-9" d="M2106.86,307.61s4.5,35.43,9.25,41,36.48,2.37,36.48,2.37V307.61Z" transform="translate(-1595.91 -42.78)"/><path class="cls-10" d="M2148.63,307.61V351s-7.73.78-16.13.89c9.75.15,20.09-.89,20.09-.89V307.61Z" transform="translate(-1595.91 -42.78)"/><path class="cls-8" d="M2143.87,315.51a2.28,2.28,0,0,1-2.28,2.28h-33.7a2.28,2.28,0,0,1-2.28-2.28h0a2.28,2.28,0,0,1,2.28-2.28h33.7a2.28,2.28,0,0,1,2.28,2.28Z" transform="translate(-1595.91 -42.78)"/><path class="cls-10" d="M2141.59,313.23h-3a2.28,2.28,0,1,1,0,4.56h3a2.28,2.28,0,1,0,0-4.56Z" transform="translate(-1595.91 -42.78)"/><path class="cls-8" d="M2144.26,324.13a2.28,2.28,0,0,1-2.27,2.28h-33.71a2.28,2.28,0,0,1-2.28-2.28h0a2.29,2.29,0,0,1,2.28-2.28H2142a2.28,2.28,0,0,1,2.27,2.28Z" transform="translate(-1595.91 -42.78)"/><path class="cls-10" d="M2142,321.85h-3a2.28,2.28,0,1,1,0,4.56h3a2.28,2.28,0,0,0,0-4.56Z" transform="translate(-1595.91 -42.78)"/><path class="cls-8" d="M2144.66,332.76a2.28,2.28,0,0,1-2.28,2.28h-33.7a2.28,2.28,0,0,1-2.28-2.28h0a2.28,2.28,0,0,1,2.28-2.28h33.7a2.28,2.28,0,0,1,2.28,2.28Z" transform="translate(-1595.91 -42.78)"/><path class="cls-10" d="M2142.38,330.48h-3a2.28,2.28,0,1,1,0,4.56h3a2.28,2.28,0,1,0,0-4.56Z" transform="translate(-1595.91 -42.78)"/><path class="cls-8" d="M2145.06,341.38a2.28,2.28,0,0,1-2.28,2.28h-33.7a2.29,2.29,0,0,1-2.29-2.28h0a2.29,2.29,0,0,1,2.29-2.28h33.7a2.28,2.28,0,0,1,2.28,2.28Z" transform="translate(-1595.91 -42.78)"/><path class="cls-10" d="M2142.78,339.1h-3a2.28,2.28,0,1,1,0,4.56h3a2.28,2.28,0,1,0,0-4.56Z" transform="translate(-1595.91 -42.78)"/><path class="cls-9" d="M2226.87,307.61s-4.49,35.43-9.25,41-36.48,2.37-36.48,2.37V307.61Z" transform="translate(-1595.91 -42.78)"/><path class="cls-10" d="M2185.1,307.61V351s7.73.78,16.14.89c-9.76.15-20.1-.89-20.1-.89V307.61Z" transform="translate(-1595.91 -42.78)"/><path class="cls-8" d="M2189.86,315.51a2.28,2.28,0,0,0,2.28,2.28h33.7a2.29,2.29,0,0,0,2.29-2.28h0a2.29,2.29,0,0,0-2.29-2.28h-33.7a2.28,2.28,0,0,0-2.28,2.28Z" transform="translate(-1595.91 -42.78)"/><path class="cls-10" d="M2192.14,313.23h3a2.28,2.28,0,1,0,0,4.56h-3a2.28,2.28,0,1,1,0-4.56Z" transform="translate(-1595.91 -42.78)"/><path class="cls-8" d="M2189.47,324.13a2.28,2.28,0,0,0,2.28,2.28h33.7a2.28,2.28,0,0,0,2.28-2.28h0a2.29,2.29,0,0,0-2.28-2.28h-33.7a2.29,2.29,0,0,0-2.28,2.28Z" transform="translate(-1595.91 -42.78)"/><path class="cls-10" d="M2191.75,321.85h3a2.28,2.28,0,1,0,0,4.56h-3a2.28,2.28,0,0,1,0-4.56Z" transform="translate(-1595.91 -42.78)"/><path class="cls-8" d="M2189.07,332.76a2.28,2.28,0,0,0,2.28,2.28h33.7a2.28,2.28,0,0,0,2.28-2.28h0a2.28,2.28,0,0,0-2.28-2.28h-33.7a2.28,2.28,0,0,0-2.28,2.28Z" transform="translate(-1595.91 -42.78)"/><path class="cls-10" d="M2191.35,330.48h3a2.28,2.28,0,0,0,0,4.56h-3a2.28,2.28,0,1,1,0-4.56Z" transform="translate(-1595.91 -42.78)"/><path class="cls-8" d="M2188.67,341.38a2.28,2.28,0,0,0,2.28,2.28h33.71a2.29,2.29,0,0,0,2.28-2.28h0a2.29,2.29,0,0,0-2.28-2.28H2191a2.28,2.28,0,0,0-2.28,2.28Z" transform="translate(-1595.91 -42.78)"/><path class="cls-10" d="M2191,339.1h3a2.28,2.28,0,1,0,0,4.56h-3a2.28,2.28,0,1,1,0-4.56Z" transform="translate(-1595.91 -42.78)"/><path class="cls-28" d="M2205.13,116.36,1763.92,407c0,6.06,52.72,11,117.76,11s117.75-4.91,117.75-11l216-274.47V116.36Z" transform="translate(-1595.91 -42.78)"/><path class="cls-28" d="M2116.91,116.36,1675.7,407c0,6.06,52.72,11,117.75,11s117.76-4.91,117.76-11l216-274.47V116.36Z" transform="translate(-1595.91 -42.78)"/><polygon class="cls-7" points="732.43 340.27 740.69 340.74 740.43 340.6 735.76 330.6 725.76 314.6 709.09 307.93 708.33 307.46 705.1 315.93 723.43 320.6 732.43 340.27"/><polygon class="cls-7" points="631.76 333.6 654.1 339.93 653.43 324.6 653.5 324.41 652.43 326.6 637.09 327.93 631.13 333.3 631.76 333.6"/><polygon class="cls-7" points="670.1 306.27 693.1 306.27 695.42 299.47 695.09 299.27 666.88 299.27 670.1 306.27"/><path class="cls-11" d="M1730.17,276.89a1.17,1.17,0,0,0-2.34,0h0a1.17,1.17,0,0,0,2.34,0Z" transform="translate(-1595.91 -42.78)"/><path class="cls-11" d="M1639.34,148a1.17,1.17,0,0,0-2.34,0h0a1.17,1.17,0,0,0,2.34,0Z" transform="translate(-1595.91 -42.78)"/><path class="cls-11" d="M1765.09,142.77a1.37,1.37,0,0,1-1.17-1.11,1.35,1.35,0,0,1-1.17,1.11h0a1.35,1.35,0,0,1,1.17,1.11,1.37,1.37,0,0,1,1.17-1.11Z" transform="translate(-1595.91 -42.78)"/><path class="cls-11" d="M1807.53,64.39a1.35,1.35,0,0,1-1.17-1.11,1.37,1.37,0,0,1-1.17,1.11h0a1.37,1.37,0,0,1,1.17,1.11,1.35,1.35,0,0,1,1.17-1.11Z" transform="translate(-1595.91 -42.78)"/><path class="cls-11" d="M1977.34,97a1.17,1.17,0,0,0-2.34,0h0a1.17,1.17,0,0,0,2.34,0Z" transform="translate(-1595.91 -42.78)"/><path class="cls-11" d="M1862.34,199a1.17,1.17,0,0,0-2.34,0h0a1.17,1.17,0,0,0,2.34,0Z" transform="translate(-1595.91 -42.78)"/><path class="cls-11" d="M2083.34,353a1.17,1.17,0,0,0-2.34,0h0a1.17,1.17,0,0,0,2.34,0Z" transform="translate(-1595.91 -42.78)"/><path class="cls-11" d="M2278.34,294a1.17,1.17,0,0,0-2.34,0h0a1.17,1.17,0,0,0,2.34,0Z" transform="translate(-1595.91 -42.78)"/><path class="cls-11" d="M2311.37,59.1A1.35,1.35,0,0,1,2310.2,58,1.37,1.37,0,0,1,2309,59.1h0a1.37,1.37,0,0,1,1.17,1.11,1.35,1.35,0,0,1,1.17-1.11Z" transform="translate(-1595.91 -42.78)"/><path class="cls-11" d="M1810.72,343.7a1.37,1.37,0,0,1-1.17-1.11,1.35,1.35,0,0,1-1.17,1.11h0a1.35,1.35,0,0,1,1.17,1.11,1.37,1.37,0,0,1,1.17-1.11Z" transform="translate(-1595.91 -42.78)"/><path class="cls-11" d="M1962.21,309.2a1.37,1.37,0,0,1-1.17-1.11,1.35,1.35,0,0,1-1.16,1.11h0a1.35,1.35,0,0,1,1.16,1.11,1.37,1.37,0,0,1,1.17-1.11Z" transform="translate(-1595.91 -42.78)"/><path class="cls-11" d="M1728.22,330.2a1.35,1.35,0,0,1-1.16-1.11,1.37,1.37,0,0,1-1.17,1.11h0a1.37,1.37,0,0,1,1.17,1.11,1.35,1.35,0,0,1,1.16-1.11Z" transform="translate(-1595.91 -42.78)"/><path class="cls-11" d="M1710.23,201.2a1.34,1.34,0,0,1-1.17-1.11,1.36,1.36,0,0,1-1.17,1.11h0a1.38,1.38,0,0,1,1.17,1.12,1.36,1.36,0,0,1,1.17-1.12Z" transform="translate(-1595.91 -42.78)"/><path class="cls-11" d="M1632.23,198.2a1.17,1.17,0,0,0-2.34,0h0a1.17,1.17,0,0,0,2.34,0Z" transform="translate(-1595.91 -42.78)"/><path class="cls-11" d="M1837,99.22a1.37,1.37,0,0,1-1.17-1.11,1.35,1.35,0,0,1-1.16,1.11h0a1.35,1.35,0,0,1,1.16,1.11,1.37,1.37,0,0,1,1.17-1.11Z" transform="translate(-1595.91 -42.78)"/><path class="cls-11" d="M1676.17,107.58a1.17,1.17,0,0,0-2.34,0h0a1.17,1.17,0,0,0,2.34,0Z" transform="translate(-1595.91 -42.78)"/><path class="cls-11" d="M1813.06,154.56a1.17,1.17,0,0,0-2.34,0h0a1.17,1.17,0,0,0,2.34,0Z" transform="translate(-1595.91 -42.78)"/><path class="cls-11" d="M1748.47,98.11a1.17,1.17,0,0,0-2.34,0h0a1.17,1.17,0,0,0,2.34,0Z" transform="translate(-1595.91 -42.78)"/><path class="cls-11" d="M1873.72,132.1a1.17,1.17,0,0,0-2.34,0h0a1.17,1.17,0,0,0,2.34,0Z" transform="translate(-1595.91 -42.78)"/><path class="cls-11" d="M1925.05,203.09a1.35,1.35,0,0,1-1.17-1.11,1.37,1.37,0,0,1-1.17,1.11h0a1.37,1.37,0,0,1,1.17,1.11,1.35,1.35,0,0,1,1.17-1.11Z" transform="translate(-1595.91 -42.78)"/><path class="cls-11" d="M1976.88,60.6a1.37,1.37,0,0,1-1.17-1.11,1.35,1.35,0,0,1-1.17,1.11h0a1.35,1.35,0,0,1,1.17,1.11,1.37,1.37,0,0,1,1.17-1.11Z" transform="translate(-1595.91 -42.78)"/><path class="cls-11" d="M2053.38,77.1a1.17,1.17,0,0,0-2.34,0h0a1.17,1.17,0,0,0,2.34,0Z" transform="translate(-1595.91 -42.78)"/><path class="cls-11" d="M2349.53,189.59a1.35,1.35,0,0,1-1.17-1.11,1.37,1.37,0,0,1-1.17,1.11h0a1.38,1.38,0,0,1,1.17,1.12,1.36,1.36,0,0,1,1.17-1.12Z" transform="translate(-1595.91 -42.78)"/><path class="cls-11" d="M2343.53,231.59a1.35,1.35,0,0,1-1.17-1.11,1.37,1.37,0,0,1-1.17,1.11h0a1.37,1.37,0,0,1,1.17,1.11,1.35,1.35,0,0,1,1.17-1.11Z" transform="translate(-1595.91 -42.78)"/><path class="cls-11" d="M2358.53,345.59a1.36,1.36,0,0,1-1.17-1.12,1.38,1.38,0,0,1-1.17,1.12h0a1.36,1.36,0,0,1,1.17,1.11,1.34,1.34,0,0,1,1.17-1.11Z" transform="translate(-1595.91 -42.78)"/><path class="cls-11" d="M2358,106a1.17,1.17,0,0,0-2.34,0h0a1.17,1.17,0,0,0,2.34,0Z" transform="translate(-1595.91 -42.78)"/><path class="cls-11" d="M2292,229a1.17,1.17,0,0,0-2.34,0h0a1.17,1.17,0,0,0,2.34,0Z" transform="translate(-1595.91 -42.78)"/><path class="cls-11" d="M2346,272a1.17,1.17,0,0,0-2.34,0h0a1.17,1.17,0,0,0,2.34,0Z" transform="translate(-1595.91 -42.78)"/><path class="cls-11" d="M1772.93,256.68a1.35,1.35,0,0,1-1.16-1.11,1.37,1.37,0,0,1-1.17,1.11h0a1.39,1.39,0,0,1,1.17,1.11,1.36,1.36,0,0,1,1.16-1.11Z" transform="translate(-1595.91 -42.78)"/><path class="cls-11" d="M1638.17,334.89a1.17,1.17,0,0,0-2.34,0h0a1.17,1.17,0,0,0,2.34,0Z" transform="translate(-1595.91 -42.78)"/><path class="cls-11" d="M1660,70.12a1.17,1.17,0,0,0-2.34,0h0a1.17,1.17,0,0,0,2.34,0Z" transform="translate(-1595.91 -42.78)"/><path class="cls-11" d="M1709.06,139.84a1.35,1.35,0,0,1-1.17-1.11,1.37,1.37,0,0,1-1.17,1.11h0a1.38,1.38,0,0,1,1.17,1.12,1.36,1.36,0,0,1,1.17-1.12Z" transform="translate(-1595.91 -42.78)"/><path class="cls-11" d="M2038.17,43.89a1.17,1.17,0,0,0-2.34,0h0a1.17,1.17,0,0,0,2.34,0Z" transform="translate(-1595.91 -42.78)"/><path class="cls-11" d="M1987.17,167.89a1.17,1.17,0,0,0-2.34,0h0a1.17,1.17,0,0,0,2.34,0Z" transform="translate(-1595.91 -42.78)"/><path class="cls-11" d="M1661.17,237.89a1.17,1.17,0,0,0-2.34,0h0a1.17,1.17,0,0,0,2.34,0Z" transform="translate(-1595.91 -42.78)"/><path class="cls-11" d="M2026.17,297.89a1.17,1.17,0,0,0-2.34,0h0a1.17,1.17,0,0,0,2.34,0Z" transform="translate(-1595.91 -42.78)"/><path class="cls-11" d="M1861.17,318.89a1.17,1.17,0,0,0-2.34,0h0a1.17,1.17,0,0,0,2.34,0Z" transform="translate(-1595.91 -42.78)"/><path class="cls-11" d="M1948.17,251.89a1.17,1.17,0,0,0-2.34,0h0a1.17,1.17,0,0,0,2.34,0Z" transform="translate(-1595.91 -42.78)"/><path class="cls-11" d="M1833.5,253.39c-2.91,0-5.42-2.56-6.5-6.18-1.08,3.62-3.58,6.17-6.5,6.18h0c2.92,0,5.42,2.55,6.5,6.18,1.08-3.63,3.59-6.17,6.5-6.18Z" transform="translate(-1595.91 -42.78)"/><path class="cls-11" d="M1770,186.2c-2.92,0-5.43-2.55-6.5-6.18-1.08,3.63-3.59,6.17-6.5,6.18h0c2.91,0,5.42,2.56,6.5,6.19,1.07-3.63,3.58-6.17,6.5-6.19Z" transform="translate(-1595.91 -42.78)"/><path class="cls-11" d="M1713.22,64.39c-2.91,0-5.42-2.56-6.5-6.18-1.08,3.62-3.58,6.17-6.5,6.18h0c2.92,0,5.42,2.55,6.5,6.18,1.08-3.63,3.59-6.17,6.5-6.18Z" transform="translate(-1595.91 -42.78)"/><path class="cls-11" d="M1912.5,64.39c-2.91,0-5.42-2.56-6.5-6.18-1.08,3.62-3.58,6.17-6.5,6.18h0c2.92,0,5.42,2.55,6.5,6.18,1.08-3.63,3.59-6.17,6.5-6.18Z" transform="translate(-1595.91 -42.78)"/><path class="cls-11" d="M1929.21,141c-2.91,0-5.42-2.56-6.5-6.19-1.08,3.63-3.58,6.17-6.5,6.19h0c2.92,0,5.42,2.55,6.5,6.18,1.08-3.63,3.59-6.17,6.5-6.18Z" transform="translate(-1595.91 -42.78)"/><path class="cls-11" d="M2315.5,140.39c-2.91,0-5.42-2.56-6.5-6.18-1.08,3.62-3.58,6.17-6.5,6.18h0c2.92,0,5.42,2.55,6.5,6.18,1.08-3.63,3.59-6.17,6.5-6.18Z" transform="translate(-1595.91 -42.78)"/></svg>