<svg xmlns="http://www.w3.org/2000/svg" xmlns:xlink="http://www.w3.org/1999/xlink" width="72" height="70" viewBox="0 0 72 70">
  <defs>
    <filter id="Ellipse_126" x="1.5" y="0" width="70" height="70" filterUnits="userSpaceOnUse">
      <feOffset input="SourceAlpha"/>
      <feGaussianBlur stdDeviation="5" result="blur"/>
      <feFlood flood-opacity="0.161"/>
      <feComposite operator="in" in2="blur"/>
      <feComposite in="SourceGraphic"/>
    </filter>
  </defs>
  <g id="Group_19713" data-name="Group 19713" transform="translate(-50.5 -20)">
    <g id="Group_19711" data-name="Group 19711">
      <g transform="matrix(1, 0, 0, 1, 50.5, 20)" filter="url(#Ellipse_126)">
        <circle id="Ellipse_126-2" data-name="Ellipse 126" cx="20" cy="20" r="20" transform="translate(16.5 15)" fill="#fff"/>
      </g>
      <line id="Line_411" data-name="Line 411" x2="10" transform="translate(109.5 50.5)" fill="none" stroke="#35af68" stroke-width="1"/>
      <line id="Line_413" data-name="Line 413" x1="10" transform="translate(57 58.5)" fill="none" stroke="#35af68" stroke-width="1"/>
      <line id="Line_412" data-name="Line 412" x2="6" transform="translate(116.5 46.5)" fill="none" stroke="#35af68" stroke-width="1"/>
      <line id="Line_414" data-name="Line 414" x1="6" transform="translate(50.5 62.5)" fill="none" stroke="#35af68" stroke-width="1"/>
      <circle id="Ellipse_127" data-name="Ellipse 127" cx="3.5" cy="3.5" r="3.5" transform="translate(58 38)" fill="#35af68" opacity="0.16"/>
      <circle id="Ellipse_128" data-name="Ellipse 128" cx="3.5" cy="3.5" r="3.5" transform="translate(91 22)" fill="#35af68" opacity="0.38"/>
      <circle id="Ellipse_129" data-name="Ellipse 129" cx="3.5" cy="3.5" r="3.5" transform="translate(105 71)" fill="#def2e7"/>
      <g id="check-_8_" transform="translate(74.255 481.206)">
        <path id="Path_5271" data-name="Path 5271" d="M23.841-434.676a2.2,2.2,0,0,0-.32.123c-.093.049-3.408,3.324-7.361,7.273l-7.194,7.189-3.4-3.4c-2.395-2.385-3.472-3.432-3.629-3.511a1.331,1.331,0,0,0-1.062-.01,1.5,1.5,0,0,0-.634.723,1.241,1.241,0,0,0,.064.944c.148.285,7.952,8.06,8.183,8.158a1.693,1.693,0,0,0,.964,0c.231-.1,15.6-15.441,15.761-15.736a1.377,1.377,0,0,0,0-1.082A1.281,1.281,0,0,0,23.841-434.676Z" transform="translate(0 0)" fill="#35af68"/>
      </g>
    </g>
  </g>
</svg>
