<svg width="24" height="24" viewBox="0 0 24 24" fill="none" xmlns="http://www.w3.org/2000/svg">
<rect y="16" width="24" height="2" fill="white"/>
<rect y="18" width="24" height="2" fill="#D80027"/>
<rect y="12" width="24" height="2" fill="white"/>
<rect y="14" width="24" height="2" fill="#D80027"/>
<rect y="8" width="24" height="2" fill="white"/>
<rect y="10" width="24" height="2" fill="#D80027"/>
<rect y="4" width="24" height="2" fill="white"/>
<rect y="6" width="24" height="2" fill="#D80027"/>
<rect width="11.8" height="8.1" transform="translate(0 4)" fill="#2E52B2"/>
<path d="M1.85 5L2.07083 5.54605L2.6584 5.58734L2.20731 5.9661L2.34962 6.53766L1.85 6.2257L1.35038 6.53766L1.49269 5.9661L1.0416 5.58734L1.62917 5.54605L1.85 5Z" fill="white"/>
<path d="M4.5502 5L4.77103 5.54605L5.35859 5.58734L4.90751 5.9661L5.04981 6.53766L4.5502 6.2257L4.05058 6.53766L4.19288 5.9661L3.7418 5.58734L4.32936 5.54605L4.5502 5Z" fill="white"/>
<path d="M7.25039 5L7.47122 5.54605L8.05879 5.58734L7.6077 5.9661L7.75001 6.53766L7.25039 6.2257L6.75077 6.53766L6.89308 5.9661L6.44199 5.58734L7.02956 5.54605L7.25039 5Z" fill="white"/>
<path d="M9.94961 5L10.1704 5.54605L10.758 5.58734L10.3069 5.9661L10.4492 6.53766L9.94961 6.2257L9.44999 6.53766L9.5923 5.9661L9.14121 5.58734L9.72878 5.54605L9.94961 5Z" fill="white"/>
<path d="M1.85 7.2002L2.07083 7.74625L2.6584 7.78753L2.20731 8.16629L2.34962 8.73786L1.85 8.4259L1.35038 8.73786L1.49269 8.16629L1.0416 7.78753L1.62917 7.74625L1.85 7.2002Z" fill="white"/>
<path d="M4.5502 7.2002L4.77103 7.74625L5.35859 7.78753L4.90751 8.16629L5.04981 8.73786L4.5502 8.4259L4.05058 8.73786L4.19288 8.16629L3.7418 7.78753L4.32936 7.74625L4.5502 7.2002Z" fill="white"/>
<path d="M7.25039 7.2002L7.47122 7.74625L8.05879 7.78753L7.6077 8.16629L7.75001 8.73786L7.25039 8.4259L6.75077 8.73786L6.89308 8.16629L6.44199 7.78753L7.02956 7.74625L7.25039 7.2002Z" fill="white"/>
<path d="M9.94961 7.2002L10.1704 7.74625L10.758 7.78753L10.3069 8.16629L10.4492 8.73786L9.94961 8.4259L9.44999 8.73786L9.5923 8.16629L9.14121 7.78753L9.72878 7.74625L9.94961 7.2002Z" fill="white"/>
<path d="M1.85 9.3999L2.07083 9.94595L2.6584 9.98724L2.20731 10.366L2.34962 10.9376L1.85 10.6256L1.35038 10.9376L1.49269 10.366L1.0416 9.98724L1.62917 9.94595L1.85 9.3999Z" fill="white"/>
<path d="M4.5502 9.3999L4.77103 9.94595L5.35859 9.98724L4.90751 10.366L5.04981 10.9376L4.5502 10.6256L4.05058 10.9376L4.19288 10.366L3.7418 9.98724L4.32936 9.94595L4.5502 9.3999Z" fill="white"/>
<path d="M7.25039 9.3999L7.47122 9.94595L8.05879 9.98724L7.6077 10.366L7.75001 10.9376L7.25039 10.6256L6.75077 10.9376L6.89308 10.366L6.44199 9.98724L7.02956 9.94595L7.25039 9.3999Z" fill="white"/>
<path d="M9.94961 9.3999L10.1704 9.94595L10.758 9.98724L10.3069 10.366L10.4492 10.9376L9.94961 10.6256L9.44999 10.9376L9.5923 10.366L9.14121 9.98724L9.72878 9.94595L9.94961 9.3999Z" fill="white"/>
</svg>
