<svg xmlns="http://www.w3.org/2000/svg" xmlns:xlink="http://www.w3.org/1999/xlink" width="1132" height="779" viewBox="0 0 1132 779">
  <defs>
    <clipPath id="clip-Artboard_1">
      <rect width="1132" height="779"/>
    </clipPath>
  </defs>
  <g id="Artboard_1" data-name="Artboard – 1" clip-path="url(#clip-Artboard_1)">
    <g id="Layer_1" data-name="Layer 1" transform="translate(-2275.19 -301.991)">
      <g id="_Clip_Group_" data-name="&lt;Clip Group&gt;" transform="translate(2277.566 301.991)">
        <path id="_Path_" data-name="&lt;Path&gt;" d="M2363.165,1344.755c-101.037-130.043-196.592-265.081-89.658-328.313,31.229-12.238,44.892-35.966,33.347-76.261C2217.07,635.013,2524.459,417.72,2693.27,713.938c47.508,85.752,116.112,94.785,200.081,48,373.418-184.616,589.736,114.35,388.119,383.927-17.151,28.015-25.083,56.821-3.447,88.249,36.088,48.62-.789,94.16-53.862,110.645Z" transform="translate(-2226.566 -565.755)" fill="#ffefef"/>
        <path id="_Compound_Path_" data-name="&lt;Compound Path&gt;" d="M2633.261,1031.9a68.8,68.8,0,0,1,14.842,4.448l5.7-9.895,17.627,10.144-6.028,10.477a68.247,68.247,0,0,1,10.6,11.308l9.936-5.737,10.186,17.627-10.435,6.028a69.443,69.443,0,0,1,3.534,15.091h11.474v20.329h-12.1a68.116,68.116,0,0,1-4.448,14.842l9.895,5.737-10.186,17.627-10.435-6.028a68.269,68.269,0,0,1-11.308,10.6l5.737,9.936-17.627,10.185-6.028-10.477a67.7,67.7,0,0,1-15.091,3.575v11.433h-20.371V1167.1a71.23,71.23,0,0,1-14.842-4.448l-5.7,9.895-17.627-10.186,6.028-10.476a66.392,66.392,0,0,1-10.6-11.266l-9.936,5.737-10.186-17.627,10.435-6.028a70,70,0,0,1-3.534-15.091H2541.3v-20.371h12.1a68.823,68.823,0,0,1,4.448-14.842l-9.894-5.7,10.186-17.669,10.435,6.07a70.313,70.313,0,0,1,11.308-10.643l-5.737-9.895,17.627-10.186,6.028,10.435a70.007,70.007,0,0,1,15.091-3.534V1019.8h20.371Zm-51.51,67.6a39.246,39.246,0,1,0,39.246-39.2A39.264,39.264,0,0,0,2581.751,1099.5Z" transform="translate(-2431.656 -897.628)" fill="#eba3a3" fill-rule="evenodd"/>
        <path id="_Path_2" data-name="&lt;Path&gt;" d="M2606.227,1135.779a1.413,1.413,0,1,1-2.827,0,53.867,53.867,0,0,1,53.879-53.879,1.414,1.414,0,1,1,0,2.827,51.1,51.1,0,0,0-51.052,51.052Z" transform="translate(-2467.939 -933.903)" fill="#fff"/>
        <path id="_Path_3" data-name="&lt;Path&gt;" d="M2690.641,1139a30.12,30.12,0,1,1-30.141,30.141A30.162,30.162,0,0,1,2690.641,1139Z" transform="translate(-2501.3 -967.23)" fill="#eba3a3"/>
        <path id="_Compound_Path_2" data-name="&lt;Compound Path&gt;" d="M3114.791,740.119a76.516,76.516,0,0,1,16.837,5.03l6.486-11.225,20.038,11.557-6.859,11.89a78.287,78.287,0,0,1,12.056,12.8l11.266-6.527,11.558,20.038-11.89,6.818a79.083,79.083,0,0,1,4.033,17.128h13.012V830.75h-13.719a74.77,74.77,0,0,1-5.072,16.879l11.266,6.485-11.557,20.039-11.89-6.9a74.884,74.884,0,0,1-12.8,12.056l6.527,11.308-20.039,11.557-6.86-11.89a78.138,78.138,0,0,1-17.087,4.033v13.013h-23.115V893.609a76.96,76.96,0,0,1-16.879-5.072l-6.486,11.266-20.038-11.557,6.859-11.89a80.016,80.016,0,0,1-12.056-12.8l-11.266,6.527-11.558-20.038,11.89-6.86a77.965,77.965,0,0,1-4.032-17.128H3010.4V802.937h13.719a76.6,76.6,0,0,1,5.072-16.837l-11.266-6.485,11.558-20.039,11.89,6.86a76.55,76.55,0,0,1,12.8-12.056l-6.527-11.266,20.039-11.557,6.86,11.89a77.942,77.942,0,0,1,17.128-4.033V726.4h23.115Zm-58.452,76.745a44.525,44.525,0,1,0,44.525-44.525A44.5,44.5,0,0,0,3056.339,816.864Z" transform="translate(-2706.134 -726.4)" fill="#eba3a3" fill-rule="evenodd"/>
        <path id="_Path_4" data-name="&lt;Path&gt;" d="M3084.043,858a1.621,1.621,0,1,1-3.243,0,61.177,61.177,0,0,1,61.2-61.2,1.621,1.621,0,0,1,0,3.243A57.913,57.913,0,0,0,3084.043,858Z" transform="translate(-2747.256 -767.532)" fill="#fff"/>
        <path id="_Path_5" data-name="&lt;Path&gt;" d="M3179.915,861.7a34.215,34.215,0,1,1-34.215,34.215,34.217,34.217,0,0,1,34.215-34.215Z" transform="translate(-2785.209 -805.451)" fill="#eba3a3"/>
        <path id="_Path_6" data-name="&lt;Path&gt;" d="M3375.1,920.976l38.955,445.462-583.528,51.052-38.954-445.462A23.159,23.159,0,0,1,2812.567,947l537.506-47.02a23.218,23.218,0,0,1,25.028,20.995Z" transform="translate(-2578.352 -827.768)" fill="#fff"/>
        <path id="_Path_7" data-name="&lt;Path&gt;" d="M3375.1,920.976l2.453,28.436-583.486,51.052-2.494-28.436A23.159,23.159,0,0,1,2812.567,947l537.506-47.02A23.218,23.218,0,0,1,3375.1,920.976Z" transform="translate(-2578.316 -827.768)" fill="#900"/>
        <path id="_Compound_Path_3" data-name="&lt;Compound Path&gt;" d="M4020.57,956.293a6.783,6.783,0,1,1-7.358-6.195A6.77,6.77,0,0,1,4020.57,956.293Zm-23.655,2.079a6.8,6.8,0,1,1-7.4-6.194A6.83,6.83,0,0,1,3996.915,958.372Zm47.353-4.157a6.783,6.783,0,1,1-7.359-6.153A6.746,6.746,0,0,1,4044.267,954.215Z" transform="translate(-3275.011 -855.893)" fill="#fff"/>
        <path id="_Compound_Path_4" data-name="&lt;Compound Path&gt;" d="M3401.866,1479.119l-3.45-39.453-80.03,6.984-2.869-32.718,73.96-132.287,31.6-2.744,10.934,124.679,24.363-2.12,2.91,32.885-24.4,2.12,3.45,39.453Zm-6.319-72.338-5.862-67.017-39,70.966Zm-173.362-110.794q28.5-2.432,46.355,16.546,21.264,22.45,26.15,78.366,4.864,55.875-12.264,81.942-14.156,21.577-42.655,24.03-28.645,2.536-48.1-18-19.519-20.517-24.445-77.161-4.864-55.563,12.264-81.651Q3193.707,1298.481,3222.185,1295.987Zm2.744,31.263a18,18,0,0,0-11.6,5.446c-3.243,3.159-5.529,8.606-6.818,16.338q-2.557,14.9.5,49.556,2.993,34.672,7.566,47.311t10.144,16.5a18.3,18.3,0,0,0,12.306,3.243,18.5,18.5,0,0,0,11.64-5.446c3.2-3.16,5.488-8.606,6.735-16.339q2.619-14.779-.458-49.473-3.034-34.589-7.566-47.228c-3.035-8.439-6.444-14.01-10.144-16.588A18.176,18.176,0,0,0,3224.929,1327.25Zm-127.881,178.517-3.451-39.453-80.029,7.026-2.868-32.76,73.918-132.246,31.638-2.785,10.892,124.679,24.4-2.12,2.869,32.885-24.4,2.12,3.45,39.495Zm-6.319-72.38-5.862-66.975-39,70.925Z" transform="translate(-2706.466 -1048.793)" fill="#900" fill-rule="evenodd"/>
        <path id="_Path_8" data-name="&lt;Path&gt;" d="M4187.4,2182.924c6.611-43.112,22.409-73.377,42.447-95.536l6.111,6.9,1-14.218c44.151-42.862,104.641-52.258,135.488-72.671-13.553,12.846-25.4,28.769-36.667,45.731l-14.3.042,8.606,8.689C4292.457,2120.314,4259.281,2186.791,4187.4,2182.924Z" transform="translate(-3394.662 -1473.851)" fill="#61ade0"/>
        <path id="_Path_9" data-name="&lt;Path&gt;" d="M4186.4,2217.647q13.969-18,29.144-35.171l.249-23.7h1.081l-.249,22.491q10.934-12.306,22.408-24.2l.291-23.656h1.04l-.25,22.575q8.689-8.938,17.711-17.627,6.485-6.319,13.179-12.472l1.081-22.782,1.039.042-1.039,21.7q14.135-12.972,28.935-25.485l3.492-21.244,1.04.166-3.284,20q18.771-15.777,38.622-30.889l.624.873q-31.243,23.759-59.908,49.39l25.028,1.788-.084,1.039-26.025-1.871q-11.183,10.1-21.95,20.5-1.871,1.788-3.659,3.534l31.97,2.993-.083,1.039-32.885-3.035q-12.555,12.305-24.445,25.027l32.1,2.993-.125,1.04-32.885-3.035q-21.764,23.51-41.324,48.641Z" transform="translate(-3393.842 -1508.907)" fill="#fff"/>
        <path id="_Path_10" data-name="&lt;Path&gt;" d="M4089.533,2162.71c5.612-9.936,8.9-20.7,7.525-33.134-3.035-15.8-.874-26.607,4.532-34.257l11.474,5.155L4108.74,2088a60.019,60.019,0,0,1,16.671-8.231c11.765-3.035,21.577-16.629,35.462-12.472,11.183,3.367,4.241,23.822,9.895,35.5,11.558,19.207,16.5,37.791-15.008,52.84-4.282,2.785-9.854,7.026-12.057,10.975l-9.6,4.823,9.313,3.492c17.419,73.585-96.825,44.11-53.88-12.222Z" transform="translate(-3331.456 -1508.39)" fill="#fff"/>
        <path id="_Path_11" data-name="&lt;Path&gt;" d="M4181.908,2110.274c-4.989,9.562-9.687,19.374-14.052,29.351l15.424-9.728.458.707-16.5,10.435c-4.615,10.6-8.855,21.452-12.846,32.51q-.915,2.578-1.788,5.155l24.2-15.257.458.707-25.111,15.84c-4.365,12.638-8.356,25.568-12.015,38.663l15.674-9.853.458.707-16.463,10.393q-2.952,10.768-5.654,21.784l-.832-.208q5.052-20.517,11.059-40.368l-11.267-21.66.748-.416,10.893,20.912q4.157-13.511,8.855-26.69,1.954-5.446,4.033-10.851l-13.8-26.482.748-.416L4158,2161.327a490.619,490.619,0,0,1,23.157-51.427Z" transform="translate(-3362.578 -1533.738)" fill="#a3b8d9"/>
        <path id="_Path_12" data-name="&lt;Path&gt;" d="M4586.857,2034.759a2.358,2.358,0,1,1,4.656-.748L4618,2196.19h-4.781Z" transform="translate(-3628.033 -1488.239)" fill="#bfbade"/>
        <path id="_Path_13" data-name="&lt;Path&gt;" d="M4365.057,2034.759a2.358,2.358,0,0,1,4.657-.748L4396.2,2196.19h-4.781Z" transform="translate(-3498.178 -1488.239)" fill="#bfbade"/>
        <path id="_Path_14" data-name="&lt;Path&gt;" d="M4479.193,2136.5a2.333,2.333,0,0,1,2.328,2.37,2.36,2.36,0,0,1-2.328,2.37H4388.77a2.4,2.4,0,0,1-2.37-2.37,2.369,2.369,0,0,1,2.37-2.37Z" transform="translate(-3510.931 -1549.519)" fill="#bfbade"/>
        <path id="_Path_15" data-name="&lt;Path&gt;" d="M4510.164,2339a2.369,2.369,0,0,1,2.371,2.37,2.4,2.4,0,0,1-2.371,2.37H4418.37a2.4,2.4,0,0,1-2.37-2.37,2.369,2.369,0,0,1,2.37-2.37Z" transform="translate(-3528.225 -1667.593)" fill="#bfbade"/>
        <path id="_Compound_Path_5" data-name="&lt;Compound Path&gt;" d="M4301.4,2196.19l19.373-118.568a1.541,1.541,0,0,1,.042-.374l7.067-43.236a2.358,2.358,0,0,1,4.656.748l-6.652,40.7h87.429l6.777-41.449a2.358,2.358,0,0,1,4.656.748l-26.357,161.43h-4.781l5.2-31.8h-87.429l-5.2,31.8Zm10.768-36.543H4399.6l12.971-79.447h-87.43Z" transform="translate(-3461.268 -1488.239)" fill="#bfbade" fill-rule="evenodd"/>
        <path id="_Path_16" data-name="&lt;Path&gt;" d="M4457.855,2034.229H4340.7V2017.1h117.155Z" transform="translate(-3484.23 -1479.81)" fill="#6154ab"/>
        <path id="_Path_17" data-name="&lt;Path&gt;" d="M4148.4,1322.073l2.952-5.488c35.046,7.816,48.433,19.124,77.119-6.486q6.985,18,13.969,36C4193.8,1367.888,4168.106,1350.094,4148.4,1322.073Z" transform="translate(-3371.562 -1067.106)" fill="#1c8fba"/>
        <path id="_Path_18" data-name="&lt;Path&gt;" d="M4137.337,1326.285l-2.619-.374c-7.275-.79-6.568-4.947-1.58-5.072,2.037,0,2.578-.748,1.5-2.328-.374-.748.624-1.621,1.746-.582q.916,1.081,1.829,2.2l1.954.873Z" transform="translate(-3360.338 -1071.414)" fill="#fc96a8"/>
        <path id="_Path_19" data-name="&lt;Path&gt;" d="M4372.21,1220.338c-16.006-12.929.166-30.64,18.5-12.306,10.31-5.155,16.338,9.895-1.829,26.9Z" transform="translate(-3498.558 -1002.936)" fill="#292959"/>
        <path id="_Path_20" data-name="&lt;Path&gt;" d="M4352.335,1512.394l4.615,190.116h-11.516c-9.354-47.1-39.08-122.684-24.2-196.311Z" transform="translate(-3470.183 -1181.457)"/>
        <path id="_Path_21" data-name="&lt;Path&gt;" d="M4327,1507.325l60.448-.125c22.949,35.546,51.136,145.716,58.535,195.853h-11.391Z" transform="translate(-3476.225 -1182.041)"/>
        <path id="_Path_22" data-name="&lt;Path&gt;" d="M4319.926,1325.185l8.481-23.323,24.57-5.862q5.57.5,11.1,1c20.579,2.619,21.826,42.447,20.829,86.64-21.66,8.606-46.271,8.689-62.319.291-2.619-19.332-3.908-38.871-2.661-58.744Z" transform="translate(-3471.557 -1058.854)" fill="#1c8fba"/>
        <path id="_Path_23" data-name="&lt;Path&gt;" d="M4395,1280.575v-3.949l8.938-7.026-.083,11.765C4394.918,1296.207,4386.271,1289.888,4395,1280.575Z" transform="translate(-3513.566 -1043.477)" fill="#fab8b0"/>
        <path id="_Path_24" data-name="&lt;Path&gt;" d="M4381.89,1230.537c6.028-11.225,11.059,2.494,16.629,3.742,4.158-.333,5.986,2.91,1.746,9.063C4387.212,1260.387,4375.155,1251.656,4381.89,1230.537Z" transform="translate(-3506.903 -1018.113)" fill="#fab8b0"/>
        <path id="_Path_25" data-name="&lt;Path&gt;" d="M4376.472,1994.448c-24.9,2.328-32.344-3.035-13.761-7.982l3.409-8.023,11.267-.042,1.081,9.021C4380.8,1990.748,4381.585,1993.533,4376.472,1994.448Z" transform="translate(-3490.75 -1457.221)" fill="#00528c"/>
        <path id="_Path_26" data-name="&lt;Path&gt;" d="M4577.316,1994.448c-24.944,2.328-32.386-3.035-13.8-7.982l3.409-8.023,11.267-.042,1.081,9.021C4581.6,1990.748,4582.389,1993.533,4577.316,1994.448Z" transform="translate(-3608.348 -1457.221)" fill="#00528c"/>
        <path id="_Path_27" data-name="&lt;Path&gt;" d="M4079.461,1285.723c40.95-6.569,56.624,11.142,59.367,41.366.541,6.111-.54,5.238-5.238,2l-21.535-14.842c-11.225-7.774-30.806,24.2-21.743,31.471l14.3,11.516c5.737,4.573,8.813,6.028,1.33,8.356-23.614,7.192-41.74-1.621-54.378-31.388-4.739-7.733-12.472-14.925-24.445-21.41l-10.851-5.779-135.114-65.645-16.089-6.735c-12.514-5.571-20.08-3.7-32.718-1.663-40.909,6.61-56.624-11.142-59.326-41.366-.541-6.07.541-5.238,5.238-2l21.494,14.842c11.267,7.774,30.806-24.154,21.784-31.43l-14.3-11.557c-5.737-4.573-8.813-6.028-1.331-8.315,23.614-7.234,41.74,1.621,54.337,31.347,4.739,7.733,12.513,14.966,24.486,21.41l10.934,5.612,135.114,65.686,16.006,6.86C4059.256,1289.672,4066.823,1287.76,4079.461,1285.723Z" transform="translate(-3152.482 -974.025)" fill="#ffad1c"/>
        <path id="_Path_28" data-name="&lt;Path&gt;" d="M4181.258,1390.536a12.956,12.956,0,0,0,2.12-2.993,11.419,11.419,0,0,0-5.279-15.174l-108.216-52.632a11.379,11.379,0,0,0-7.982-.707,11.348,11.348,0,0,1,13.054-2.245l108.258,52.591a11.361,11.361,0,0,1-1.954,21.161Z" transform="translate(-3321.009 -1070.324)" fill="#00528a"/>
        <path id="_Path_29" data-name="&lt;Path&gt;" d="M3832.334,1284.056c-40.908,6.61-56.623-11.142-59.326-41.366-.5-5.363.291-5.321,3.742-2.993,3.7,27.854,19.789,43.818,58.951,37.5,12.6-2.037,20.205-3.908,32.677,1.663l16.089,6.735,5.7,2.744,120.771,58.7,8.647,4.2,10.851,5.779c11.974,6.485,19.748,13.678,24.487,21.41,12.264,28.894,29.683,38.04,52.3,31.97,3.866,3.035,4.947,4.365-1.289,6.278-23.614,7.192-41.74-1.621-54.378-31.388-4.739-7.733-12.472-14.925-24.445-21.41l-10.851-5.779-135.115-65.645-16.089-6.735C3852.539,1280.148,3844.972,1282.018,3832.334,1284.056Z" transform="translate(-3152.195 -1025.073)" fill="#00528a"/>
        <path id="_Path_30" data-name="&lt;Path&gt;" d="M4222.955,1353.874l-5.154,3.035c40.035,56.457,101.855,4.906,90.8-37.208l-37,25.942C4250.519,1365.6,4244.407,1362.521,4222.955,1353.874Z" transform="translate(-3412.143 -1072.702)" fill="#1c8fba"/>
        <path id="_Path_31" data-name="&lt;Path&gt;" d="M4210.19,1395.887c-2.661-2.287-5.862-4.324-5.363-8.149.166-1.538,1.081-1.7,2.287-.665,3.243,3.076,4.947,3.451,4.864.748.083-.79,1.372-1.039,1.788.457l.416,2.827,1.164,1.746Z" transform="translate(-3404.456 -1111.669)" fill="#fab8b0"/>
        <path id="_Path_32" data-name="&lt;Path&gt;" d="M2624.9,1523.584a4.407,4.407,0,0,1,1.58-3.367c2.37-6.818-5.447-5.28-6.818.457-1.871,7.857-6.153,16.338-15.008,17.544-15.84,1.871-16.463-19.748,2.2-17.586,5.862-.956,8.148-4.157,8.938-8.356,1.206-13.428,12.929-14.343,20.5-6.153,3.783,4.822,3.367,9.562-.25,14.3Z" transform="translate(-2461.751 -1178.466)" fill="#362975"/>
        <path id="_Path_33" data-name="&lt;Path&gt;" d="M2692.071,1549.5c14.093-34.922-39.578-23.614-15.881,2.578Z" transform="translate(-2506.887 -1194.061)" fill="#362975"/>
        <path id="_Path_34" data-name="&lt;Path&gt;" d="M2691.243,1667.129c-14.551,4.448-19.249-8.606-13.179-14.468,33.55-26.981,26.649-21.826,36.834-64.023q3.949-.79,7.857-1.538C2744.956,1618.447,2719.845,1653.119,2691.243,1667.129Z" transform="translate(-2510.051 -1228.767)" fill="#faab40"/>
        <path id="_Path_35" data-name="&lt;Path&gt;" d="M2771.272,1571.623l.5-3.908q-.665-1.455-1.289-2.952c-.416-1.372.79-2.827,2.079-.582,1.247,1.289,2.411-.291,3.534-4.448.54-1.7,1.5-2.079,2.536-.707,2.744,3.367.832,7.442-.416,11.183Z" transform="translate(-2565.51 -1211.937)" fill="#fab8b0"/>
        <path id="_Path_36" data-name="&lt;Path&gt;" d="M2695.124,1795.065,2690.8,1734.7l28.935.665c31.887,68.181,14.426,201.549,11.6,270.935l-10.976-.042C2713.583,1955.622,2708.594,1834.311,2695.124,1795.065Z" transform="translate(-2519.004 -1314.523)"/>
        <path id="_Path_37" data-name="&lt;Path&gt;" d="M2550.383,1801.067c-1.829-27.771,11.516-49.514,36.169-66.767l27.438.665c-31.055,73.71,24.279,177.727-104.89,198.805v-10.019l50.221-36C2559.778,1878.062,2548.512,1801.067,2550.383,1801.067Z" transform="translate(-2412.843 -1314.562)"/>
        <path id="_Path_38" data-name="&lt;Path&gt;" d="M2626.227,1628.753c11.973-11.391,22.948-1,19.872,7.691-19.539,42.613-18.75,36.917-8.107,82.981l-3.451,2.661C2598.83,1689.326,2605.191,1656.358,2626.227,1628.753Z" transform="translate(-2471.268 -1250.139)" fill="#faab40"/>
        <path id="_Path_39" data-name="&lt;Path&gt;" d="M2668.538,1661.643c-9.811-22.242-25.983-45.856-7.608-51.8l13.137-1.663c25.277-4.781,23.946,24.695,23.323,52.965-10.061,3.284-17.876,4.2-28.852.5Z" transform="translate(-2496.658 -1240.789)" fill="#faab40"/>
        <path id="_Path_40" data-name="&lt;Path&gt;" d="M2701.228,1593.1l.956,6.569c11.433,8.647-4.531,13.512-6.569.832l-.416-6.735Z" transform="translate(-2521.574 -1232.313)" fill="#fab8b0"/>
        <path id="_Path_41" data-name="&lt;Path&gt;" d="M2683.1,1562.465c5.2-1.954,11.558-6.195,14.509-11.765l2.411,3.991c2.369,21.161-16.5,18.5-16.921,7.774Z" transform="translate(-2514.505 -1207.561)" fill="#fab8b0"/>
        <path id="_Path_42" data-name="&lt;Path&gt;" d="M2701.536,1597.025l.374,2.411a8.122,8.122,0,0,1-6.61-2.536,7.925,7.925,0,0,0,6.236.125Z" transform="translate(-2521.633 -1234.539)"/>
        <path id="_Path_43" data-name="&lt;Path&gt;" d="M2756.906,2396.755l1.04-8.855,10.975.042,3.326,7.857c18.126,4.823,10.892,10.061-13.428,7.774C2753.872,2402.7,2754.62,2399.956,2756.906,2396.755Z" transform="translate(-2556.59 -1696.163)" fill="#082694"/>
        <path id="_Path_44" data-name="&lt;Path&gt;" d="M2470.682,2175.883l7.94,4.032v10.02l-12.306.707c-10.685,15.382-13.137,6.818-2.661-15.258C2466.151,2171.019,2468.479,2172.682,2470.682,2175.883Z" transform="translate(-2382.365 -1570.652)" fill="#082694"/>
        <path id="_Path_45" data-name="&lt;Path&gt;" d="M2673.634,1853.9c.956.748,2.12,1.7,3.076,2.453,8.065,6.319,4.074,9.77-1.663,7.109l-4.947-6.984Z" transform="translate(-2506.91 -1384.552)" fill="#fab8b0"/>
        <path id="_Path_46" data-name="&lt;Path&gt;" d="M2759.736,1536.731l-.873-2.453a.339.339,0,0,1,.208-.457l10.019-3.658a.339.339,0,0,1,.458.208l.914,2.453a.4.4,0,0,1-.208.5l-10.02,3.617a.366.366,0,0,1-.5-.208Z" transform="translate(-2558.755 -1195.564)" fill="#63388f"/>
        <path id="_Path_47" data-name="&lt;Path&gt;" d="M2784.8,1560.476l-1.871.665-5.945,2.162-.291.125-.042-.042a3.4,3.4,0,0,1-4.074-2.12l-7.275-19.955,7.982-2.91,8.647,20.413,2-.707Z" transform="translate(-2562.531 -1200.378)" fill="#f24a59"/>
        <path id="_Path_48" data-name="&lt;Path&gt;" d="M2829.281,1445.546l12.43-4.49a6.428,6.428,0,0,1,8.232,3.825l.831,2.245a6.494,6.494,0,0,1-3.866,8.273l-12.389,4.49a6.393,6.393,0,0,1-8.232-3.824l-.832-2.245a6.473,6.473,0,0,1,3.825-8.273Z" transform="translate(-2597.709 -1143.334)" fill="#63388f"/>
        <path id="_Path_49" data-name="&lt;Path&gt;" d="M2845.148,1394.3v-.042a1.9,1.9,0,0,1,2.412,1.164l18.292,50.221a1.926,1.926,0,0,1-1.123,2.453,1.9,1.9,0,0,1-2.411-1.122l-18.292-50.263a1.833,1.833,0,0,1,1.122-2.411Z" transform="translate(-2608.72 -1116.164)" fill="#63388f"/>
        <path id="_Path_50" data-name="&lt;Path&gt;" d="M2709.94,1488.061a7.381,7.381,0,0,1,9.479,4.407l2,5.488a7.411,7.411,0,0,1-13.927,5.072l-2-5.488A7.437,7.437,0,0,1,2709.94,1488.061Z" transform="translate(-2527.334 -1170.731)" fill="#63388f"/>
        <path id="_Path_51" data-name="&lt;Path&gt;" d="M2719.946,1473.9l4.656-1.7a4.968,4.968,0,0,1,6.319,2.952l6.153,16.837a4.952,4.952,0,0,1-2.952,6.319l-4.656,1.7a5.014,5.014,0,0,1-6.361-2.952l-6.111-16.837A4.968,4.968,0,0,1,2719.946,1473.9Z" transform="translate(-2534.139 -1161.562)" fill="#63388f"/>
        <path id="_Path_52" data-name="&lt;Path&gt;" d="M2730.926,1462.368l10.892-3.991a1.657,1.657,0,0,1,2.079,1l9.936,27.272a1.635,1.635,0,0,1-.956,2.079l-10.892,3.991a1.656,1.656,0,0,1-2.079-1l-9.936-27.272A1.635,1.635,0,0,1,2730.926,1462.368Z" transform="translate(-2541.835 -1153.61)" fill="#63388f"/>
        <path id="_Path_53" data-name="&lt;Path&gt;" d="M2815.344,1450.866c-12.43-4.989-26.607-3.118-41.74,2.494l-4.781-13.179L2764,1427c15.216-5.446,27.272-13.137,33.592-24.9l8.9,24.362Z" transform="translate(-2562.005 -1120.804)" fill="#f24a59"/>
        <path id="_Path_54" data-name="&lt;Path&gt;" d="M3462.657,2353.3l-.041,13.47-11.516-.042.208-13.428Z" transform="translate(-2963.763 -1675.948)" fill="#fab8b0"/>
        <path id="_Path_55" data-name="&lt;Path&gt;" d="M3449.123,2393.333l-.083-7.733,11.516.042-.125,6.86c15.923,4.24,11.724,8.855-9.6,6.818-4.365-.748-3.7-3.16-1.7-5.987Z" transform="translate(-2961.706 -1694.82)" fill="#1c2173"/>
        <path id="_Path_56" data-name="&lt;Path&gt;" d="M3314.489,2124.3c35.587,1.746,50.346,23.614,17.544,107.01H3318.6l9.188-67.224L3227.6,2177.93l27.231-48.1Z" transform="translate(-2833.125 -1542.152)" fill="#0d40ad"/>
        <path id="_Path_57" data-name="&lt;Path&gt;" d="M3325.4,1949.476q8.689-18.417,17.419-36.876c28.353,29.143,43.278,18.251,80.819,12.638l2.7,6.028c-22.907,28.062-51.3,44.858-100.941,18.209Z" transform="translate(-2890.304 -1418.782)"/>
        <path id="_Path_58" data-name="&lt;Path&gt;" d="M3561.9,1938.614l2.079-.79,2.12-2.2c1.289-1,2.245.042,1.788.748-1.247,1.622-.749,2.453,1.372,2.578,3.118.707.915,4.947-2,5.238-.956.083-1.913.125-2.827.166Z" transform="translate(-3028.549 -1432.015)" fill="#fab8b0"/>
        <path id="_Path_59" data-name="&lt;Path&gt;" d="M3321.244,1838.214a8.637,8.637,0,1,1-10.726,5.9A8.637,8.637,0,0,1,3321.244,1838.214Z" transform="translate(-2881.363 -1375.188)" fill="#292959"/>
        <path id="_Path_60" data-name="&lt;Path&gt;" d="M3072.327,2363.882l-9.437,9.562-8.19-8.149,9.562-9.4Z" transform="translate(-2731.979 -1677.467)" fill="#fab8b0"/>
        <path id="_Path_61" data-name="&lt;Path&gt;" d="M3035.977,2384.071l5.363-5.571,8.19,8.148-4.948,4.781c8.315,14.177,2.12,14.509-11.64-1.912-2.536-3.617-.374-4.864,2.993-5.446Z" transform="translate(-2718.609 -1690.671)" fill="#1c2173"/>
        <path id="_Path_62" data-name="&lt;Path&gt;" d="M3068.909,2220.651l-10.809-9.271,38.622-38.082,24.321-75,39.495,17.295-40.41,74.583Z" transform="translate(-2733.997 -1526.961)" fill="#0d40ad"/>
        <path id="_Path_63" data-name="&lt;Path&gt;" d="M3268.633,1998.6c-18.791,3.783-43.777-3.534-63.233-18.667,12.015-45.149,25.027-85.226,46.646-81.817q5.821,1.122,11.6,2.286l7.9,2.287c9.936,8.98,15.923,21.078,17.087,37.042C3284.016,1960.268,3276.948,1979.724,3268.633,1998.6Z" transform="translate(-2820.125 -1410.159)"/>
        <path id="_Path_64" data-name="&lt;Path&gt;" d="M3325.5,1885.744l2.869-10.144,5.9,8.231-.956,3.409c5.155,10.144-3.867,13.428-7.816-1.5Z" transform="translate(-2890.32 -1397.211)" fill="#fab8b0"/>
        <path id="_Path_65" data-name="&lt;Path&gt;" d="M3326.388,1833.133c-.167-7.192,1.954-12.8,8.356-10.768a4.631,4.631,0,0,0,6.361-2.827c3.076-9.811,24.2,3.866,4.407,13.387Q3335.949,1833.05,3326.388,1833.133Z" transform="translate(-2890.842 -1362.512)" fill="#292959"/>
        <path id="_Path_66" data-name="&lt;Path&gt;" d="M3325.573,1855.733c-2.12-6.361.25-8.689,3.783-7.359,5.072.291,12.8-10.227,15.216.915C3345.071,1869.12,3332.516,1873.61,3325.573,1855.733Z" transform="translate(-2889.899 -1378.856)" fill="#fab8b0"/>
        <path id="_Compound_Path_6" data-name="&lt;Compound Path&gt;" d="M3600.869,1885.3a95,95,0,0,1,18.5,18l15.424-6.61a16.238,16.238,0,0,1,21.286,8.481l6.9,16.131a16.278,16.278,0,0,1-8.523,21.286l-15.3,6.569a97.476,97.476,0,0,1,.374,25.817l15.549,6.195a16.26,16.26,0,0,1,9.021,21.078l-6.486,16.3a16.26,16.26,0,0,1-21.078,9.021l-15.465-6.194a96.224,96.224,0,0,1-17.959,18.542l6.569,15.382a16.239,16.239,0,0,1-8.481,21.286l-16.131,6.9a16.278,16.278,0,0,1-21.286-8.523l-6.569-15.3a95.727,95.727,0,0,1-25.817.374l-6.195,15.549a16.315,16.315,0,0,1-21.078,9.063l-16.3-6.527a16.3,16.3,0,0,1-9.021-21.078l6.194-15.465a97.2,97.2,0,0,1-18.5-17.96l-15.424,6.569a16.178,16.178,0,0,1-21.244-8.481l-6.943-16.131a16.292,16.292,0,0,1,8.523-21.286l15.3-6.569a97.193,97.193,0,0,1-.374-25.776l-15.549-6.236a16.26,16.26,0,0,1-9.021-21.078l6.486-16.3a16.3,16.3,0,0,1,21.078-9.021l15.465,6.195a96.151,96.151,0,0,1,18-18.5l-6.61-15.424a16.178,16.178,0,0,1,8.481-21.244l16.131-6.943a16.278,16.278,0,0,1,21.286,8.523l6.569,15.3a97.473,97.473,0,0,1,25.817-.374l6.195-15.548a16.26,16.26,0,0,1,21.078-9.022l16.3,6.486a16.26,16.26,0,0,1,9.021,21.078Zm-78.159,128.67a54.422,54.422,0,1,0-30.307-70.717A54.424,54.424,0,0,0,3522.71,2013.969Z" transform="translate(-2946.073 -1376.693)" fill="#900" fill-rule="evenodd"/>
        <path id="_Path_67" data-name="&lt;Path&gt;" d="M3363,2027.784l1.622,6.028c-82.815,36.169-107.177,6.86-132.62-27.813,9.645,9.562,32.178,7.068,59.367.208C3309.909,2018.1,3333.024,2024.583,3363,2027.784Z" transform="translate(-2835.703 -1473.305)"/>
        <path id="_Path_68" data-name="&lt;Path&gt;" d="M3546.9,2054.589l2.2-.458q1.164-.956,2.37-1.912c1.413-.79,2.2.332,1.7,1-2.078,2-.5,2.952,4.241,3.035,1.7.042,2.286.873,1.247,2.121-2.453,3.326-6.319,2.536-10.061,2.286Z" transform="translate(-3019.78 -1500.16)" fill="#fab8b0"/>
        <path id="_Path_69" data-name="&lt;Path&gt;" d="M4444.393,976.65l-20.787,6.028-4.157,5.072L4411.3,993.9l6.028-17.669,16.089-10.976L4477.9,954.2Z" transform="translate(-3525.268 -859.495)" fill="#4a75cc"/>
        <path id="_Path_70" data-name="&lt;Path&gt;" d="M4401.319,976.234,4383.9,962.182l77.992-7.982Z" transform="translate(-3509.257 -859.495)" fill="#6b9ef2"/>
        <path id="_Path_71" data-name="&lt;Path&gt;" d="M4454.329,1008.2,4440.9,982.678l54.3-28.478Z" transform="translate(-3542.565 -859.495)" fill="#6b9ef2"/>
        <path id="_Path_72" data-name="&lt;Path&gt;" d="M4423.605,1022.7l2.412,4.573-14.718,6.652Z" transform="translate(-3525.22 -899.517)" fill="#1c4587"/>
        <path id="_Compound_Path_7" data-name="&lt;Compound Path&gt;" d="M4081.454,1102.274l-.333-.083-.416-.166-.375-.125-.374-.125-.416-.125-.374-.125-.374-.166-.416-.125-.375-.166-.374-.125-.416-.166-.374-.166-.416-.125-.374-.166-.416-.166-.374-.166-.416-.166-.208-.083.582-1.33.208.083.374.166.416.166.374.166.375.125.416.166.375.166.374.125.374.166.374.125.416.166.374.125.374.125.374.125.374.166.374.125.375.125.374.083Zm11.349,2.536h-.166l-.375-.042-.333-.083-.374-.042-.375-.042-.374-.042-.333-.083-.374-.042-.374-.083-.374-.042-.374-.083-.333-.083-.375-.042-.374-.083-.374-.083-.375-.083-.374-.083-.374-.083-.374-.083-.374-.125.333-1.372.374.083.374.083.374.083.333.083.374.083.375.083.374.083.333.042.374.083.375.083.332.042.375.083.332.042.374.042.333.083.375.042.333.042.374.042.333.042.167.042Zm11.683-.042-.292.042-.333.042-.374.042-.332.042-.333.042h-.333l-.333.042-.375.042h-.333l-.333.042h-.707l-.333.042h-2.909l.083-1.455H4098l.333.042h.707l.333-.042h1l.333-.042h.665l.333-.042.333-.042h.333l.333-.042.333-.042h.333l.332-.042.292-.042.333-.042Zm11.266-3.035-.208.083-.333.125-.291.125-.333.125-.292.125-.333.125-.333.083-.291.125-.333.125-.291.083-.333.125-.333.083-.292.125-.332.083-.333.083-.333.125-.291.083-.332.083-.333.083-.333.083-.333.083-.333.083-.333-1.414.333-.083.333-.083.291-.042.333-.083.291-.083.333-.125.292-.083.332-.083.292-.083.333-.125.291-.083.333-.083.291-.125.292-.125.333-.083.291-.125.291-.125.333-.083.292-.125.291-.125.333-.125.208-.083Zm10.1-5.779-.125.083-.291.208-.291.208-.292.208-.291.208-.291.208-.291.208-.291.166-.291.208-.292.208-.291.166-.333.166-.291.208-.292.166-.291.166-.291.208-.292.166-.291.166-.333.166-.291.166-.291.166-.125.083-.665-1.289.083-.083.333-.125.291-.166.291-.166.291-.166.25-.166.291-.166.291-.166.291-.208.292-.166.291-.166.291-.208.292-.166.291-.208.25-.166.291-.208.292-.166.291-.208.291-.208.25-.208.291-.208.167-.083Zm8.647-7.774-.25.291-.25.291-.291.25-.25.291-.249.25-.292.291-.249.25-.292.291-.25.249-.291.249-.291.25-.25.291-.291.249-.25.249-.291.25-.25.25-.291.249-.292.249-.249.208-.125.083-.915-1.081.083-.083.25-.249.291-.208.25-.25.291-.25.25-.249.291-.249.25-.25.292-.25.249-.249.25-.249.291-.25.25-.25.291-.291.25-.249.25-.25.25-.291.291-.249.25-.291.25-.291Zm7.358-8.98-.208.208-.208.374-.25.333-.249.333-.25.333-.25.333-.25.333-.249.333-.25.333-.25.333-.291.291-.25.332-.249.333-.25.291-.25.333-.25.333-.25.291-.25.291-1.123-.915.25-.291.25-.333.25-.291.25-.291.25-.332.25-.291.249-.333.25-.333.25-.291.249-.332.25-.333.25-.333.25-.333.249-.333.25-.333.208-.333.25-.333.166-.208Zm6.319-9.687v.042l-.125.125-.083.125-.083.166-.125.125-.083.166-.083.125-.125.166-.084.125-.083.166-.083.125-.125.166-.083.166-.083.125-.125.166-.083.166-.208.374-.25.374-.249.374-.208.416-.25.374-.25.374-.208.374-.25.374-.25.374-.208.333-.083.083-1.206-.79.042-.083.25-.333.25-.374.208-.374.25-.374.249-.374.208-.374.25-.374.208-.374.25-.374.208-.374h.042l.083-.166.083-.166.125-.166.083-.125.083-.166.125-.166.083-.166.083-.125.125-.166.083-.125.125-.166.083-.166.125-.125.083-.166.083-.125h.042Zm7.857-7.982-.083.042-.125.083-.125.083-.125.083-.083.083-.125.083-.125.083-.124.083-.125.083-.083.083-.125.125-.249.166-.083.083-.125.083-.125.125-.125.083-.083.083-.125.083-.125.125-.125.083-.083.083-.125.125-.125.083-.083.083-.125.125-.125.083-.083.125-.124.083-.125.125-.083.083-.124.125-.125.083-.083.125-.124.125-.083.083-.125.125-.125.083-.083.125-.125.125-.083.125-.124.083-.125.125-.083.125-.125.125-.083.083-.124.125v.042l-1.082-.956v-.042l.125-.125.125-.125.083-.125.125-.125.125-.083.083-.125.125-.125.125-.125.125-.125.083-.125.125-.083.125-.125.125-.125.083-.083.125-.125.125-.125.124-.083.084-.125.124-.125.125-.083.125-.125.125-.083.083-.125.125-.083.125-.125.125-.083.125-.125.124-.083.084-.083.124-.125.125-.083.125-.125.125-.083.125-.083.125-.125.125-.083.124-.083.125-.083.083-.083.125-.125.125-.083.125-.083.125-.083.125-.083.124-.083.125-.083.083-.083Zm10.269-4.282a26.3,26.3,0,0,0-6.61,2.2l-.665-1.33a29.558,29.558,0,0,1,7.025-2.286Zm11.225-.5h-.042l-.124-.042h-.5l-.125-.042h-.458l-.166-.042h-.582l-.166-.042h-1.206l-.125-.042h-1.205l-.166.042H4171.5l-.125.042h-.582l-.166.042h-.167l-.083-1.455h.457l.166-.042h.748l.167-.042h3.034l.166.042h.79l.125.042h.5l.167.042h.457l.167.042h.333Zm11.35,1.912h-.416l-.167-.042h-.208l-.208-.042h-.208l-.167-.042-.208-.042h-.208l-.208-.042-.208-.042h-.166l-.208-.042-.208-.042h-.208l-.208-.042-.208-.042-.208-.042h-.208l-.208-.042-.208-.042-.208-.042-.208-.042-.208-.042-.208-.042-.249-.042-.208-.042-.208-.042-.208-.042-.208-.042-.249-.042-.208-.042-.208-.042-.249-.042-.125-.042.333-1.414.125.042.208.042.208.042.208.042.208.042.25.042.208.042.208.042.208.042.208.042.208.042.208.042.208.042.208.042.208.042h.208l.208.042.166.042.208.042h.208l.208.042.208.042h.166l.208.042.208.042h.208l.167.042.208.042h.166l.208.042h.208l.167.042h.208l.166.042H4189Zm11.724-.873-.042.042-.125.042h-.167l-.125.042-.124.042-.125.042-.167.042-.125.042-.124.042h-.167l-.125.042-.166.042-.125.042-.125.042h-.166l-.125.042-.167.042h-.124l-.167.042-.125.042h-.166l-.167.042h-.125l-.166.042h-.167l-.124.042h-.167l-.166.042h-.125l-.166.042h-.167l-.166.042h-.125l-.333.042h-.333l-.167.042h-.665l-.166.042h-.956v-1.414h.25l.166-.042h.79l.166-.042h.5l.125-.042h.333l.125-.042h.292l.166-.042h.167l.124-.042h.291l.166-.042h.125l.166-.042h.125l.125-.042.167-.042h.124l.125-.042h.167l.125-.042.125-.042h.167l.125-.042.124-.042h.125l.125-.042.125-.042.167-.042.124-.042h.125l.125-.042.125-.042.125-.042.125-.042.124-.042h.042Zm9.271-7.234-.042.125a14.283,14.283,0,0,1-5.114,5.321l-.749-1.247a12.327,12.327,0,0,0,4.573-4.781l.083-.083Zm1.538-4.324v.083l-1.414-.291.042-.125Zm-140.81,51.635-.25-.125-.374-.166-.416-.208-.416-.208-.416-.208-.416-.208-.374-.25-.416-.208-.416-.208-.416-.208-.416-.25-.416-.208-.416-.25-.416-.208-.416-.25-.416-.249.749-1.247.375.25.416.208.416.249.416.208.416.25.416.208.374.208.416.25.416.208.374.208.416.208.416.208.375.208.416.208.416.166.208.125Zm76.039-26.108v-.042m-1.207-.748,1.207.79" transform="translate(-3322.373 -912.889)" fill="#6b9ef2" fill-rule="evenodd"/>
        <path id="_Path_73" data-name="&lt;Path&gt;" d="M2799.9,2387.2h100.11v16.5H2799.9Z" transform="translate(-2583.009 -1695.754)" fill="#680202"/>
        <path id="_Path_74" data-name="&lt;Path&gt;" d="M2863.781,2144.171c.873-2.993,2.494-5.571,5.571-5.571s4.615,2.494,5.571,5.571l30.681,97.781h-72.5Z" transform="translate(-2602.416 -1550.507)" fill="#900"/>
        <path id="_Path_75" data-name="&lt;Path&gt;" d="M2849.3,2312.429l5.2-16.629h48.641l5.238,16.629Z" transform="translate(-2611.886 -1642.353)" fill="#f1b6b6"/>
        <path id="_Path_76" data-name="&lt;Path&gt;" d="M2875.7,2228.029l5.239-16.629h26.607l5.239,16.629Z" transform="translate(-2627.317 -1593.228)" fill="#f1b6b6"/>
        <path id="_Path_77" data-name="&lt;Path&gt;" d="M2902.2,2150.448l1.954-6.278c.873-2.993,2.494-5.571,5.571-5.571s4.615,2.494,5.571,5.571l1.954,6.278Z" transform="translate(-2642.807 -1550.738)" fill="#f1b6b6"/>
      </g>
    </g>
  </g>
</svg>
