<svg xmlns="http://www.w3.org/2000/svg" xmlns:xlink="http://www.w3.org/1999/xlink" width="72" height="70" viewBox="0 0 72 70">
  <defs>
    <filter id="Ellipse_126" x="1.5" y="0" width="70" height="70" filterUnits="userSpaceOnUse">
      <feOffset input="SourceAlpha"/>
      <feGaussianBlur stdDeviation="5" result="blur"/>
      <feFlood flood-opacity="0.161"/>
      <feComposite operator="in" in2="blur"/>
      <feComposite in="SourceGraphic"/>
    </filter>
    <clipPath id="clip-path">
      <rect id="Rectangle_266" data-name="Rectangle 266" width="19.581" height="15.7" fill="#900" stroke="#900" stroke-width="0.1"/>
    </clipPath>
  </defs>
  <g id="Group_2227" data-name="Group 2227" transform="translate(-4913 -3654)">
    <g id="Group_2224" data-name="Group 2224" transform="translate(0 86)">
      <g id="Group_19713" data-name="Group 19713" transform="translate(4862.5 3548)">
        <g id="Group_19711" data-name="Group 19711">
          <g transform="matrix(1, 0, 0, 1, 50.5, 20)" filter="url(#Ellipse_126)">
            <circle id="Ellipse_126-2" data-name="Ellipse 126" cx="20" cy="20" r="20" transform="translate(16.5 15)" fill="#fff"/>
          </g>
          <line id="Line_411" data-name="Line 411" x2="10" transform="translate(109.5 50.5)" fill="none" stroke="#900" stroke-width="1"/>
          <line id="Line_413" data-name="Line 413" x1="10" transform="translate(57 58.5)" fill="none" stroke="#900" stroke-width="1"/>
          <line id="Line_412" data-name="Line 412" x2="6" transform="translate(116.5 46.5)" fill="none" stroke="#900" stroke-width="1"/>
          <line id="Line_414" data-name="Line 414" x1="6" transform="translate(50.5 62.5)" fill="none" stroke="#900" stroke-width="1"/>
          <circle id="Ellipse_127" data-name="Ellipse 127" cx="3.5" cy="3.5" r="3.5" transform="translate(58 38)" fill="#900" opacity="0.16"/>
          <circle id="Ellipse_128" data-name="Ellipse 128" cx="3.5" cy="3.5" r="3.5" transform="translate(91 22)" fill="#900" opacity="0.38"/>
          <circle id="Ellipse_129" data-name="Ellipse 129" cx="3.5" cy="3.5" r="3.5" transform="translate(105 71)" fill="#eed5d5"/>
        </g>
      </g>
    </g>
    <g id="Group_2226" data-name="Group 2226" transform="translate(4940 3682.054)">
      <g id="Group_2225" data-name="Group 2225" clip-path="url(#clip-path)">
        <path id="Path_11754" data-name="Path 11754" d="M0,.891A1.154,1.154,0,0,1,.464.217,3.129,3.129,0,0,1,1.047.01.668.668,0,0,1,1.238,0Q7.671,0,14.1.009A1.5,1.5,0,0,1,14.681.1a1.016,1.016,0,0,1,.653.972c.011,1.007.005,2.014,0,3.021a.461.461,0,1,1-.919,0c0-.956,0-1.912,0-2.868,0-.262-.037-.3-.3-.3H1.215c-.249,0-.293.042-.293.285q0,3.834,0,7.668c0,.237.043.28.278.281.376,0,.752,0,1.128,0s.545.174.545.552q0,.975,0,1.95c0,.062,0,.123,0,.239.084-.08.133-.124.179-.17.78-.78,1.562-1.557,2.336-2.342a.694.694,0,0,1,.559-.232c.216.01.433,0,.65,0a.468.468,0,0,1,.516.467.43.43,0,0,1-.5.447,1.187,1.187,0,0,0-1.081.473c-.893.927-1.816,1.825-2.724,2.738a.507.507,0,0,1-.531.172.475.475,0,0,1-.323-.507q0-1.319,0-2.639v-.227H1.365A1.174,1.174,0,0,1,0,9.191Z" transform="translate(0 -0.001)" fill="#900" stroke="#900" stroke-width="0.1"/>
        <path id="Path_11755" data-name="Path 11755" d="M170.157,118.178v.836c0,.37,0,.739,0,1.109a.471.471,0,0,1-.836.341c-.711-.714-1.426-1.423-2.133-2.14a.464.464,0,0,0-.367-.148q-2.734.007-5.468,0a1.105,1.105,0,0,1-1.153-.888,1.6,1.6,0,0,1-.023-.323q0-2.582,0-5.163a1.109,1.109,0,0,1,1.212-1.212c1.141,0,2.282,0,3.422,0q2.763,0,5.526,0a1.2,1.2,0,0,1,.9.31,1.047,1.047,0,0,1,.34.765q.005,2.715,0,5.431a1.1,1.1,0,0,1-1.093,1.081c-.1,0-.2,0-.322,0m-.969.852.048-.026c0-.419,0-.838,0-1.257a.445.445,0,0,1,.466-.491c.21-.01.42,0,.631,0,.284,0,.319-.036.319-.319q0-2.543,0-5.085c0-.3-.026-.326-.328-.326h-8.888c-.32,0-.339.019-.339.332q0,2.514,0,5.028c0,.352.017.37.363.37q2.81,0,5.619,0a.73.73,0,0,1,.575.238c.311.329.637.642.957.962.192.193.384.387.575.581" transform="translate(-151.994 -104.941)" fill="#900" stroke="#900" stroke-width="0.1"/>
        <path id="Path_11756" data-name="Path 11756" d="M63.59,59.867q2.064,0,4.127,0c.334,0,.541.18.54.459a.455.455,0,0,1-.387.454,1.077,1.077,0,0,1-.19.01H59.5c-.37,0-.581-.185-.566-.491a.441.441,0,0,1,.393-.423,2.09,2.09,0,0,1,.248-.008H63.59" transform="translate(-55.926 -56.809)" fill="#900" stroke="#900" stroke-width="0.1"/>
        <path id="Path_11757" data-name="Path 11757" d="M60.994,120.525c-.516,0-1.032,0-1.548,0a.459.459,0,0,1-.508-.49.443.443,0,0,1,.356-.417.967.967,0,0,1,.19-.017h3a1.051,1.051,0,0,1,.19.015.455.455,0,0,1,.019.889,1.168,1.168,0,0,1-.246.021c-.484,0-.968,0-1.452,0" transform="translate(-55.927 -113.489)" fill="#900" stroke="#900" stroke-width="0.1"/>
        <path id="Path_11758" data-name="Path 11758" d="M220.768,176.387a.45.45,0,0,1,.458-.457.459.459,0,0,1,.461.457.469.469,0,0,1-.462.461.462.462,0,0,1-.457-.462" transform="translate(-209.491 -166.943)" fill="#900" stroke="#900" stroke-width="0.1"/>
        <path id="Path_11759" data-name="Path 11759" d="M263.674,176.388a.459.459,0,1,1-.918,0,.459.459,0,0,1,.918,0" transform="translate(-249.334 -166.943)" fill="#900" stroke="#900" stroke-width="0.1"/>
        <path id="Path_11760" data-name="Path 11760" d="M305.182,175.932a.451.451,0,0,1,.464.451.459.459,0,1,1-.919.011.456.456,0,0,1,.455-.462" transform="translate(-289.161 -166.945)" fill="#900" stroke="#900" stroke-width="0.1"/>
      </g>
    </g>
  </g>
</svg>
