<svg xmlns="http://www.w3.org/2000/svg" xmlns:xlink="http://www.w3.org/1999/xlink" width="1819" height="1080" viewBox="0 0 1819 1080">
  <defs>
    <clipPath id="clip-Artboard_2">
      <rect width="1819" height="1080"/>
    </clipPath>
  </defs>
  <g id="Artboard_2" data-name="Artboard – 2" clip-path="url(#clip-Artboard_2)">
    <rect width="1819" height="1080" fill="#fff"/>
    <g id="Layer_2" data-name="Layer 2" transform="translate(2133.631 100)">
      <g id="_ëîé_1" data-name="‘ëîé_1" transform="translate(-1732 -100)">
        <path id="Path_1" data-name="Path 1" d="M1214.154,0V1080H483.482c42.08-82.738,108.778-153.482,192.214-196.921,47.511-24.735,99.112-41.074,147.412-64.3s94.75-55.013,120.76-101.135S970.4,608.691,933.845,570.037c-35.494-37.527-93.591-43.068-145.8-41.219S680.9,536.949,633.62,515.2c-86.706-39.879-107.266-151.659-173.4-219.534-45.853-47.061-111.2-70.3-175.139-87.926S154.825,176.016,98.257,141.966C46.567,110.859,3.615,58.313,0,0Z" fill="#f8c5c8"/>
      </g>
    </g>
    <rect id="Rectangle_1" data-name="Rectangle 1" width="605" height="1349" transform="translate(1412 -33)" fill="#f8c5c8"/>
  </g>
</svg>
