<svg xmlns="http://www.w3.org/2000/svg" width="67" height="43" viewBox="0 0 67 43">
  <g id="Group_19715" data-name="Group 19715" transform="translate(-52.5 -31)">
    <g id="Group_19712" data-name="Group 19712">
      <g id="Group_19711" data-name="Group 19711">
        <line id="Line_411" data-name="Line 411" x2="10" transform="translate(106.5 51.5)" fill="none" stroke="#900" stroke-width="1"/>
        <line id="Line_413" data-name="Line 413" x1="10" transform="translate(59 56.5)" fill="none" stroke="#900" stroke-width="1"/>
        <line id="Line_412" data-name="Line 412" x2="6" transform="translate(113.5 47.5)" fill="none" stroke="#900" stroke-width="1"/>
        <line id="Line_414" data-name="Line 414" x1="6" transform="translate(52.5 60.5)" fill="none" stroke="#900" stroke-width="1"/>
        <circle id="Ellipse_127" data-name="Ellipse 127" cx="3.5" cy="3.5" r="3.5" transform="translate(64 39)" fill="#900" opacity="0.16"/>
        <circle id="Ellipse_128" data-name="Ellipse 128" cx="3.5" cy="3.5" r="3.5" transform="translate(92 31)" fill="#900" opacity="0.38"/>
        <circle id="Ellipse_129" data-name="Ellipse 129" cx="3.5" cy="3.5" r="3.5" transform="translate(100 67)" fill="#eed5d5"/>
      </g>
    </g>
    <g id="sad_1_" data-name="sad (1)" transform="translate(76.03 555.706)">
      <path id="Path_5267" data-name="Path 5267" d="M10.4-511.594a11.1,11.1,0,0,0-5.765,2.3A12.592,12.592,0,0,0,2.1-506.469a14.9,14.9,0,0,0-.982,2.011,13.274,13.274,0,0,0-.547,2.131,13.311,13.311,0,0,0,0,3.245A10.777,10.777,0,0,0,1.586-495.9a10.136,10.136,0,0,0,2.088,2.908A10.136,10.136,0,0,0,6.583-490.9a10.776,10.776,0,0,0,3.181,1.012,13.311,13.311,0,0,0,3.246,0,10.776,10.776,0,0,0,3.181-1.012,10.137,10.137,0,0,0,2.908-2.088,10.136,10.136,0,0,0,2.088-2.908,9.787,9.787,0,0,0,.769-2.033,9.11,9.11,0,0,0,.333-2.771,9.11,9.11,0,0,0-.333-2.772,9.787,9.787,0,0,0-.769-2.033,10.137,10.137,0,0,0-2.088-2.908,10.138,10.138,0,0,0-2.908-2.088,10.614,10.614,0,0,0-3.16-1A14.691,14.691,0,0,0,10.4-511.594Zm2.007,1.2a9.772,9.772,0,0,1,5.325,2.315,9.734,9.734,0,0,1,2.374,11.71,9.793,9.793,0,0,1-6.047,5.039,9.918,9.918,0,0,1-5.355,0,9.732,9.732,0,0,1-6.055-5.078,8.947,8.947,0,0,1-.991-3.976,9.022,9.022,0,0,1,.162-2.2,9.793,9.793,0,0,1,8.344-7.785A13.132,13.132,0,0,1,12.412-510.4Z" transform="translate(0 0)" fill="#900"/>
      <path id="Path_5268" data-name="Path 5268" d="M144.405-340.762a1.159,1.159,0,0,0-.79.611.934.934,0,0,0-.115.538.876.876,0,0,0,.124.547,1.142,1.142,0,0,0,1.029.615,1.124,1.124,0,0,0,1.166-1.089,1.133,1.133,0,0,0-.922-1.221A.8.8,0,0,0,144.405-340.762Z" transform="translate(-136.917 -163.526)" fill="#900"/>
      <path id="Path_5269" data-name="Path 5269" d="M315.29-340.548a1.177,1.177,0,0,0-.568,1.917,1.179,1.179,0,0,0,1.917-.26A1.176,1.176,0,0,0,315.29-340.548Z" transform="translate(-300.538 -163.726)" fill="#900"/>
      <path id="Path_5270" data-name="Path 5270" d="M135.642-217.613a6.8,6.8,0,0,0-4.117,1.99,4.07,4.07,0,0,0-.525.581,4.96,4.96,0,0,0,.811.666c.068.051.124.009.538-.41a5.492,5.492,0,0,1,4.181-1.661,5.349,5.349,0,0,1,3.8,1.665c.414.414.47.457.538.406a5.377,5.377,0,0,0,.811-.662,3.254,3.254,0,0,0-.414-.483,6.88,6.88,0,0,0-3.643-2.007A8.183,8.183,0,0,0,135.642-217.613Z" transform="translate(-124.951 -281.426)" fill="#900"/>
    </g>
  </g>
</svg>
