<svg xmlns="http://www.w3.org/2000/svg" width="612" height="401" viewBox="0 0 612 401">
  <g id="_3973477-ai" data-name="3973477-ai" transform="translate(-65.6 -55.7)">
    <g id="Background_Complete" data-name="Background Complete">
      <g id="_Group_" data-name="&lt;Group&gt;">
        <path id="_Path_" data-name="&lt;Path&gt;" d="M666.9,150.3l-9.5,46.3-6.2-6-10.5,7.5-8-10-17.9,13.1-15.4-25.7-17.1,10.1-6.8-9.4-21.7,12.2-6.6-14,15.3-73.8,81.7,16.9Z" fill="#ebebeb"/>
        <path id="_Path_2" data-name="&lt;Path&gt;" d="M644.2,117.5,667,150.3l-28.4-5.9Z" fill="#dbdbdb"/>
        <path id="_Path_3" data-name="&lt;Path&gt;" d="M655.3,205.9l-14,68-110-22.7,13.9-67.5,6.5,14,21.8-12.2,6.8,9.3,17.1-10,15.3,25.7,18-13.1,8,9.9,10.5-7.4Z" fill="#ebebeb"/>
      </g>
      <g id="_Group_2" data-name="&lt;Group&gt;">
        <path id="_Path_4" data-name="&lt;Path&gt;" d="M497.8,197.9l-112.1,7-8.9-144L460,55.7l30.6,25.7Z" fill="#ebebeb"/>
        <path id="_Path_5" data-name="&lt;Path&gt;" d="M460,55.7l30.6,25.7-28.9,1.8Z" fill="#dbdbdb"/>
        <g id="_Group_3" data-name="&lt;Group&gt;">
          <path id="_Compound_Path_" data-name="&lt;Compound Path&gt;" d="M429,152.6l-.5-3.3c-1.1-6.7.7-14.2,6.6-22.1,5.3-6.9,8.1-12,7.8-17.7-.4-6.4-4.6-10.4-12.5-10.1a23.353,23.353,0,0,0-12.5,4.6l-3.4-7.7c3.9-3.3,11-5.7,17.6-6,14.5-.8,21.5,7.7,22,17.2.5,8.6-3.9,15-9.6,22.5-5.1,6.8-6.8,12.4-6.1,18.8l.3,3.2Zm-1.7,17.8c-.3-4.7,2.7-8.1,7-8.4,4.4-.2,7.6,2.9,7.9,7.5.2,4.4-2.5,8-7.1,8.2C430.7,178,427.5,174.8,427.3,170.4Z" fill="#dbdbdb"/>
        </g>
      </g>
      <g id="_Group_4" data-name="&lt;Group&gt;">
        <path id="_Compound_Path_2" data-name="&lt;Compound Path&gt;" d="M146.9,131.6a2.943,2.943,0,0,0,.4,3l.6.8a2.669,2.669,0,0,1,.5.7,2.843,2.843,0,0,0,2.8,1.4l3.7-.4,1.3,12.4-3.8.3a3.1,3.1,0,0,0-2.5,1.9,12.96,12.96,0,0,1-.7,1.7,2.9,2.9,0,0,0,.2,3.1l2.2,3.1-10.1,7.2-2.2-3.1a3.251,3.251,0,0,0-2.9-1.2,8.275,8.275,0,0,1-1.8.2,2.979,2.979,0,0,0-2.6,1.7l-1.5,3.5-11.3-5.1,1.5-3.5a2.932,2.932,0,0,0-.4-3.1,2.669,2.669,0,0,1-.5-.7,5.253,5.253,0,0,1-.5-.8,3.052,3.052,0,0,0-2.8-1.3l-3.8.3-1.2-12.3,3.8-.4a2.845,2.845,0,0,0,2.4-1.8q.4-.9.8-1.7a3.12,3.12,0,0,0-.2-3.1l-2.2-3.1,10.1-7.2,2.2,3.1a2.726,2.726,0,0,0,2.8,1.1,17.221,17.221,0,0,1,1.9-.1,2.89,2.89,0,0,0,2.5-1.7l1.6-3.5,11.3,5.1Zm-19,5.6a10.143,10.143,0,1,0,11.8,16.5,10,10,0,0,0,2.3-14.1,10.106,10.106,0,0,0-14.1-2.4Z" fill="#ebebeb" fill-rule="evenodd"/>
        <path id="_Compound_Path_3" data-name="&lt;Compound Path&gt;" d="M659.7,294a1.886,1.886,0,0,0,1.9,1h1.3a1.886,1.886,0,0,0,1.9-1l1.4-2.3,7.5,4.4-1.4,2.3a2.238,2.238,0,0,0,.1,2.1q.4.6.7,1.1a1.975,1.975,0,0,0,1.8,1.2h2.7v8.7h-2.7a1.889,1.889,0,0,0-1.8,1.1,6.175,6.175,0,0,1-.7,1.1,2.443,2.443,0,0,0-.1,2.2l1.4,2.3-7.5,4.3-1.4-2.3a2.058,2.058,0,0,0-1.9-1h-1.3a2.058,2.058,0,0,0-1.9,1l-1.3,2.3-7.5-4.3,1.3-2.3a2.173,2.173,0,0,0-.1-2.2q-.3-.5-.6-1.1a2.144,2.144,0,0,0-1.9-1.1H647v-8.7h2.6a2.241,2.241,0,0,0,1.9-1.2q.3-.5.6-1.1a1.993,1.993,0,0,0,.1-2.1l-1.3-2.3,7.5-4.4Zm-4.6,13.1a7.1,7.1,0,1,0,7.1-7.1A7.127,7.127,0,0,0,655.1,307.1Z" fill="#ebebeb" fill-rule="evenodd"/>
        <path id="_Compound_Path_4" data-name="&lt;Compound Path&gt;" d="M172.9,93.3a2.073,2.073,0,0,0,2.1.7,1.888,1.888,0,0,0,.6-.1h.6a2.255,2.255,0,0,0,1.8-1.3l1-2.4,8,3.3L186,96a1.856,1.856,0,0,0,.4,2.1,9.1,9.1,0,0,1,.7,1,2.04,2.04,0,0,0,2,.9l2.6-.3,1.2,8.6-2.7.3a2.076,2.076,0,0,0-1.6,1.4,9.164,9.164,0,0,0-.5,1.2,1.808,1.808,0,0,0,.2,2.1l1.6,2.2-6.9,5.2-1.6-2.1a2.073,2.073,0,0,0-2.1-.7h-.6a1.888,1.888,0,0,1-.6.1,2.072,2.072,0,0,0-1.8,1.3l-1,2.4-8-3.3,1-2.5a2.044,2.044,0,0,0-.4-2.1l-.8-1a1.815,1.815,0,0,0-1.9-.9l-2.7.3-1.1-8.6,2.7-.3a2.076,2.076,0,0,0,1.6-1.4,9.164,9.164,0,0,1,.5-1.2,1.982,1.982,0,0,0-.2-2.2l-1.6-2.1,6.9-5.2Zm-2.8,13.5a7.107,7.107,0,1,0,6.1-7.9,7.069,7.069,0,0,0-6.1,7.9Z" fill="#ebebeb" fill-rule="evenodd"/>
      </g>
      <g id="_Group_5" data-name="&lt;Group&gt;">
        <g id="_Group_6" data-name="&lt;Group&gt;">
          <path id="_Path_6" data-name="&lt;Path&gt;" d="M116.7,345.6c-.1.3-.6.1-.5-.2,1-10.9,2.3-21.7,2.4-32.8.6-39.4-7.7-78.5-17.7-116.4-.1-.3.4-.4.5-.1,3.3,10.8,6.4,21.5,8.9,32.5a368.6,368.6,0,0,1,9.1,59.1,256.888,256.888,0,0,1,.4,29.1C119.4,326.4,118.8,336.2,116.7,345.6Z" fill="#ebebeb"/>
          <path id="_Path_7" data-name="&lt;Path&gt;" d="M118.7,306.9c-1-14.1-15.5-13.5-22-26q-6.5-12.5,2.8-25.8-7-2-10.4-11.1-3.5-9.1,11.8-47.8,18.6,51.5,17.8,110.7Z" fill="#ebebeb"/>
          <path id="_Path_8" data-name="&lt;Path&gt;" d="M117,282.5v-.2c-2.2-26.3-6.8-52.6-14.8-77.9,0,0-.2,0-.1.1q4.5,16.9,8,34.1a16.892,16.892,0,0,0-7.3-4c-.1-.1-.1,0,0,0,2.8,1.3,5.5,2.7,7.5,5.1q.7,3.3,1.3,6.7c-3.4-3.8-8.2-5.7-12.9-7.5,0,0-.1.1,0,.1,4.9,2,9.8,4.6,13.1,8.8q1.8,9.7,3.1,19.4a19.113,19.113,0,0,0-9.1-5.3c-.1,0-.1.2,0,.2A20.044,20.044,0,0,1,115,268v.1q.5,3.4.9,6.8a24.377,24.377,0,0,0-6.4-3.9s-.1.1,0,.1a23.207,23.207,0,0,1,6.4,4.3h.1q.3,3.3.7,6.5a30.4,30.4,0,0,0-12.9-9.2c-.1-.1-.2.1-.1.1a33.206,33.206,0,0,1,12.7,9.8.327.327,0,0,0,.4.1q.5,5,.8,10c0,.1.1.1.1,0q-.3-5.1-.7-10.2Z" fill="#fff"/>
          <path id="_Path_9" data-name="&lt;Path&gt;" d="M104.6,230.9a35.08,35.08,0,0,0-9-2.9c-.1,0-.1-.2,0-.1a19.023,19.023,0,0,1,9.2,2.8C104.9,230.8,104.8,231,104.6,230.9Z" fill="#fff"/>
          <path id="_Path_10" data-name="&lt;Path&gt;" d="M106.5,271.8a27.277,27.277,0,0,0-6.8-2.3c-.1-.1-.1-.2,0-.2a18.932,18.932,0,0,1,6.9,2.4C106.7,271.7,106.6,271.9,106.5,271.8Z" fill="#fff"/>
        </g>
        <g id="_Group_7" data-name="&lt;Group&gt;">
          <path id="_Path_11" data-name="&lt;Path&gt;" d="M160.4,245.2c-6.9,5.8-13.8,11.3-19.3,18.4-10.2,13-14.3,30.5-16.9,46.5a156.784,156.784,0,0,0-.3,49.3c.1.3-.5.4-.5.1a116.309,116.309,0,0,1-2.7-28.2,153.215,153.215,0,0,1,9.2-50.2,62.087,62.087,0,0,1,12.4-21,95.823,95.823,0,0,1,17.6-15.4.354.354,0,0,1,.5.5Z" fill="#ebebeb"/>
          <path id="_Path_12" data-name="&lt;Path&gt;" d="M132.7,276.8q9-19.2,28.2-33-1.4,25.7-4.3,30.1-2.9,4.5-13.4,2.6,8.6,3.7,7.6,8.7c-1,5.1-7.4,10.5-15,18.1a80.742,80.742,0,0,0-12.9,16.4q.9-23.7,9.8-42.9Z" fill="#ebebeb"/>
          <path id="_Path_13" data-name="&lt;Path&gt;" d="M154.4,250.5c-3.9,4.1-7.8,8.3-11.4,12.7a21.2,21.2,0,0,1,7.5-.6h0a30.42,30.42,0,0,0-8,1.3l-1.4,1.8c4.1-.8,8.3-1.5,12.5-.4.1.1.1.2,0,.2-4.4-.8-8.8,0-13.1,1h0q-1.7,2.3-3.2,4.8a15.628,15.628,0,0,1,5.7-.6c.1,0,.1.1,0,.1a43.433,43.433,0,0,0-6.1,1.1,46.271,46.271,0,0,0-3.6,7q-1.9,4.5-3.5,9.1a47.965,47.965,0,0,1,7.5-.9v.1a63.46,63.46,0,0,0-7.6,1.3l-.6,1.8a41.738,41.738,0,0,1,11.2-.9v.1a48.734,48.734,0,0,0-11.4,1.4q-1.7,5.4-3.1,10.9a17.906,17.906,0,0,1,5-.9c.1,0,.1.2,0,.2a16.637,16.637,0,0,0-5,1.2l-.1.1q-1.6,6-2.8,12c0,.1-.1.1-.1,0a225.22,225.22,0,0,1,5.5-23.7v-.1q.4-1.2.7-2.3h0a106.172,106.172,0,0,1,4.3-11.1c4.7-10.4,12.9-18.8,20.9-26.8.2-.2.4-.1.2.1Z" fill="#fff"/>
          <path id="_Path_14" data-name="&lt;Path&gt;" d="M154,268.1c-1.2-.1-2.5,0-3.8-.1-.1,0-.1-.2,0-.2a15.972,15.972,0,0,1,3.8.1C154.1,267.9,154.1,268.1,154,268.1Z" fill="#fff"/>
          <path id="_Path_15" data-name="&lt;Path&gt;" d="M140.2,293.1c-1.9.3-3.9.5-5.9,1,0,0-.1-.1,0-.1a17.25,17.25,0,0,1,5.9-1.2.15.15,0,1,1,0,.3Z" fill="#fff"/>
          <path id="_Path_16" data-name="&lt;Path&gt;" d="M136.1,284.5a20.9,20.9,0,0,1-2.5.1c-.1,0-.1-.2,0-.2a21.051,21.051,0,0,1,2.5-.2c.1,0,.1.2,0,.3Z" fill="#fff"/>
        </g>
        <g id="_Group_8" data-name="&lt;Group&gt;">
          <path id="_Path_17" data-name="&lt;Path&gt;" d="M66.6,271.9a85.9,85.9,0,0,1,17.9,8.4,53.709,53.709,0,0,1,14.8,14.1,133.241,133.241,0,0,1,19.1,38.5,104.61,104.61,0,0,1,4.3,23.5.2.2,0,1,1-.4,0,131.312,131.312,0,0,0-11.7-39.8c-5.8-12.4-13.1-25.5-24.4-33.7-6.1-4.5-13-7.4-19.8-10.5-.4-.1-.1-.6.2-.5Z" fill="#ebebeb"/>
          <path id="_Path_18" data-name="&lt;Path&gt;" d="M113.9,324.1a71.7,71.7,0,0,0-14.2-10.3c-7.9-4.4-14.4-7.3-16.4-11.2q-1.9-3.8,4.2-8.8-8.1,3.9-11.5,1-3.3-2.9-10.4-23.3,18.7,6.6,30.4,20.1a92.991,92.991,0,0,1,17.9,32.5Z" fill="#ebebeb"/>
          <path id="_Path_19" data-name="&lt;Path&gt;" d="M112.9,319.9C103.6,302.3,91.1,286.4,74,276h0a78.179,78.179,0,0,1,12.5,9.8,19.585,19.585,0,0,0-10.1,2.1.1.1,0,0,0,.1.1,27.959,27.959,0,0,1,10.3-1.8H87q.9.9,1.8,1.7a31.955,31.955,0,0,0-5.4.8h0a26.879,26.879,0,0,1,5.7-.4,120.929,120.929,0,0,1,8.8,10,8.1,8.1,0,0,0-3.8.3.1.1,0,0,0,.1.1,26.39,26.39,0,0,1,4-.1q.8,1,1.5,2a38.088,38.088,0,0,0-11.3,1.1c-.1,0-.1.1,0,.1A48.573,48.573,0,0,1,100,301l1.4,2a25.028,25.028,0,0,0-6.7.7c-.1.1-.1.2,0,.2a23.437,23.437,0,0,1,7-.6q3,4.2,5.8,8.5a6.133,6.133,0,0,0-3,.2v.1a11.328,11.328,0,0,1,3.2.1q2.6,3.9,4.9,7.9c.1.2.5,0,.3-.2Z" fill="#fff"/>
          <path id="_Path_20" data-name="&lt;Path&gt;" d="M98.4,305.5a31.88,31.88,0,0,0-5.4.6.1.1,0,0,1-.1-.1,17.326,17.326,0,0,1,5.5-.7C98.5,305.3,98.5,305.5,98.4,305.5Z" fill="#fff"/>
          <path id="_Path_21" data-name="&lt;Path&gt;" d="M82,284.1c-.8.1-1.6,0-2.4.1-.1,0-.1-.1,0-.1a6.883,6.883,0,0,1,2.5-.2C82.2,283.9,82.2,284.1,82,284.1Z" fill="#fff"/>
        </g>
        <g id="_Group_9" data-name="&lt;Group&gt;">
          <g id="_Group_10" data-name="&lt;Group&gt;">
            <path id="_Path_22" data-name="&lt;Path&gt;" d="M138,382.2H95.8l6-44.1,1.6-11.3h27.1l1.5,11.3Z" fill="#dbdbdb"/>
            <path id="_Path_23" data-name="&lt;Path&gt;" d="M132,338.1H101.8l1.6-11.3h27.1Z" fill="#c7c7c7"/>
          </g>
          <path id="_Path_24" data-name="&lt;Path&gt;" d="M134.4,332.4H99.5v-9.6h34.9Z" fill="#dbdbdb"/>
        </g>
      </g>
    </g>
    <g id="Floor">
      <g id="_Group_11" data-name="&lt;Group&gt;">
        <path id="_Path_25" data-name="&lt;Path&gt;" d="M69,382.2l76-.3,76-.1,152-.1,152,.1,76,.1,76,.3-76,.2-76,.1-152,.2-152-.2-76-.1Z" fill="#263238"/>
      </g>
    </g>
    <g id="Shadow">
      <g id="_Group_12" data-name="&lt;Group&gt;">
        <ellipse id="_Path_26" data-name="&lt;Path&gt;" cx="286.7" cy="31.4" rx="286.7" ry="31.4" transform="translate(88.3 393.9)" fill="#ebebeb"/>
      </g>
    </g>
    <g id="Capa_4" data-name="Capa 4">
      <g id="_Group_13" data-name="&lt;Group&gt;">
        <g id="_Group_14" data-name="&lt;Group&gt;">
          <g id="_Group_15" data-name="&lt;Group&gt;">
            <g id="_Group_16" data-name="&lt;Group&gt;">
              <path id="_Path_27" data-name="&lt;Path&gt;" d="M308.3,420.1c-2.4.8-69.2,1-71.7-.6-1-.6-1.6-10.3-2-22.1q-.1-3.8-.2-7.8L229,353.9l44.6-.3,4.2,35.7-.1,7.8q25.6,11.4,28.2,13.4c2.6,2.1,4.7,8.8,2.4,9.6Z" fill="#eb9481"/>
              <path id="_Path_28" data-name="&lt;Path&gt;" d="M308.3,420.1c-2.4.8-69.2,1-71.7-.6-1.2-.7-1.9-14.9-2.2-29.9l43.4-.3-.1,7.8q25.6,11.4,28.2,13.4C308.5,412.6,310.6,419.3,308.3,420.1Z" fill="#fff"/>
              <g id="_Group_17" data-name="&lt;Group&gt;">
                <path id="_Path_29" data-name="&lt;Path&gt;" d="M308.3,420.1c-2.4.8-69.2,1-71.7-.6-1-.6-1.6-10.3-2-22.1l43.1-.3q25.6,11.4,28.2,13.4C308.5,412.6,310.6,419.3,308.3,420.1Z" fill="#a6a6a6"/>
                <g id="_Group_18" data-name="&lt;Group&gt;">
                  <g id="_Group_19" data-name="&lt;Group&gt;">
                    <path id="_Path_30" data-name="&lt;Path&gt;" d="M307.3,417.6c-11.2.4-56.4.9-67.5.4-.1,0-.1-.1,0-.1,11.1-.6,56.3-.7,67.5-.5C307.5,417.4,307.5,417.6,307.3,417.6Z" fill="#263238"/>
                    <path id="_Path_31" data-name="&lt;Path&gt;" d="M301.6,408.3a10.189,10.189,0,0,0-9,8.6c-.1.1-.2.1-.2,0a8.637,8.637,0,0,1,2.5-6,8.856,8.856,0,0,1,6.7-2.8c.1.1.1.2,0,.2Z" fill="#263238"/>
                    <path id="_Path_32" data-name="&lt;Path&gt;" d="M282.1,398.8a59.56,59.56,0,0,0-12.3,4.9c-.1,0-.3-.1-.2-.2,2.7-3.7,7.9-5.3,12.4-5.3A.317.317,0,0,1,282.1,398.8Z" fill="#263238"/>
                    <path id="_Path_33" data-name="&lt;Path&gt;" d="M285.6,400.1a57.412,57.412,0,0,0-12.3,4.9c-.2.1-.4-.1-.3-.2,2.8-3.7,8-5.3,12.5-5.2a.257.257,0,0,1,.1.5Z" fill="#263238"/>
                    <path id="_Path_34" data-name="&lt;Path&gt;" d="M289,401.5a61.872,61.872,0,0,0-12.3,4.9c-.1,0-.3-.1-.2-.3,2.8-3.6,8-5.2,12.4-5.2A.307.307,0,0,1,289,401.5Z" fill="#263238"/>
                    <path id="_Path_35" data-name="&lt;Path&gt;" d="M292.5,402.8a59.56,59.56,0,0,0-12.3,4.9c-.1.1-.3-.1-.2-.2,2.7-3.7,7.9-5.3,12.4-5.3A.317.317,0,0,1,292.5,402.8Z" fill="#263238"/>
                    <path id="_Path_36" data-name="&lt;Path&gt;" d="M242.6,407.3c-5,0-5,7.8.1,7.8C247.7,415,247.6,407.2,242.6,407.3Z" fill="#263238"/>
                  </g>
                  <path id="_Compound_Path_5" data-name="&lt;Compound Path&gt;" d="M286.5,392.8c-2.4,3.1-6.1,5.1-9.3,7.3-.3.3-.7,0-.8-.3-.1,0-.1,0-.1-.1a22.741,22.741,0,0,1,4-11.5c1.4-2,4.2-3.8,6.5-2,2.2,1.8,1.1,4.8-.3,6.6Zm.2-3.7c-.5-4.9-4.9-1.1-5.8.4a17.789,17.789,0,0,0-1.7,3c-1,2.2-1.7,4.4-2.5,6.7,1.5-1.2,3.1-2.3,4.6-3.4C283.2,394.4,286.9,391.8,286.7,389.1Z" fill="#263238" fill-rule="evenodd"/>
                  <path id="_Compound_Path_6" data-name="&lt;Compound Path&gt;" d="M260.3,396.9c.4-3,3.7-3.6,6.1-3.2a24.179,24.179,0,0,1,10.8,5.5c.1.1.1.1,0,.2a.5.5,0,0,1-.3.8c-3.8.6-7.9,1.7-11.8,1.2-2.3-.4-5.1-1.8-4.8-4.5Zm10.6,3c1.9-.2,3.7-.6,5.7-.7-2.2-1.1-4.2-2.2-6.5-3.1a17.016,17.016,0,0,0-3.2-1c-1.8-.4-7.5-.1-4.5,3.7C264.1,400.9,268.6,400.2,270.9,399.9Z" fill="#263238" fill-rule="evenodd"/>
                </g>
              </g>
            </g>
            <g id="_Group_20" data-name="&lt;Group&gt;">
              <path id="_Path_37" data-name="&lt;Path&gt;" d="M213.8,191.1q45.7,65.2,52.1,84.9,8.8,27.3,18.1,110.2l-54,1q-11.3-94-13.4-103.6-1.4-6.2-53.3-94.4Z" fill="#011d2c"/>
              <g id="_Group_21" data-name="&lt;Group&gt;">
                <path id="_Path_38" data-name="&lt;Path&gt;" d="M279.1,378.1c-7.8.3-42,1.1-45.5.6-.1,0-.1-.2,0-.2,10.3-.9,37.7-.6,45.5-.6C279.2,377.9,279.2,378.1,279.1,378.1Z" fill="#263238"/>
                <path id="_Path_39" data-name="&lt;Path&gt;" d="M172.2,197.3c3.4,5.3,7,10.6,10.4,15.8q5.3,8,10.4,15.9c6.8,10.7,13.5,21.4,20,32.3a89.609,89.609,0,0,1,8.1,15.7,100.7,100.7,0,0,1,4.6,16.9c1,5.8,1.7,11.7,2.4,17.5q1,9.3,2,18.7,2.2,19.1,4.3,38.2.3,2.3.5,4.7c0,.2-.4.3-.4,0-1.6-12.6-2.9-25.3-4.3-38q-1.1-9.5-2.2-18.9c-.7-5.9-1.3-11.8-2.2-17.6a126.18,126.18,0,0,0-3.8-17,79.015,79.015,0,0,0-7.5-16.5c-6.2-10.8-12.9-21.4-19.5-32-6.7-10.6-13.4-21.3-20.4-31.8l-2.6-3.8c-.1-.1.1-.2.2-.1Z" fill="#263238"/>
              </g>
            </g>
          </g>
          <g id="_Group_22" data-name="&lt;Group&gt;">
            <g id="_Group_23" data-name="&lt;Group&gt;">
              <path id="_Path_40" data-name="&lt;Path&gt;" d="M180.3,425.3c-2.4-.2-66-25.9-67.7-28.3a1.113,1.113,0,0,1-.1-.5c0-2.2,4.4-9.8,8-19.9.3-.6,1.9-3.6,4.2-7.6q6.2-11,17.3-29.9l41.5,16.5-19.8,29.7-3.1,7.2q19.5,20.2,21.1,23c1.6,2.9,1.1,9.9-1.4,9.8Z" fill="#eb9481"/>
              <path id="_Path_41" data-name="&lt;Path&gt;" d="M180.3,425.3c-2.4-.2-66-25.9-67.7-28.3a1.113,1.113,0,0,1-.1-.5c0-2.2,4.4-9.8,8-19.9.3-.6,1.9-3.6,4.2-7.6l39,16.3-3.1,7.2q19.5,20.2,21.1,23c1.6,2.9,1.1,9.9-1.4,9.8Z" fill="#fff"/>
              <g id="_Group_24" data-name="&lt;Group&gt;">
                <path id="_Path_42" data-name="&lt;Path&gt;" d="M180.3,425.3c-2.4-.2-66-25.9-67.7-28.3-.7-1,2.1-9.6,7.9-20.4l40.1,15.9q19.5,20.2,21.1,23c1.7,2.9,1.1,9.9-1.4,9.8Z" fill="#a6a6a6"/>
                <g id="_Group_25" data-name="&lt;Group&gt;">
                  <g id="_Group_26" data-name="&lt;Group&gt;">
                    <path id="_Path_43" data-name="&lt;Path&gt;" d="M180.4,422.6c-10.6-3.8-52.6-20.3-62.7-24.9-.1-.1-.1-.1,0-.1,10.5,3.6,52.4,20.4,62.7,24.8C180.6,422.5,180.6,422.7,180.4,422.6Z" fill="#263238"/>
                    <path id="_Path_44" data-name="&lt;Path&gt;" d="M178.6,411.9a10.254,10.254,0,0,0-11.6,4.5c-.1.1-.2.1-.2,0a9.109,9.109,0,0,1,11.8-4.7C178.7,411.8,178.7,411.9,178.6,411.9Z" fill="#263238"/>
                    <path id="_Path_45" data-name="&lt;Path&gt;" d="M164.1,395.7a59.151,59.151,0,0,0-13.3,0c-.1,0-.3-.3-.1-.3,3.9-2.4,9.4-1.9,13.5-.2.3.1.2.6-.1.5Z" fill="#263238"/>
                    <path id="_Path_46" data-name="&lt;Path&gt;" d="M166.8,398.3a59.156,59.156,0,0,0-13.3-.1.192.192,0,0,1-.1-.3c4-2.4,9.4-1.9,13.5-.2a.317.317,0,0,1-.1.6Z" fill="#263238"/>
                    <path id="_Path_47" data-name="&lt;Path&gt;" d="M169.5,400.8a65.69,65.69,0,0,0-13.3-.1.192.192,0,0,1-.1-.3c4-2.3,9.4-1.9,13.5-.1a.257.257,0,0,1-.1.5Z" fill="#263238"/>
                    <path id="_Path_48" data-name="&lt;Path&gt;" d="M172.2,403.3a58.266,58.266,0,0,0-13.2,0c-.2,0-.3-.2-.2-.3,4-2.4,9.4-1.9,13.5-.2C172.6,402.9,172.5,403.4,172.2,403.3Z" fill="#263238"/>
                    <path id="_Path_49" data-name="&lt;Path&gt;" d="M124.3,388.8c-4.7-1.9-7.6,5.4-2.9,7.2C126.1,397.9,129,390.6,124.3,388.8Z" fill="#263238"/>
                  </g>
                  <path id="_Compound_Path_7" data-name="&lt;Compound Path&gt;" d="M170.4,391.8c-3.4,2-7.6,2.5-11.4,3.4-.4,0-.6-.3-.6-.7-.1,0-.1-.1-.1-.2a24.408,24.408,0,0,1,8.1-9.1c2-1.3,5.3-1.9,6.7.7,1.4,2.4-.7,4.8-2.7,5.9Zm1.5-3.3c1.4-4.7-4-2.9-5.5-1.9-.9.7-1.8,1.5-2.6,2.2a61.5,61.5,0,0,0-4.9,5.3,57.272,57.272,0,0,1,5.6-1.4C166.7,392.1,171.2,391.1,171.9,388.5Z" fill="#263238" fill-rule="evenodd"/>
                  <path id="_Compound_Path_8" data-name="&lt;Compound Path&gt;" d="M144.6,385.8c1.4-2.6,4.8-2,6.8-.7a23.7,23.7,0,0,1,8,9.2c0,.1,0,.1-.1.2,0,.3-.2.7-.6.6-3.8-.9-7.9-1.3-11.3-3.4-2-1.1-4.1-3.5-2.8-5.9Zm8.6,6.8c1.9.5,3.8.9,5.6,1.4-1.6-1.8-3.1-3.6-4.8-5.2a18.569,18.569,0,0,0-2.7-2.2c-1.4-1.1-6.9-2.9-5.5,1.8.8,2.6,5.2,3.6,7.4,4.2Z" fill="#263238" fill-rule="evenodd"/>
                </g>
              </g>
            </g>
            <g id="_Group_27" data-name="&lt;Group&gt;">
              <path id="_Path_50" data-name="&lt;Path&gt;" d="M166.9,383.7l-46.5-18.8q57.6-84.8,58.1-91.1c.3-5.6-25-54.2-26-68.3-1.1-15.3,6.3-27.2,14.4-34.5l48,20.4A36.443,36.443,0,0,1,201.8,204q24.6,56.2,23.2,73.5T166.9,383.7Z" fill="#011d2c"/>
              <g id="_Group_28" data-name="&lt;Group&gt;">
                <path id="_Path_51" data-name="&lt;Path&gt;" d="M168.9,375c-6.9-2.6-5-1.7-11.8-4.4-3.3-1.3-25.2-10-28.1-11.8a.1.1,0,0,1,.1-.1c3.3.7,25,9.8,28.3,11.1,6.8,2.9,4.8,2.1,11.5,5,.2.1.1.3,0,.2Z" fill="#263238"/>
                <g id="_Group_29" data-name="&lt;Group&gt;">
                  <path id="_Path_52" data-name="&lt;Path&gt;" d="M209.9,203.5c-4.8,1.7-9.8,3-14.7,4.5-.2,0-.3-.2-.1-.3a92.389,92.389,0,0,1,14.6-4.8C210.1,202.9,210.3,203.4,209.9,203.5Z" fill="#263238"/>
                  <path id="_Path_53" data-name="&lt;Path&gt;" d="M204.9,201.4c-.4.8-.8,1.6-1.3,2.4a7.08,7.08,0,0,1-1.2,2c0,.1-.2,0-.2-.1a5.549,5.549,0,0,1,.6-2.2A17.226,17.226,0,0,1,204,201a.494.494,0,0,1,.9.4Z" fill="#263238"/>
                  <path id="_Path_54" data-name="&lt;Path&gt;" d="M204.6,196.5q.4-1.1.9-2.2c.3-.8.7-1.5,1-2.3,0-.2.2-.1.1.1a18.659,18.659,0,0,1-.7,2.2,23.172,23.172,0,0,1-.7,2.3c-.5,1.4-1.1,2.8-1.7,4.2a4.5,4.5,0,0,0,2.3-.4,4.178,4.178,0,0,0,1.7-2l1.2-2.4a14.254,14.254,0,0,0,1.3-2.8c.1-.1.3-.1.2.1a33.676,33.676,0,0,1-2.5,5.9c-.5.7-.8,1.5-1.6,1.8a6.621,6.621,0,0,1-2.8.1c-.1.1-.2,0-.2-.1a29.68,29.68,0,0,1,1.5-4.5Z" fill="#263238"/>
                </g>
                <path id="_Path_55" data-name="&lt;Path&gt;" d="M202.6,205.8c1.7,3.6,3.2,7.2,4.8,10.8q2.3,5.3,4.4,10.7,4.3,10.8,7.7,22,1.6,5.5,3,11.1a63.753,63.753,0,0,1,2.2,11.4,29.28,29.28,0,0,1-.9,11.4,57.426,57.426,0,0,1-4.3,10.6c-1,2.2-1.4,1.9-.8.8,1.4-3.1,5.1-12.5,4.9-20.4a70.631,70.631,0,0,0-1.8-11.2q-1.3-5.7-3-11.3c-2.1-7.3-4.6-14.5-7.2-21.7-1.5-4-3.1-8-4.5-12-1.5-4.1-3.1-7.7-4.7-12.1-.1-.1.1-.2.2-.1Z" fill="#263238"/>
                <path id="_Path_56" data-name="&lt;Path&gt;" d="M167.3,193.9c.8-.3,2,.2,2.8.3a17.872,17.872,0,0,0,3.3.3,18.391,18.391,0,0,0,3.3-.1,6.5,6.5,0,0,0,3.1-.8,16,16,0,0,0,4-4.2,24.991,24.991,0,0,0,3.1-5.5c0-.1.2,0,.2.1-.4,1.1-.6,2.2-1.1,3.3a20.987,20.987,0,0,1-1.5,3c-1.1,1.7-2.3,3.6-4.2,4.7s-4.4,1-6.5.9a22.472,22.472,0,0,1-3.7-.5c-.9-.2-2.4-.4-2.9-1.1-.1-.2-.1-.4.1-.4Z" fill="#263238"/>
                <path id="_Path_57" data-name="&lt;Path&gt;" d="M133.7,356q11.4-17.3,22.5-34.9,11-17.7,21.7-35.6c1.7-2.8,3.7-5.7,4.8-8.8,1.2-3.5.5-6.8-.5-10.2a173.122,173.122,0,0,0-7.2-18c-2.7-5.9-5.5-11.7-8.4-17.6-2.8-5.7-5.8-11.5-7.9-17.6-2.1-5.8-2.9-11.8-1.3-17.9,1.6-5.9,4.9-11.3,8.4-16.3l2.8-4c.1-.1.3.1.2.1-3.9,5.3-7.7,10.8-9.9,16.9a27.676,27.676,0,0,0-.4,19.1c1.9,6.1,4.8,11.9,7.6,17.6,2.8,5.8,5.7,11.6,8.4,17.5a186.924,186.924,0,0,1,7.5,18.1c.9,2.8,2,5.7,1.9,8.6-.1,3.3-1.6,6.2-3.2,8.9-7,11.8-14.2,23.6-21.5,35.2q-11,17.5-22.4,34.8-1.4,2.2-2.9,4.3c-.1.2-.4,0-.2-.2Z" fill="#263238"/>
              </g>
            </g>
          </g>
        </g>
        <g id="_Group_30" data-name="&lt;Group&gt;">
          <g id="_Group_31" data-name="&lt;Group&gt;">
            <path id="_Path_58" data-name="&lt;Path&gt;" d="M223.7,130.8c3.1,1.2,28.8,9.5,33.6,9.5,3.9,0,16.3-1.9,30.9-3.7,5.3-.6,12.1,23.7,3.2,25.1-7.7,1.1-30.1.8-37.5-.2-10.2-1.4-32.1-14.5-36.4-24-2.4-5.4-1.4-9.5,6.2-6.7Z" fill="#eb9481"/>
            <g id="_Group_32" data-name="&lt;Group&gt;">
              <g id="_Group_33" data-name="&lt;Group&gt;">
                <path id="_Path_59" data-name="&lt;Path&gt;" d="M220.6,129a24.3,24.3,0,0,1,3.9.6q11,2.4,27.7,7.6l-8.3,18.5-2.6,5.6q-18.2-13.2-23.7-21.3c-4.7-7-4.1-11.3,3-11Z" fill="#bf2121"/>
              </g>
              <path id="_Path_60" data-name="&lt;Path&gt;" d="M220.6,129c6,6.9,16.5,18.9,23.3,26.7l-2.6,5.6q-18.2-13.2-23.7-21.3C212.9,133,213.5,128.7,220.6,129Z" fill="#263238"/>
              <path id="_Path_61" data-name="&lt;Path&gt;" d="M238.1,157.6c1.3-3.4,7.5-17.1,9.1-20,.1-.2.2-.2.1,0a217.216,217.216,0,0,1-9.1,20.1S238,157.7,238.1,157.6Z" fill="#263238"/>
            </g>
            <g id="_Group_34" data-name="&lt;Group&gt;">
              <path id="_Path_62" data-name="&lt;Path&gt;" d="M285.5,136.9c8.9-1.2,19.9-3.1,29.2.8a5,5,0,0,1,2.5,2.1q4.2,1.7,4.6,4.2,3.5,2.8,3.6,5.4,4.9,2.1,4.1,5.2c-.8,3.6-7.5,0-12.4.3-11.3.7-27.1,4.9-30.3,5.4Z" fill="#eb9481"/>
              <path id="_Path_63" data-name="&lt;Path&gt;" d="M304.8,147.4a81.554,81.554,0,0,1,9.9-.1,79.886,79.886,0,0,1,10.6,2.2c.1,0,.1-.1,0-.2a38.734,38.734,0,0,0-20.5-2.1c-.2.1-.2.2,0,.2Z" fill="#263238"/>
              <path id="_Path_64" data-name="&lt;Path&gt;" d="M303.4,140.5a34.591,34.591,0,0,1,18.4,3.6h0c-9.5-3.3-15.2-3.4-18.4-3.4-.2,0-.2-.2,0-.2Z" fill="#263238"/>
              <path id="_Path_65" data-name="&lt;Path&gt;" d="M302.7,136.8c5.9.2,8.4.5,14.5,3a.1.1,0,0,1-.1.1c-5.5-1.7-8.9-2.6-14.4-2.9-.2,0-.2-.2,0-.2Z" fill="#263238"/>
              <path id="_Path_66" data-name="&lt;Path&gt;" d="M303.6,156.6c-1.4.7-1.1,1.5,1.6,2.1,2.8.6,14.1.8,13.7,4.8-.4,3.9-16.4,3.4-20.9,2a64.44,64.44,0,0,1-11.2-5.2c3.2-.5,10.6-2.5,16.8-3.7Z" fill="#eb9481"/>
            </g>
          </g>
          <g id="_Group_35" data-name="&lt;Group&gt;">
            <path id="_Path_67" data-name="&lt;Path&gt;" d="M229.4,152.6a45.73,45.73,0,0,1-.5,5.2.288.288,0,0,0,.1-.2c.3-.9.7-1.8,1.1-2.7h.1a22.939,22.939,0,0,1-.9,2.8q-.3.7-.5,1.3-.2,1.1-.5,2.3c-.3,1.4-1.6,7.5-1.9,8.5-.1.2-.3.2-.3-.1.1-1.1,1.2-7.4,1.4-8.9.5-2.7,1.1-5.5,1.8-8.2,0-.1.1,0,.1,0Z" fill="#263238"/>
            <g id="_Group_36" data-name="&lt;Group&gt;">
              <path id="_Path_68" data-name="&lt;Path&gt;" d="M219,198.1c-2.7,1.4-6.1,3.5-21.6.4q-1.5-.3-2.9-.7c-14.6-4.4-32-21.5-33-22.7q23.1-37.4,52.6-49.2c3.7-1.4,9.7,1.4,13.1,4.9,1.2,1.2,3.7,10.4,2.7,17.9-1,7.4-8.2,48-10.9,49.4Z" fill="#bf2121"/>
              <g id="_Group_37" data-name="&lt;Group&gt;">
                <g id="_Group_38" data-name="&lt;Group&gt;">
                  <path id="_Path_69" data-name="&lt;Path&gt;" d="M216.9,148.3a9.662,9.662,0,0,1-.1,2.4,9.484,9.484,0,0,1-.5,2.3,9.637,9.637,0,0,1,0-2.4A19.479,19.479,0,0,1,216.9,148.3Z" fill="#fff"/>
                </g>
                <g id="_Group_39" data-name="&lt;Group&gt;">
                  <path id="_Path_70" data-name="&lt;Path&gt;" d="M206.8,173.8a9.637,9.637,0,0,1,0,2.4,11.2,11.2,0,0,1-.6,2.3,9.662,9.662,0,0,1,.1-2.4A9.484,9.484,0,0,1,206.8,173.8Z" fill="#fff"/>
                </g>
                <g id="_Group_40" data-name="&lt;Group&gt;">
                  <path id="_Path_71" data-name="&lt;Path&gt;" d="M189.7,154.5a9.637,9.637,0,0,1,0,2.4,15.451,15.451,0,0,1-.6,2.3,9.662,9.662,0,0,1,.1-2.4A10.613,10.613,0,0,1,189.7,154.5Z" fill="#fff"/>
                </g>
                <g id="_Group_41" data-name="&lt;Group&gt;">
                  <path id="_Path_72" data-name="&lt;Path&gt;" d="M223.5,172.5a9.662,9.662,0,0,1-.1,2.4,9.484,9.484,0,0,1-.5,2.3,9.637,9.637,0,0,1,0-2.4A19.479,19.479,0,0,1,223.5,172.5Z" fill="#fff"/>
                </g>
                <g id="_Group_42" data-name="&lt;Group&gt;">
                  <path id="_Path_73" data-name="&lt;Path&gt;" d="M201.5,151.2a19.267,19.267,0,0,1,2.4.1,9.766,9.766,0,0,1,2.3.6,9.662,9.662,0,0,1-2.4-.1A11.2,11.2,0,0,1,201.5,151.2Z" fill="#fff"/>
                </g>
                <g id="_Group_43" data-name="&lt;Group&gt;">
                  <path id="_Path_74" data-name="&lt;Path&gt;" d="M182.1,169.7a9.637,9.637,0,0,1,2.4,0,9.766,9.766,0,0,1,2.3.6,9.662,9.662,0,0,1-2.4-.1A9.484,9.484,0,0,1,182.1,169.7Z" fill="#fff"/>
                </g>
                <g id="_Group_44" data-name="&lt;Group&gt;">
                  <path id="_Path_75" data-name="&lt;Path&gt;" d="M205,189.6a8.879,8.879,0,0,1,2.3.1,8.561,8.561,0,0,1,2.3.5,8.844,8.844,0,0,1-2.3,0A15.451,15.451,0,0,1,205,189.6Z" fill="#fff"/>
                </g>
                <g id="_Group_45" data-name="&lt;Group&gt;">
                  <path id="_Path_76" data-name="&lt;Path&gt;" d="M176.1,182.3a19.267,19.267,0,0,1,2.4.1,9.766,9.766,0,0,1,2.3.6,9.662,9.662,0,0,1-2.4-.1A11.2,11.2,0,0,1,176.1,182.3Z" fill="#fff"/>
                </g>
                <g id="_Group_46" data-name="&lt;Group&gt;">
                  <path id="_Path_77" data-name="&lt;Path&gt;" d="M216.8,130.4a8.684,8.684,0,0,1,2.3.1,6.028,6.028,0,0,1,2.3.6,16.949,16.949,0,0,1-2.3-.1A8.648,8.648,0,0,1,216.8,130.4Z" fill="#fff"/>
                </g>
                <g id="_Group_47" data-name="&lt;Group&gt;">
                  <path id="_Path_78" data-name="&lt;Path&gt;" d="M211.1,136.8a12.878,12.878,0,0,1-1.7,1.6,8.175,8.175,0,0,1-2,1.2,12.878,12.878,0,0,1,1.7-1.6A8.175,8.175,0,0,1,211.1,136.8Z" fill="#fff"/>
                </g>
                <g id="_Group_48" data-name="&lt;Group&gt;">
                  <path id="_Path_79" data-name="&lt;Path&gt;" d="M180.3,154.9a12.878,12.878,0,0,1-1.7,1.6,8.175,8.175,0,0,1-2,1.2,12.878,12.878,0,0,1,1.7-1.6A13.242,13.242,0,0,1,180.3,154.9Z" fill="#fff"/>
                </g>
                <g id="_Group_49" data-name="&lt;Group&gt;">
                  <path id="_Path_80" data-name="&lt;Path&gt;" d="M218.8,163.1a9.345,9.345,0,0,1-1.8,1.6,6.657,6.657,0,0,1-2,1.2,12.878,12.878,0,0,1,1.7-1.6A8.776,8.776,0,0,1,218.8,163.1Z" fill="#fff"/>
                </g>
                <g id="_Group_50" data-name="&lt;Group&gt;">
                  <path id="_Path_81" data-name="&lt;Path&gt;" d="M193.9,178.8a12.878,12.878,0,0,1-1.7,1.6,8.776,8.776,0,0,1-2.1,1.2,12.878,12.878,0,0,1,1.7-1.6A8.776,8.776,0,0,1,193.9,178.8Z" fill="#fff"/>
                </g>
                <g id="_Group_51" data-name="&lt;Group&gt;">
                  <path id="_Path_82" data-name="&lt;Path&gt;" d="M228.3,141.7a12.878,12.878,0,0,1-1.7,1.6,8.175,8.175,0,0,1-2,1.2,12.878,12.878,0,0,1,1.7-1.6A8.175,8.175,0,0,1,228.3,141.7Z" fill="#fff"/>
                </g>
                <g id="_Group_52" data-name="&lt;Group&gt;">
                  <path id="_Path_83" data-name="&lt;Path&gt;" d="M227.8,159.8a12.878,12.878,0,0,1-1.6-1.7,8.175,8.175,0,0,1-1.2-2,12.878,12.878,0,0,1,1.6,1.7A13.242,13.242,0,0,1,227.8,159.8Z" fill="#fff"/>
                </g>
                <g id="_Group_53" data-name="&lt;Group&gt;">
                  <path id="_Path_84" data-name="&lt;Path&gt;" d="M172.3,172.4c-.6-.6-1.1-1.2-1.6-1.8a8.175,8.175,0,0,1-1.2-2,12.878,12.878,0,0,1,1.6,1.7A14.316,14.316,0,0,1,172.3,172.4Z" fill="#fff"/>
                </g>
                <g id="_Group_54" data-name="&lt;Group&gt;">
                  <path id="_Path_85" data-name="&lt;Path&gt;" d="M221.1,187.3a14.056,14.056,0,0,1-1.7-1.8,13.242,13.242,0,0,1-1.2-2,8.519,8.519,0,0,1,1.6,1.7,14.8,14.8,0,0,1,1.3,2.1Z" fill="#fff"/>
                </g>
                <g id="_Group_55" data-name="&lt;Group&gt;">
                  <path id="_Path_86" data-name="&lt;Path&gt;" d="M196.6,144.8a12.878,12.878,0,0,1-1.6-1.7,8.776,8.776,0,0,1-1.2-2.1c.6.6,1.1,1.2,1.6,1.8A8.175,8.175,0,0,1,196.6,144.8Z" fill="#fff"/>
                </g>
                <g id="_Group_56" data-name="&lt;Group&gt;">
                  <path id="_Path_87" data-name="&lt;Path&gt;" d="M197.1,195.7a9.118,9.118,0,0,1-1.7-1.7,13.242,13.242,0,0,1-1.2-2,8.519,8.519,0,0,1,1.6,1.7,13.736,13.736,0,0,1,1.3,2Z" fill="#fff"/>
                </g>
                <g id="_Group_57" data-name="&lt;Group&gt;">
                  <path id="_Path_88" data-name="&lt;Path&gt;" d="M201.2,165.7a12.878,12.878,0,0,1-1.6-1.7,8.776,8.776,0,0,1-1.2-2.1,9.345,9.345,0,0,1,1.6,1.8A9.634,9.634,0,0,1,201.2,165.7Z" fill="#fff"/>
                </g>
              </g>
            </g>
          </g>
          <g id="_Group_58" data-name="&lt;Group&gt;">
            <g id="_Group_59" data-name="&lt;Group&gt;">
              <g id="_Group_60" data-name="&lt;Group&gt;">
                <path id="_Path_89" data-name="&lt;Path&gt;" d="M221.7,140.7c-3.7-.7-7.3-8.4-7.7-13.7-.1-.3,1.7-3.2,3.7-6.8a56.386,56.386,0,0,0,3.6-6.9q.2-.5,1.4,1.1l2.7,2.1,8.9,6.8a34.649,34.649,0,0,0-5.4,8.2,5.7,5.7,0,0,0-.3,1,.288.288,0,0,1-.1.2c-.5,1.9-3.1,8.7-6.8,8Z" fill="#eb9481"/>
              </g>
              <path id="_Path_90" data-name="&lt;Path&gt;" d="M228.6,132.5a.288.288,0,0,1-.1.2,8.779,8.779,0,0,1-1.5-.6q-9.7-4.5-5.4-17.5l3.8,1.9,8.9,6.8a34.649,34.649,0,0,0-5.4,8.2A5.7,5.7,0,0,0,228.6,132.5Z" fill="#263238"/>
            </g>
            <g id="_Group_61" data-name="&lt;Group&gt;">
              <path id="_Path_91" data-name="&lt;Path&gt;" d="M244.4,95.6a9.007,9.007,0,0,1,4.5,7.8c0,5-2,9.9-2.5,10.1Q246,113.6,244.4,95.6Z" fill="#263238"/>
              <g id="_Group_62" data-name="&lt;Group&gt;">
                <path id="_Path_92" data-name="&lt;Path&gt;" d="M244,94.9c3.8,4.1,4.4,25.6-1.1,31.5-5.6,6.2-14.8,4-19.7-2.2-3.3-4.2-3.4-20.8-.8-26C226.4,90.4,238.3,89,244,94.9Z" fill="#eb9481"/>
              </g>
              <path id="_Path_93" data-name="&lt;Path&gt;" d="M222.9,124Z" fill="none" stroke="#f5a79e" stroke-linecap="round" stroke-linejoin="round" stroke-width="0.4"/>
              <g id="_Group_63" data-name="&lt;Group&gt;">
                <g id="_Group_64" data-name="&lt;Group&gt;">
                  <path id="_Path_94" data-name="&lt;Path&gt;" d="M235.4,114.4h0c1-.4,1.1-1.7,1.1-2.9l.1-.1c.2,1.1.1,2.8-1.2,3Z" fill="#263238"/>
                  <path id="_Path_95" data-name="&lt;Path&gt;" d="M235.5,110.3c-1.8-.1-1.8,3.5-.2,3.6C237,114,237.1,110.4,235.5,110.3Z" fill="#263238"/>
                </g>
                <g id="_Group_65" data-name="&lt;Group&gt;">
                  <path id="_Path_96" data-name="&lt;Path&gt;" d="M242.7,111.4c0-.1.1,0,.1.1,0,1.1.1,2.4,1.1,2.8v.1c-1.2-.2-1.4-2-1.2-3Z" fill="#263238"/>
                  <path id="_Path_97" data-name="&lt;Path&gt;" d="M243.8,110.2c1.8-.1,1.9,3.6.2,3.7S242.2,110.3,243.8,110.2Z" fill="#263238"/>
                </g>
                <path id="_Path_98" data-name="&lt;Path&gt;" d="M233.5,106.3a2.76,2.76,0,0,1,1.6-1.2,1.828,1.828,0,0,1,1.9.2.8.8,0,0,1,.2,1c-.4.5-.9.5-1.4.7a7.838,7.838,0,0,1-1.4.5.806.806,0,0,1-.9-1.2Z" fill="#263238"/>
                <path id="_Path_99" data-name="&lt;Path&gt;" d="M245,109.1a7.366,7.366,0,0,1-1.4-.4,1.91,1.91,0,0,1-1.4-.7.75.75,0,0,1,0-.9,2.061,2.061,0,0,1,2-.3,2.268,2.268,0,0,1,1.6,1.1c.5.5-.1,1.3-.8,1.2Z" fill="#263238"/>
                <path id="_Path_100" data-name="&lt;Path&gt;" d="M234,122.1c.3.3.5.7.9.7a2.375,2.375,0,0,0,1.2-.3.1.1,0,0,1,.1.1,1.537,1.537,0,0,1-1.4.6,1.158,1.158,0,0,1-.9-1,.1.1,0,0,1,.1-.1Z" fill="#263238"/>
                <g id="_Group_66" data-name="&lt;Group&gt;">
                  <path id="_Path_101" data-name="&lt;Path&gt;" d="M240.5,117.3a15.146,15.146,0,0,1,0,2.5,13.443,13.443,0,0,0-4.6.1c-.4.1-.3-.2.1-.4a7.712,7.712,0,0,1,3.9-.5c.1-.2-.1-2.6,0-2.6a5.775,5.775,0,0,1,1.7.6c0-3.5-.5-7-.5-10.5,0-.1.2-.1.3,0a60.885,60.885,0,0,1,1,11.3C242.4,118.2,240.8,117.5,240.5,117.3Z" fill="#263238"/>
                </g>
                <g id="_Group_67" data-name="&lt;Group&gt;">
                  <path id="_Path_102" data-name="&lt;Path&gt;" d="M238.3,119.2a4.481,4.481,0,0,1-2.1,2.5c-1.5.6-2-.8-.5-2A4.012,4.012,0,0,1,238.3,119.2Z" fill="#263238"/>
                  <path id="_Path_103" data-name="&lt;Path&gt;" d="M236.7,121.4a1.255,1.255,0,0,1-.5.3c-1.4.5-2-.6-.8-1.7.7.1,1.6.3,1.3,1.4Z" fill="#ff99ba"/>
                </g>
              </g>
              <g id="_Group_68" data-name="&lt;Group&gt;">
                <path id="_Path_104" data-name="&lt;Path&gt;" d="M218.9,99.5a8.363,8.363,0,0,1,3.1-5.2c-.5-1.9,2-4.3,2.2-4.3q.3.1-.4,2.9c.6-2.3,3.8-3.5,3.9-3.3q.1.2-2.2,2.9,6.7-6.3,11.6-6c5,.2,10.7,5.1,10.7,7.1-.1,1.9-3.2,6-7.8,7.4-4.6,1.3-12.5-4.3-12.6-3.9s-.7,6.3-1.2,8.2c-.6,2.1-2.7,7.6-4.5,7-2.2-.6-3.1-10.1-2.8-12.8Z" fill="#263238"/>
                <path id="_Path_105" data-name="&lt;Path&gt;" d="M243.3,100.1a9.363,9.363,0,0,1-9.2,1.8,16.6,16.6,0,0,1-8.4-6.1.368.368,0,0,1,.5-.5c1.2.8,2.2,2,3.4,2.9a15.042,15.042,0,0,0,4.4,2.6,10.35,10.35,0,0,0,4.9.8,13.676,13.676,0,0,0,4.4-1.6v.1Z" fill="#263238"/>
              </g>
              <g id="_Group_69" data-name="&lt;Group&gt;">
                <path id="_Path_106" data-name="&lt;Path&gt;" d="M223.8,116.4q-1.4,2.4-4,1c-2.6-1.5-4.2-9.5-1.6-10.4q2.6-.9,5.4,4.8Z" fill="#eb9481"/>
                <path id="_Path_107" data-name="&lt;Path&gt;" d="M222.3,116.2h0a.215.215,0,0,1-.4.1,8.509,8.509,0,0,0-.6-1.7,1.983,1.983,0,0,0-1.9-.9v-.1a1.653,1.653,0,0,1,2.3.8c-.5-2-1.2-4-3-5-.1-.1,0-.1,0-.1,2.6.6,4,4.4,3.6,6.9Z" fill="#263238"/>
              </g>
            </g>
          </g>
          <g id="_Group_70" data-name="&lt;Group&gt;">
            <g id="_Group_71" data-name="&lt;Group&gt;">
              <path id="_Path_108" data-name="&lt;Path&gt;" d="M219.7,145.1c5.9,11,19.2,30,21.3,31.9,2.2,1.8,25.2,9,32.6,12.4,3.5,1.6-6,25.6-9.4,24.6-7.8-2.2-29.5-9.2-41.2-19.8-7.9-7.1-20.1-45.3-18.2-56.6,1-5.8,7.1-7.2,14.9,7.5Z" fill="#eb9481"/>
              <g id="_Group_72" data-name="&lt;Group&gt;">
                <path id="_Path_109" data-name="&lt;Path&gt;" d="M267.8,187.3q10.2,2.6,16.8,4.6c3.7,1.1,9.8,3.6,12.1,5.7,3.5,3,16.1,18.2,12.5,21.3q-3.3,2.8-12.4-11.5,10.5,13.6,6,16.3-4.6,2.7-12.8-14.9,10.5,14.3,5.4,16.3-3.9,1.6-12.2-14,8.9,12.4,5,14.1-4.3,2-12.9-11.9c-10.7,2.8-17-.3-21.1-3q-1.1-.6,13.6-23Z" fill="#eb9481"/>
                <g id="_Group_73" data-name="&lt;Group&gt;">
                  <path id="_Path_110" data-name="&lt;Path&gt;" d="M293.5,202.4c1.2,1.6,2.6,3.1,3.7,4.8a52.661,52.661,0,0,1,3.3,5.2,30.284,30.284,0,0,1,3.1,7.2c-1.7-4.4-5.7-10.4-6.9-12.1l-3.3-5.1h.1Z" fill="#263238"/>
                  <path id="_Path_111" data-name="&lt;Path&gt;" d="M287.3,206.4c2.3,1.8,6.9,8.3,8.7,12.7.1.2,0,.2-.1,0-1.4-2.1-7.1-10.5-8.6-12.6v-.1Z" fill="#263238"/>
                  <path id="_Path_112" data-name="&lt;Path&gt;" d="M281.5,209a31.888,31.888,0,0,1,6.4,10c.1.2-.1.1-.2,0-2.1-3.4-3.7-6.1-6.3-9.9C281.3,209,281.4,208.9,281.5,209Z" fill="#263238"/>
                </g>
              </g>
            </g>
            <g id="_Group_74" data-name="&lt;Group&gt;">
              <path id="_Path_113" data-name="&lt;Path&gt;" d="M232.6,161.8,209.5,173a187.752,187.752,0,0,1-6.3-28.7c-1.8-14,3.6-18.8,12.8-5.9Q221.8,146.7,232.6,161.8Z" fill="#bf2121"/>
              <g id="_Group_75" data-name="&lt;Group&gt;">
                <g id="_Group_76" data-name="&lt;Group&gt;">
                  <path id="_Path_114" data-name="&lt;Path&gt;" d="M221.5,143.5a6.263,6.263,0,0,1,.7,2.2,19.418,19.418,0,0,1,.2,2.4,6.154,6.154,0,0,1-.7-2.3,16.412,16.412,0,0,1-.2-2.3Z" fill="#fff"/>
                </g>
                <g id="_Group_77" data-name="&lt;Group&gt;">
                  <path id="_Path_115" data-name="&lt;Path&gt;" d="M207.9,151.3a9.766,9.766,0,0,1,2.3-.6,9.345,9.345,0,0,1,2.4-.2c-.8.3-1.6.5-2.3.7A9.663,9.663,0,0,1,207.9,151.3Z" fill="#fff"/>
                </g>
                <g id="_Group_78" data-name="&lt;Group&gt;">
                  <path id="_Path_116" data-name="&lt;Path&gt;" d="M208.5,131.2a10.344,10.344,0,0,1-1.1,2.1,13.72,13.72,0,0,1-1.6,1.8A8.776,8.776,0,0,1,207,133a11.919,11.919,0,0,1,1.5-1.8Z" fill="#fff"/>
                </g>
                <g id="_Group_79" data-name="&lt;Group&gt;">
                  <path id="_Path_117" data-name="&lt;Path&gt;" d="M228,157.4a13.242,13.242,0,0,1-1.2,2,6.9,6.9,0,0,1-1.6,1.8,8.776,8.776,0,0,1,1.2-2.1A8.518,8.518,0,0,1,228,157.4Z" fill="#fff"/>
                </g>
                <g id="_Group_80" data-name="&lt;Group&gt;">
                  <path id="_Path_118" data-name="&lt;Path&gt;" d="M212,165.2a11.252,11.252,0,0,1-2.1-1.2,7.965,7.965,0,0,1-1.7-1.5,12.81,12.81,0,0,1,2,1.1,9.345,9.345,0,0,1,1.8,1.6Z" fill="#fff"/>
                </g>
              </g>
              <path id="_Path_119" data-name="&lt;Path&gt;" d="M219,142.3l3.8,5q-.5-1.3-.9-2.6h.1c.3.7.5,1.3.8,2l.4,1v.2q1.5,1.9,2.9,3.9,1.7,2.3,3.4,4.7c1.1,1.7,2.2,3.6,3.4,5.2.1.2-2.1,1-2.3,1.2-.2.1-.3-.1-.1-.2s1.9-1.1,1.9-1.1c-1.1-1.6-2.3-3.1-3.5-4.7q-1.7-2.3-3.4-4.7c-2.2-3.3-4.3-6.6-6.5-9.9-.1,0,0-.1,0,0Z" fill="#263238"/>
              <path id="_Path_120" data-name="&lt;Path&gt;" d="M203.8,153.6c.3.6.7,1.3,1,2q.2.4.4.9-.8-3.8-1.6-7.5s.1-.1.1,0c1,4,2.1,8.1,3.1,12.1a118.159,118.159,0,0,1,2.6,11.8c.3-.1,2.1-.9,2.2-.7a12.806,12.806,0,0,1-2.4,1.1c-1.3-3.9-2.1-8.2-3-12.2q-.4-1.7-.7-3.4c-.3-.7-.6-1.3-.9-2l-.9-2.1c0-.1.1-.1.1,0Z" fill="#263238"/>
              <path id="_Path_121" data-name="&lt;Path&gt;" d="M209.9,169.2c3.2-1.9,16.6-8.8,19.6-10.1.2-.1.3,0,.1.2a215.95,215.95,0,0,1-19.6,10c-.1,0-.2-.1-.1-.1Z" fill="#263238"/>
            </g>
          </g>
        </g>
      </g>
    </g>
    <g id="Folder">
      <g id="_Group_81" data-name="&lt;Group&gt;">
        <g id="_Group_82" data-name="&lt;Group&gt;">
          <g id="_Group_83" data-name="&lt;Group&gt;">
            <path id="_Path_122" data-name="&lt;Path&gt;" d="M576.3,432.1H271.6l44.1-249.9H620.4Z" fill="#900"/>
            <path id="_Path_123" data-name="&lt;Path&gt;" d="M422.4,182.2H315.7l4.6-25.9H420Z" fill="#900"/>
          </g>
          <g id="_Group_84" data-name="&lt;Group&gt;" opacity="0.1">
            <path id="_Path_124" data-name="&lt;Path&gt;" d="M576.3,432.1H271.6l44.1-249.9H620.4Z"/>
            <path id="_Path_125" data-name="&lt;Path&gt;" d="M422.4,182.2H315.7l4.6-25.9H420Z"/>
          </g>
        </g>
        <g id="_Group_85" data-name="&lt;Group&gt;">
          <g id="_Group_86" data-name="&lt;Group&gt;">
            <path id="_Path_126" data-name="&lt;Path&gt;" d="M309.5,166.9a16.521,16.521,0,0,1-.5-4.4,15.8,15.8,0,0,1,.5-4.3,15.8,15.8,0,0,1,.5,4.3A16.521,16.521,0,0,1,309.5,166.9Z" fill="#263238"/>
          </g>
          <g id="_Group_87" data-name="&lt;Group&gt;">
            <path id="_Path_127" data-name="&lt;Path&gt;" d="M300.6,169.4a18.724,18.724,0,0,1-2.6-3.5,16.066,16.066,0,0,1-1.7-4,16.7,16.7,0,0,1,2.6,3.5A15.536,15.536,0,0,1,300.6,169.4Z" fill="#263238"/>
          </g>
          <g id="_Group_88" data-name="&lt;Group&gt;">
            <path id="_Path_128" data-name="&lt;Path&gt;" d="M294.2,176.1a15.877,15.877,0,0,1-4-1.8,16.7,16.7,0,0,1-3.5-2.6,16.231,16.231,0,0,1,4,1.8A12.767,12.767,0,0,1,294.2,176.1Z" fill="#263238"/>
          </g>
          <g id="_Group_89" data-name="&lt;Group&gt;">
            <path id="_Path_129" data-name="&lt;Path&gt;" d="M292,185a15.8,15.8,0,0,1-4.3.5,16.521,16.521,0,0,1-4.4-.5,32.931,32.931,0,0,1,4.4-.5A31.481,31.481,0,0,1,292,185Z" fill="#263238"/>
          </g>
          <g id="_Group_90" data-name="&lt;Group&gt;">
            <path id="_Path_130" data-name="&lt;Path&gt;" d="M294.6,193.9a16.7,16.7,0,0,1-3.5,2.6,20.444,20.444,0,0,1-4,1.8,12.768,12.768,0,0,1,3.5-2.6A13.233,13.233,0,0,1,294.6,193.9Z" fill="#263238"/>
          </g>
          <g id="_Group_91" data-name="&lt;Group&gt;">
            <path id="_Path_131" data-name="&lt;Path&gt;" d="M301.2,200.3a13.055,13.055,0,0,1-1.7,4,12.767,12.767,0,0,1-2.6,3.5,20.034,20.034,0,0,1,1.7-4A28.819,28.819,0,0,1,301.2,200.3Z" fill="#263238"/>
          </g>
          <g id="_Group_92" data-name="&lt;Group&gt;">
            <path id="_Path_132" data-name="&lt;Path&gt;" d="M310.2,202.5a16.521,16.521,0,0,1,.5,4.4,15.8,15.8,0,0,1-.5,4.3,15.8,15.8,0,0,1-.5-4.3A16.521,16.521,0,0,1,310.2,202.5Z" fill="#263238"/>
          </g>
          <g id="_Group_93" data-name="&lt;Group&gt;">
            <path id="_Path_133" data-name="&lt;Path&gt;" d="M319.1,199.9a23.593,23.593,0,0,1,2.6,3.6,16.066,16.066,0,0,1,1.7,4,16.7,16.7,0,0,1-2.6-3.5A14.8,14.8,0,0,1,319.1,199.9Z" fill="#263238"/>
          </g>
          <g id="_Group_94" data-name="&lt;Group&gt;">
            <path id="_Path_134" data-name="&lt;Path&gt;" d="M325.5,193.3a20.034,20.034,0,0,1,4,1.7,21.861,21.861,0,0,1,3.5,2.7,16.231,16.231,0,0,1-4-1.8,12.767,12.767,0,0,1-3.5-2.6Z" fill="#263238"/>
          </g>
          <g id="_Group_95" data-name="&lt;Group&gt;">
            <path id="_Path_135" data-name="&lt;Path&gt;" d="M327.7,184.3a31.481,31.481,0,0,1,4.3-.5,21.985,21.985,0,0,1,4.4.5,16.521,16.521,0,0,1-4.4.5A15.8,15.8,0,0,1,327.7,184.3Z" fill="#263238"/>
          </g>
          <g id="_Group_96" data-name="&lt;Group&gt;">
            <path id="_Path_136" data-name="&lt;Path&gt;" d="M325.1,175.5a16.7,16.7,0,0,1,3.5-2.6,20.444,20.444,0,0,1,4-1.8,12.768,12.768,0,0,1-3.5,2.6A13.233,13.233,0,0,1,325.1,175.5Z" fill="#263238"/>
          </g>
          <g id="_Group_97" data-name="&lt;Group&gt;">
            <path id="_Path_137" data-name="&lt;Path&gt;" d="M318.5,169.1a13.055,13.055,0,0,1,1.7-4,12.767,12.767,0,0,1,2.6-3.5,20.034,20.034,0,0,1-1.7,4A28.819,28.819,0,0,1,318.5,169.1Z" fill="#263238"/>
          </g>
        </g>
        <path id="_Path_138" data-name="&lt;Path&gt;" d="M575.9,432.1H270.5L227.2,191.3H532.5Z" fill="#ae0000"/>
        <g id="_Group_98" data-name="&lt;Group&gt;">
          <circle id="_Path_139" data-name="&lt;Path&gt;" cx="12.7" cy="12.7" r="12.7" transform="translate(320.3 313.1)" fill="#fff"/>
          <circle id="_Path_140" data-name="&lt;Path&gt;" cx="12.7" cy="12.7" r="12.7" transform="translate(420.6 313.1)" fill="#fff"/>
          <path id="_Path_141" data-name="&lt;Path&gt;" d="M401.4,340.5l-.7-1.3c-.1-.2-6.6-12.3-19.8-12.3-12.1,0-15,11.4-15.1,11.9l-.4,1.5-2.9-.7.4-1.5c0-.1,3.5-14.2,18-14.2,15,0,22.1,13.3,22.4,13.9l.7,1.3Z" fill="#fff"/>
        </g>
      </g>
    </g>
    <g id="Fly">
      <g id="_Group_99" data-name="&lt;Group&gt;">
        <g id="_Group_100" data-name="&lt;Group&gt;">
          <g id="_Group_101" data-name="&lt;Group&gt;">
            <path id="_Path_142" data-name="&lt;Path&gt;" d="M555.6,324.3l2-.4" fill="none" stroke="#263238" stroke-width="1"/>
            <path id="_Path_143" data-name="&lt;Path&gt;" d="M561.4,322.7c15.3-5.1,28.1-17.2,29.3-31.2,2.7-31-35.1-48.2-31.2-84,3.7-34.2,39.6-36.6,53.9-31.9,15.9,5.2,10.5,20.5-3.9,18.5-24.9-3.4-40.6-30.5-28.7-61.2,8.8-22.9,30.8-31.6,39.8-34.2" fill="none" stroke="#263238" stroke-width="1" stroke-dasharray="4 4"/>
            <path id="_Path_144" data-name="&lt;Path&gt;" d="M622.5,98.1q1.3-.3,2-.4" fill="none" stroke="#263238" stroke-width="1" stroke-dasharray="4 4"/>
          </g>
        </g>
        <g id="_Group_102" data-name="&lt;Group&gt;">
          <path id="_Path_145" data-name="&lt;Path&gt;" d="M640.3,92.2c-2.5-7.9-19.6-5.1-16.3,5.2C627.4,107.8,642.9,100.1,640.3,92.2Z" fill="#263238"/>
          <g id="_Group_103" data-name="&lt;Group&gt;">
            <path id="_Path_146" data-name="&lt;Path&gt;" d="M614.7,89c.2-3.5,5-6.2,11.8-4.9a32.122,32.122,0,0,1,13.2,5.8,32.154,32.154,0,0,1-13.6,4.8c-6.9.8-11.5-2.2-11.4-5.7Z" fill="#ebebeb"/>
            <g id="_Group_104" data-name="&lt;Group&gt;">
              <path id="_Path_147" data-name="&lt;Path&gt;" d="M639.7,89.9c-3.5,0-7-.1-10.6-.2-3.5-.2-7-.3-10.6-.6,3.6,0,7.1.1,10.6.2C632.7,89.5,636.2,89.6,639.7,89.9Z" fill="#263238"/>
              <path id="_Path_148" data-name="&lt;Path&gt;" d="M621.6,85.9a26.94,26.94,0,0,1,2.9,1.6,26.1,26.1,0,0,1,2.7,1.9,20.9,20.9,0,0,1-2.9-1.6A26.1,26.1,0,0,1,621.6,85.9Z" fill="#263238"/>
              <path id="_Path_149" data-name="&lt;Path&gt;" d="M630.8,89.6a20,20,0,0,1-2.8,2c-1,.6-2,1.3-3,1.8a29.194,29.194,0,0,1,2.8-2.1c1-.6,2-1.2,3-1.7Z" fill="#263238"/>
              <path id="_Path_150" data-name="&lt;Path&gt;" d="M631.9,87.6a10.985,10.985,0,0,1,1.4.9,13.577,13.577,0,0,1,1.2,1.2,4.827,4.827,0,0,1-1.4-.9A4.561,4.561,0,0,1,631.9,87.6Z" fill="#263238"/>
            </g>
          </g>
          <g id="_Group_105" data-name="&lt;Group&gt;">
            <path id="_Path_151" data-name="&lt;Path&gt;" d="M627.1,98.2a32.884,32.884,0,0,1,13.9-4,32.72,32.72,0,0,1-7.4,12.4c-4.8,5-10.2,5.7-12.4,2.9C619.1,106.8,621.1,101.7,627.1,98.2Z" fill="#ebebeb"/>
            <g id="_Group_106" data-name="&lt;Group&gt;">
              <path id="_Path_152" data-name="&lt;Path&gt;" d="M632.7,100.8c-2.8,2.2-5.6,4.4-8.5,6.4,2.7-2.3,5.5-4.5,8.3-6.7,2.8-2.1,5.6-4.3,8.5-6.3C638.3,96.5,635.5,98.7,632.7,100.8Z" fill="#263238"/>
              <path id="_Path_153" data-name="&lt;Path&gt;" d="M629.7,104.9a16.385,16.385,0,0,1,1.4-3c-.3,1-.7,2.1-1.1,3.1a27.514,27.514,0,0,1-1.4,3A28.271,28.271,0,0,1,629.7,104.9Z" fill="#263238"/>
              <path id="_Path_154" data-name="&lt;Path&gt;" d="M630.5,100a20.445,20.445,0,0,1-3.5,0c1.1-.2,2.3-.3,3.5-.4H634A22.1,22.1,0,0,1,630.5,100Z" fill="#263238"/>
              <path id="_Path_155" data-name="&lt;Path&gt;" d="M636.2,99a7.581,7.581,0,0,1,.6-1.6,5.079,5.079,0,0,1-.3,1.7,4.714,4.714,0,0,1-.6,1.5A9.007,9.007,0,0,1,636.2,99Z" fill="#263238"/>
            </g>
          </g>
          <path id="_Path_156" data-name="&lt;Path&gt;" d="M640.3,92.2a3.08,3.08,0,0,1-3.8-2,2.973,2.973,0,0,1,2-3.7,2.877,2.877,0,0,1,3.7,1.9,2.907,2.907,0,0,1-1.9,3.8Z" fill="#455a64"/>
          <path id="_Path_157" data-name="&lt;Path&gt;" d="M642.2,97.9a3.037,3.037,0,0,1-3.8-2,2.916,2.916,0,0,1,1.9-3.7,2.983,2.983,0,0,1,3.8,1.9,3.065,3.065,0,0,1-1.9,3.8Z" fill="#455a64"/>
        </g>
      </g>
    </g>
    <g id="Speech_Bubble" data-name="Speech Bubble">
      <g id="_Group_107" data-name="&lt;Group&gt;">
        <g id="_Group_108" data-name="&lt;Group&gt;">
          <path id="_Path_158" data-name="&lt;Path&gt;" d="M314.3,95.3a24.911,24.911,0,0,1-41.6,15.8l-12.5,1.8,6.2-10.8a24.937,24.937,0,1,1,47.9-6.8Z" fill="#fff"/>
          <path id="_Compound_Path_9" data-name="&lt;Compound Path&gt;" d="M314.3,95.3a25.605,25.605,0,0,1-5,12.7c-.7.9-1.5,1.7-2.3,2.6-.8.7-1.7,1.5-2.6,2.2a23.443,23.443,0,0,1-6,3.3,21.883,21.883,0,0,1-6.7,1.6,20.479,20.479,0,0,1-3.5.1,14.8,14.8,0,0,1-3.4-.4,25.352,25.352,0,0,1-12.2-5.9l-12.3,1.9-.9.1.4-.8,6.1-10.6a25.4,25.4,0,0,1,1.6-22,26.941,26.941,0,0,1,7.8-8.3,25.775,25.775,0,0,1,10.7-4,25.08,25.08,0,0,1,11.2,1,28.435,28.435,0,0,1,9.7,5.9,25.185,25.185,0,0,1,7.4,20.6Zm-41.7,16.2.1-.1-.3-.1.2.2Zm-6.7-9.4a.288.288,0,0,0,.1.2v-.4Zm48.4-6.8a24.94,24.94,0,0,0-7.5-20.5,26.651,26.651,0,0,0-9.6-5.6,26.092,26.092,0,0,0-11.1-.9,25.065,25.065,0,0,0-17.8,12.2,24.572,24.572,0,0,0-3.1,10.6,23.408,23.408,0,0,0,1.7,10.8l.1.3-.1.2-5.8,9.9,11.5-1.6h.2l.1.1a24.743,24.743,0,0,0,12,6.2,26.407,26.407,0,0,0,3.4.4c1.1.1,2.2,0,3.4,0a25.26,25.26,0,0,0,6.6-1.5,21.611,21.611,0,0,0,6-3.2c1-.7,1.8-1.5,2.7-2.2.7-.9,1.6-1.7,2.2-2.6a24.177,24.177,0,0,0,5.1-12.6Zm-53.2,17-.9.2.4.6Z" fill="#263238" fill-rule="evenodd"/>
        </g>
        <g id="_Group_109" data-name="&lt;Group&gt;">
          <path id="_Compound_Path_10" data-name="&lt;Compound Path&gt;" d="M277.3,104.3a2.476,2.476,0,0,1,2.5-2.5,2.336,2.336,0,0,1,2.4,2.5,2.366,2.366,0,0,1-2.4,2.6A2.442,2.442,0,0,1,277.3,104.3Zm1.1-5.9-.6-19.8h4l-.6,19.8Z" fill="#ae0000"/>
          <path id="_Compound_Path_11" data-name="&lt;Compound Path&gt;" d="M286.8,104.3a2.476,2.476,0,0,1,2.5-2.5,2.336,2.336,0,0,1,2.4,2.5,2.366,2.366,0,0,1-2.4,2.6A2.442,2.442,0,0,1,286.8,104.3Zm1.1-5.9-.6-19.8h4l-.6,19.8Z" fill="#ae0000"/>
          <path id="_Compound_Path_12" data-name="&lt;Compound Path&gt;" d="M296.4,104.3a2.393,2.393,0,0,1,2.4-2.5,2.336,2.336,0,0,1,2.4,2.5,2.408,2.408,0,1,1-4.8,0Zm1-5.9-.6-19.8h4l-.6,19.8Z" fill="#ae0000"/>
        </g>
      </g>
    </g>
  </g>
</svg>
