<svg xmlns="http://www.w3.org/2000/svg" xmlns:xlink="http://www.w3.org/1999/xlink" width="72" height="70" viewBox="0 0 72 70">
  <defs>
    <filter id="Ellipse_126" x="1.5" y="0" width="70" height="70" filterUnits="userSpaceOnUse">
      <feOffset input="SourceAlpha"/>
      <feGaussianBlur stdDeviation="5" result="blur"/>
      <feFlood flood-opacity="0.161"/>
      <feComposite operator="in" in2="blur"/>
      <feComposite in="SourceGraphic"/>
    </filter>
  </defs>
  <g id="Group_2223" data-name="Group 2223" transform="translate(-4913 -3568)">
    <g id="Group_19713" data-name="Group 19713" transform="translate(4862.5 3548)">
      <g id="Group_19711" data-name="Group 19711">
        <g transform="matrix(1, 0, 0, 1, 50.5, 20)" filter="url(#Ellipse_126)">
          <circle id="Ellipse_126-2" data-name="Ellipse 126" cx="20" cy="20" r="20" transform="translate(16.5 15)" fill="#fff"/>
        </g>
        <line id="Line_411" data-name="Line 411" x2="10" transform="translate(109.5 50.5)" fill="none" stroke="#900" stroke-width="1"/>
        <line id="Line_413" data-name="Line 413" x1="10" transform="translate(57 58.5)" fill="none" stroke="#900" stroke-width="1"/>
        <line id="Line_412" data-name="Line 412" x2="6" transform="translate(116.5 46.5)" fill="none" stroke="#900" stroke-width="1"/>
        <line id="Line_414" data-name="Line 414" x1="6" transform="translate(50.5 62.5)" fill="none" stroke="#900" stroke-width="1"/>
        <circle id="Ellipse_127" data-name="Ellipse 127" cx="3.5" cy="3.5" r="3.5" transform="translate(58 38)" fill="#900" opacity="0.16"/>
        <circle id="Ellipse_128" data-name="Ellipse 128" cx="3.5" cy="3.5" r="3.5" transform="translate(91 22)" fill="#900" opacity="0.38"/>
        <circle id="Ellipse_129" data-name="Ellipse 129" cx="3.5" cy="3.5" r="3.5" transform="translate(105 71)" fill="#eed5d5"/>
      </g>
    </g>
    <g id="Group_2221" data-name="Group 2221" transform="translate(4940.28 3591.095)">
      <g id="Group_2222" data-name="Group 2222" transform="translate(0.005 0)">
        <path id="Path_11752" data-name="Path 11752" d="M8.178,217.812c-.435-.042-.871-.078-1.306-.127a17.158,17.158,0,0,1-6.047-1.771,1.215,1.215,0,0,1-.728-1,8.066,8.066,0,0,1,.167-3.371,2.621,2.621,0,0,1,1.86-1.865,13.289,13.289,0,0,0,3.569-1.632.6.6,0,1,1,.654,1,12.8,12.8,0,0,1-3.693,1.71,1.765,1.765,0,0,0-1.363,1.557,8.383,8.383,0,0,0-.045,2.247.4.4,0,0,0,.248.364,15.791,15.791,0,0,0,4.51,1.441,18.4,18.4,0,0,0,7.273-.214,14.045,14.045,0,0,0,3.477-1.263.335.335,0,0,0,.163-.208,6.91,6.91,0,0,0-.1-2.672,1.6,1.6,0,0,0-1.193-1.214,13.294,13.294,0,0,1-3.773-1.735.62.62,0,0,1-.325-.665.6.6,0,0,1,.92-.371c.378.222.747.459,1.133.665a10.448,10.448,0,0,0,2.292.934,2.834,2.834,0,0,1,2.183,2.417,8.86,8.86,0,0,1,.018,3.012,1.026,1.026,0,0,1-.58.8,16.229,16.229,0,0,1-5.226,1.706c-.693.106-1.4.15-2.094.224-.069.007-.136.022-.2.033Z" transform="translate(0 -196.37)" fill="#900" stroke="#900" stroke-width="0.2"/>
        <path id="Path_11753" data-name="Path 11753" d="M90.387,5.442a8.883,8.883,0,0,1-.657,3.465,3.993,3.993,0,0,1-2.968,2.5,4.327,4.327,0,0,1-3.825-.876,4.622,4.622,0,0,1-1.356-2.117,9.817,9.817,0,0,1-.4-3.937A5.329,5.329,0,0,1,81.9,2.02,4.145,4.145,0,0,1,84.872.075a5.081,5.081,0,0,1,2.491.188A4.06,4.06,0,0,1,90.1,3.172a4.562,4.562,0,0,1,.16.753c.056.5.087,1.011.128,1.517m-1.207-.2c-.026-.324-.042-.673-.084-1.017a3.749,3.749,0,0,0-.6-1.714,2.945,2.945,0,0,0-2.043-1.241,3.589,3.589,0,0,0-2.735.513,3.243,3.243,0,0,0-1.305,2.4,9.47,9.47,0,0,0,.053,2.91,4.43,4.43,0,0,0,1.006,2.3,3.08,3.08,0,0,0,3.046.853,2.894,2.894,0,0,0,2.2-1.988A8.064,8.064,0,0,0,89.18,5.24" transform="translate(-76.664 0)" fill="#900" stroke="#900" stroke-width="0.2"/>
      </g>
    </g>
  </g>
</svg>
